<svg width="835" height="700" title="svg_title" version="1.1" xmlns="http://www.w3.org/2000/svg"><g class="link"><path d="M568.5135015582352,284.5139862807328A271.4785380239995,271.4785380239995 0,0,1 308.9626844571273,364.10022849504605" style="fill: none; stroke-width: 14.3333; stroke: rgb(143, 0, 0); stroke-opacity: 0.4;"></path><path d="M568.5135015582352,284.5139862807328A238.22331129986387,238.22331129986387 0,0,1 365.41295412143273,409.0150452221851" style="fill: none; stroke-width: 13.6667; stroke: rgb(143, 0, 0); stroke-opacity: 0.4;"></path><path d="M308.9626844571273,364.10022849504605A72.13857294683125,72.13857294683125 0,0,1 365.41295412143273,409.0150452221851" style="fill: none; stroke-width: 5; stroke: rgb(143, 0, 0); stroke-opacity: 0.4;"></path><path d="M568.5135015582352,284.5139862807328A307.70903901393535,307.70903901393535 0,0,1 311.04375155125996,453.01971473595546" style="fill: none; stroke-width: 3; stroke: rgb(143, 0, 0); stroke-opacity: 0.4;"></path><path d="M308.9626844571273,364.10022849504605A88.94383550082355,88.94383550082355 0,0,1 311.04375155125996,453.01971473595546" style="fill: none; stroke-width: 3; stroke: rgb(143, 0, 0); stroke-opacity: 0.4;"></path><path d="M311.04375155125996,453.01971473595546A69.94584424490587,69.94584424490587 0,0,1 365.41295412143273,409.0150452221851" style="fill: none; stroke-width: 3; stroke: rgb(143, 0, 0); stroke-opacity: 0.4;"></path><path d="M308.9626844571273,364.10022849504605A30,20 -45,1,1 309.9626844571273,365.10022849504605" style="fill: none; stroke-width: 2.33333; stroke: rgb(143, 0, 0); stroke-opacity: 0.4;"></path><path d="M311.04375155125996,453.01971473595546A308.0494912081062,308.0494912081062 0,0,1 535.6616506104403,242.20868927520553" style="fill: none; stroke-width: 2.33333; stroke: rgb(143, 0, 0); stroke-opacity: 0.4;"></path><path d="M535.6616506104403,242.20868927520553A30,20 -45,1,1 536.6616506104403,243.20868927520553" style="fill: none; stroke-width: 2.33333; stroke: rgb(143, 0, 0); stroke-opacity: 0.4;"></path></g><circle r="19.25" style="fill: rgb(0, 130, 200); stroke: rgb(85, 85, 85); stroke-width: 2px;" cx="568.5135015582352" cy="284.5139862807328"></circle><circle r="37.70513477300475" style="fill: rgb(0, 130, 200); stroke: rgb(85, 85, 85); stroke-width: 2px;" cx="308.9626844571273" cy="364.10022849504605"></circle><circle r="35.695844244905885" style="fill: rgb(248, 248, 255); stroke: rgb(85, 85, 85); stroke-width: 2px;" cx="311.04375155125996" cy="453.01971473595546"></circle><circle r="19.25" style="fill: rgb(0, 130, 200); stroke: rgb(85, 85, 85); stroke-width: 2px;" cx="535.6616506104403" cy="242.20868927520553"></circle><circle r="19.25" style="fill: rgb(0, 130, 200); stroke: rgb(85, 85, 85); stroke-width: 2px;" cx="365.41295412143273" cy="409.0150452221851"></circle><g><text x="555.6801682249019" y="287.7223196140661" style="font-style: normal; font-variant: normal; font-weight: bold; font-stretch: normal; font-size: 7.7px; line-height: normal; font-family: sans-serif; pointer-events: none;">CDC28</text><text x="289.1178766818616" y="370.38441762388015" style="font-style: normal; font-variant: normal; font-weight: bold; font-stretch: normal; font-size: 15.0821px; line-height: normal; font-family: sans-serif; pointer-events: none;">CKS1</text><text x="292.25646510657265" y="458.96902211010644" style="font-style: normal; font-variant: normal; font-weight: bold; font-stretch: normal; font-size: 14.2783px; line-height: normal; font-family: sans-serif; pointer-events: none;">CLB1</text><text x="525.5300716630719" y="245.41702260853887" style="font-style: normal; font-variant: normal; font-weight: bold; font-stretch: normal; font-size: 7.7px; line-height: normal; font-family: sans-serif; pointer-events: none;">PUF3</text><text x="355.2813751740643" y="412.2233785555184" style="font-style: normal; font-variant: normal; font-weight: bold; font-stretch: normal; font-size: 7.7px; line-height: normal; font-family: sans-serif; pointer-events: none;">SIC1</text></g></svg>