<svg width="835" height="700" title="svg_title" version="1.1" xmlns="http://www.w3.org/2000/svg"><g class="link"><path marker-end="url(#blue_arrow)" style="fill: none; stroke-width: 2.33333; stroke: blue; stroke-opacity: 0.4;" d="M501.23341576563,290.4839891117046A174.3947445595266,174.3947445595266 0,0,1 345.45943062467944,368.89312431474997"></path><path marker-end="url(#blue_arrow)" style="fill: none; stroke-width: 2.33333; stroke: blue; stroke-opacity: 0.4;" d="M501.23341576563,290.4839891117046A294.0053429516439,294.0053429516439 0,0,1 286.6818766970743,491.4983636410595"></path><path marker-end="url(#blue_arrow)" style="fill: none; stroke-width: 1.66667; stroke: blue; stroke-opacity: 0.4;" d="M277.33891880467405,353.80708409361523A306.10406031925885,306.10406031925885 0,0,1 581.3661971870373,389.40356907948785"></path><path marker-end="url(#blue_arrow)" style="fill: none; stroke-width: 1.66667; stroke: blue; stroke-opacity: 0.4;" d="M503.4356224011843,443.6323759569159A252.26696165611085,252.26696165611085 0,0,1 748.2082396254142,382.59971420596224"></path><path marker-end="url(#blue_arrow)" style="fill: none; stroke-width: 1.66667; stroke: blue; stroke-opacity: 0.4;" d="M503.4356224011843,443.6323759569159A94.94176100011425,94.94176100011425 0,0,1 581.3661971870373,389.40356907948785"></path><path marker-end="url(#blue_arrow)" style="fill: none; stroke-width: 1.66667; stroke: blue; stroke-opacity: 0.4;" d="M503.4356224011843,443.6323759569159A174.7639347927313,174.7639347927313 0,0,1 345.45943062467944,368.89312431474997"></path><path marker-end="url(#blue_arrow)" style="fill: none; stroke-width: 1.66667; stroke: blue; stroke-opacity: 0.4;" d="M437.05721868426394,504.1624833494563A334.0545833760623,334.0545833760623 0,0,1 748.2082396254142,382.59971420596224"></path><path marker-end="url(#blue_arrow)" style="fill: none; stroke-width: 1.66667; stroke: blue; stroke-opacity: 0.4;" d="M437.05721868426394,504.1624833494563A223.1077837538153,223.1077837538153 0,0,1 501.23341576563,290.4839891117046"></path><path marker-end="url(#blue_arrow)" style="fill: none; stroke-width: 1.66667; stroke: blue; stroke-opacity: 0.4;" d="M198.44686639895133,211.08734628918828A163.07323352332128,163.07323352332128 0,0,1 277.33891880467405,353.80708409361523"></path><path marker-end="url(#blue_arrow)" style="fill: none; stroke-width: 1.66667; stroke: blue; stroke-opacity: 0.4;" d="M198.44686639895133,211.08734628918828A383.53009283621265,383.53009283621265 0,0,1 503.4356224011843,443.6323759569159"></path><path marker-end="url(#blue_arrow)" style="fill: none; stroke-width: 1.66667; stroke: blue; stroke-opacity: 0.4;" d="M198.44686639895133,211.08734628918828A377.92583423287687,377.92583423287687 0,0,1 437.05721868426394,504.1624833494563"></path><path marker-end="url(#blue_arrow)" style="fill: none; stroke-width: 1.66667; stroke: blue; stroke-opacity: 0.4;" d="M198.44686639895133,211.08734628918828A75.04910088893321,75.04910088893321 0,0,1 272.7130719180516,221.8992962535582"></path><path marker-end="url(#blue_arrow)" style="fill: none; stroke-width: 1.66667; stroke: blue; stroke-opacity: 0.4;" d="M198.44686639895133,211.08734628918828A356.8371878871565,356.8371878871565 0,0,1 366.93515333955406,525.6417546560637"></path><path marker-end="url(#blue_arrow)" style="fill: none; stroke-width: 1.66667; stroke: blue; stroke-opacity: 0.4;" d="M198.44686639895133,211.08734628918828A269.47720544690196,269.47720544690196 0,0,1 421.7312178842401,361.9583595331704"></path><path marker-end="url(#blue_arrow)" style="fill: none; stroke-width: 1.66667; stroke: blue; stroke-opacity: 0.4;" d="M198.44686639895133,211.08734628918828A288.87412136569515,288.87412136569515 0,0,1 487.2949450047295,207.2084958728232"></path><path marker-end="url(#blue_arrow)" style="fill: none; stroke-width: 1.66667; stroke: blue; stroke-opacity: 0.4;" d="M198.44686639895133,211.08734628918828A154.64563495050933,154.64563495050933 0,0,1 190.54229299933021,365.53083151474317"></path><path marker-end="url(#blue_arrow)" style="fill: none; stroke-width: 1.66667; stroke: blue; stroke-opacity: 0.4;" d="M198.44686639895133,211.08734628918828A105.27524076305002,105.27524076305002 0,0,1 267.61710521350614,290.449518512834"></path><path marker-end="url(#blue_arrow)" style="fill: none; stroke-width: 1.66667; stroke: blue; stroke-opacity: 0.4;" d="M198.44686639895133,211.08734628918828A144.36201005974394,144.36201005974394 0,0,1 342.8047491695627,212.17896457230685"></path><path marker-end="url(#blue_arrow)" style="fill: none; stroke-width: 1.66667; stroke: blue; stroke-opacity: 0.4;" d="M198.44686639895133,211.08734628918828A215.79538450728515,215.79538450728515 0,0,1 269.1876433651189,414.95836053317043"></path><path marker-end="url(#blue_arrow)" style="fill: none; stroke-width: 1.66667; stroke: blue; stroke-opacity: 0.4;" d="M198.44686639895133,211.08734628918828A337.53801136684143,337.53801136684143 0,0,1 497.219502035668,368.14409180548796"></path><path marker-end="url(#blue_arrow)" style="fill: none; stroke-width: 1.66667; stroke: blue; stroke-opacity: 0.4;" d="M198.44686639895133,211.08734628918828A217.38041072649003,217.38041072649003 0,0,1 415.82057458326375,209.38031441517865"></path><path marker-end="url(#blue_arrow)" style="fill: none; stroke-width: 1.66667; stroke: blue; stroke-opacity: 0.4;" d="M198.44686639895133,211.08734628918828A215.67419321392322,215.67419321392322 0,0,1 345.45943062467944,368.89312431474997"></path><path marker-end="url(#blue_arrow)" style="fill: none; stroke-width: 1.66667; stroke: blue; stroke-opacity: 0.4;" d="M198.44686639895133,211.08734628918828A313.0231962153386,313.0231962153386 0,0,1 501.23341576563,290.4839891117046"></path><path marker-end="url(#blue_arrow)" style="fill: none; stroke-width: 1.66667; stroke: blue; stroke-opacity: 0.4;" d="M198.44686639895133,211.08734628918828A293.9655688930615,293.9655688930615 0,0,1 286.6818766970743,491.4983636410595"></path><path marker-end="url(#blue_arrow)" style="fill: none; stroke-width: 1.66667; stroke: blue; stroke-opacity: 0.4;" d="M665.4825042452078,392.10793314990883A83.27036400594126,83.27036400594126 0,0,1 748.2082396254142,382.59971420596224"></path><path marker-end="url(#blue_arrow)" style="fill: none; stroke-width: 1.66667; stroke: blue; stroke-opacity: 0.4;" d="M665.4825042452078,392.10793314990883A500.8899478786326,500.8899478786326 0,0,1 198.44686639895133,211.08734628918828"></path><path marker-end="url(#blue_arrow)" style="fill: none; stroke-width: 1.66667; stroke: blue; stroke-opacity: 0.4;" d="M665.4825042452078,392.10793314990883A84.15976888115726,84.15976888115726 0,0,1 581.3661971870373,389.40356907948785"></path><path marker-end="url(#blue_arrow)" style="fill: none; stroke-width: 1.66667; stroke: blue; stroke-opacity: 0.4;" d="M665.4825042452078,392.10793314990883A475.6832418633273,475.6832418633273 0,0,1 190.54229299933021,365.53083151474317"></path><path marker-end="url(#blue_arrow)" style="fill: none; stroke-width: 1.66667; stroke: blue; stroke-opacity: 0.4;" d="M665.4825042452078,392.10793314990883A75.74129869411739,75.74129869411739 0,0,1 659.2967719728903,316.61964899848095"></path><path marker-end="url(#blue_arrow)" style="fill: none; stroke-width: 1.66667; stroke: blue; stroke-opacity: 0.4;" d="M665.4825042452078,392.10793314990883A320.86398208397134,320.86398208397134 0,0,1 345.45943062467944,368.89312431474997"></path><path marker-end="url(#blue_arrow)" style="fill: none; stroke-width: 1.66667; stroke: blue; stroke-opacity: 0.4;" d="M665.4825042452078,392.10793314990883A303.86713970789947,303.86713970789947 0,0,1 366.96554143275284,448.87818510890133"></path><path marker-end="url(#blue_arrow)" style="fill: none; stroke-width: 1.66667; stroke: blue; stroke-opacity: 0.4;" d="M665.4825042452078,392.10793314990883A265.0143164296607,265.0143164296607 0,0,1 422.78980996371394,285.65210167473924"></path><path marker-end="url(#blue_arrow)" style="fill: none; stroke-width: 1.66667; stroke: blue; stroke-opacity: 0.4;" d="M272.7130719180516,221.8992962535582A96.96916061603503,96.96916061603503 0,0,1 342.8047491695627,288.9080635205987"></path><path marker-end="url(#blue_arrow)" style="fill: none; stroke-width: 1.66667; stroke: blue; stroke-opacity: 0.4;" d="M437.05721868426394,440.7082277947259A316.5304996113576,316.5304996113576 0,0,1 748.2082396254142,382.59971420596224"></path><path marker-end="url(#blue_arrow)" style="fill: none; stroke-width: 1.66667; stroke: blue; stroke-opacity: 0.4;" d="M437.05721868426394,440.7082277947259A233.5382189774551,233.5382189774551 0,0,1 665.4825042452078,392.10793314990883"></path><path marker-end="url(#blue_arrow)" style="fill: none; stroke-width: 1.66667; stroke: blue; stroke-opacity: 0.4;" d="M437.05721868426394,440.7082277947259A153.15759622820198,153.15759622820198 0,0,1 581.3661971870373,389.40356907948785"></path><path marker-end="url(#blue_arrow)" style="fill: none; stroke-width: 1.66667; stroke: blue; stroke-opacity: 0.4;" d="M437.05721868426394,440.7082277947259A254.53564472112754,254.53564472112754 0,0,1 659.2967719728903,316.61964899848095"></path><path marker-end="url(#blue_arrow)" style="fill: none; stroke-width: 1.66667; stroke: blue; stroke-opacity: 0.4;" d="M366.93515333955406,525.6417546560637A254.0502229377467,254.0502229377467 0,0,1 581.3661971870373,389.40356907948785"></path><path marker-end="url(#blue_arrow)" style="fill: none; stroke-width: 1.66667; stroke: blue; stroke-opacity: 0.4;" d="M366.93515333955406,525.6417546560637A340.4206511788006,340.4206511788006 0,0,1 487.2949450047295,207.2084958728232"></path><path marker-end="url(#blue_arrow)" style="fill: none; stroke-width: 1.66667; stroke: blue; stroke-opacity: 0.4;" d="M366.93515333955406,525.6417546560637A238.22247771394612,238.22247771394612 0,0,1 190.54229299933021,365.53083151474317"></path><path marker-end="url(#blue_arrow)" style="fill: none; stroke-width: 1.66667; stroke: blue; stroke-opacity: 0.4;" d="M366.93515333955406,525.6417546560637A255.30268824597337,255.30268824597337 0,0,1 267.61710521350614,290.449518512834"></path><path marker-end="url(#blue_arrow)" style="fill: none; stroke-width: 1.66667; stroke: blue; stroke-opacity: 0.4;" d="M366.93515333955406,525.6417546560637A158.2129570547368,158.2129570547368 0,0,1 345.45943062467944,368.89312431474997"></path><path marker-end="url(#blue_arrow)" style="fill: none; stroke-width: 1.66667; stroke: blue; stroke-opacity: 0.4;" d="M421.7312178842401,361.9583595331704A231.21652524311412,231.21652524311412 0,0,1 190.54229299933021,365.53083151474317"></path><path marker-end="url(#blue_arrow)" style="fill: none; stroke-width: 1.66667; stroke: blue; stroke-opacity: 0.4;" d="M421.7312178842401,361.9583595331704A241.85324302641826,241.85324302641826 0,0,1 659.2967719728903,316.61964899848095"></path><path marker-end="url(#blue_arrow)" style="fill: none; stroke-width: 1.66667; stroke: blue; stroke-opacity: 0.4;" d="M487.2949450047295,207.2084958728232A30,20 -45,1,1 488.2949450047295,208.2084958728232"></path><path marker-end="url(#blue_arrow)" style="fill: none; stroke-width: 1.66667; stroke: blue; stroke-opacity: 0.4;" d="M487.2949450047295,207.2084958728232A215.07959506623894,215.07959506623894 0,0,1 345.45943062467944,368.89312431474997"></path><path marker-end="url(#blue_arrow)" style="fill: none; stroke-width: 1.66667; stroke: blue; stroke-opacity: 0.4;" d="M190.54229299933021,365.53083151474317A557.9271052590051,557.9271052590051 0,0,1 748.2082396254142,382.59971420596224"></path><path marker-end="url(#blue_arrow)" style="fill: none; stroke-width: 1.66667; stroke: blue; stroke-opacity: 0.4;" d="M190.54229299933021,365.53083151474317A391.55233581650003,391.55233581650003 0,0,1 581.3661971870373,389.40356907948785"></path><path marker-end="url(#blue_arrow)" style="fill: none; stroke-width: 1.66667; stroke: blue; stroke-opacity: 0.4;" d="M190.54229299933021,365.53083151474317A154.95362061889477,154.95362061889477 0,0,1 345.45943062467944,368.89312431474997"></path><path marker-end="url(#blue_arrow)" style="fill: none; stroke-width: 1.66667; stroke: blue; stroke-opacity: 0.4;" d="M267.61710521350614,290.449518512834A489.3459890932044,489.3459890932044 0,0,1 748.2082396254142,382.59971420596224"></path><path marker-end="url(#blue_arrow)" style="fill: none; stroke-width: 1.66667; stroke: blue; stroke-opacity: 0.4;" d="M267.61710521350614,290.449518512834A110.51165964107761,110.51165964107761 0,0,1 345.45943062467944,368.89312431474997"></path><path marker-end="url(#blue_arrow)" style="fill: none; stroke-width: 1.66667; stroke: blue; stroke-opacity: 0.4;" d="M267.61710521350614,290.449518512834A187.0020165094954,187.0020165094954 0,0,1 366.96554143275284,448.87818510890133"></path><path marker-end="url(#blue_arrow)" style="fill: none; stroke-width: 1.66667; stroke: blue; stroke-opacity: 0.4;" d="M342.8047491695627,212.17896457230685A439.7672361368963,439.7672361368963 0,0,1 748.2082396254142,382.59971420596224"></path><path marker-end="url(#blue_arrow)" style="fill: none; stroke-width: 1.66667; stroke: blue; stroke-opacity: 0.4;" d="M342.8047491695627,212.17896457230685A297.18702011178243,297.18702011178243 0,0,1 581.3661971870373,389.40356907948785"></path><path marker-end="url(#blue_arrow)" style="fill: none; stroke-width: 1.66667; stroke: blue; stroke-opacity: 0.4;" d="M342.8047491695627,288.9080635205987A416.0890715723448,416.0890715723448 0,0,1 748.2082396254142,382.59971420596224"></path><path marker-end="url(#blue_arrow)" style="fill: none; stroke-width: 1.66667; stroke: blue; stroke-opacity: 0.4;" d="M342.8047491695627,288.9080635205987A338.77890535298184,338.77890535298184 0,0,1 665.4825042452078,392.10793314990883"></path><path marker-end="url(#blue_arrow)" style="fill: none; stroke-width: 1.66667; stroke: blue; stroke-opacity: 0.4;" d="M342.8047491695627,288.9080635205987A170.45499151997998,170.45499151997998 0,0,1 190.54229299933021,365.53083151474317"></path><path marker-end="url(#blue_arrow)" style="fill: none; stroke-width: 1.66667; stroke: blue; stroke-opacity: 0.4;" d="M342.8047491695627,288.9080635205987A76.72909894829186,76.72909894829186 0,0,1 342.8047491695627,212.17896457230685"></path><path marker-end="url(#blue_arrow)" style="fill: none; stroke-width: 1.66667; stroke: blue; stroke-opacity: 0.4;" d="M342.8047491695627,288.9080635205987A173.5576678832259,173.5576678832259 0,0,1 497.219502035668,368.14409180548796"></path><path marker-end="url(#blue_arrow)" style="fill: none; stroke-width: 1.66667; stroke: blue; stroke-opacity: 0.4;" d="M342.8047491695627,288.9080635205987A80.05130378567088,80.05130378567088 0,0,1 422.78980996371394,285.65210167473924"></path><path marker-end="url(#blue_arrow)" style="fill: none; stroke-width: 1.66667; stroke: blue; stroke-opacity: 0.4;" d="M269.1876433651189,414.95836053317043A480.11229273337517,480.11229273337517 0,0,1 748.2082396254142,382.59971420596224"></path><path marker-end="url(#blue_arrow)" style="fill: none; stroke-width: 1.66667; stroke: blue; stroke-opacity: 0.4;" d="M269.1876433651189,414.95836053317043A313.2227591229373,313.2227591229373 0,0,1 581.3661971870373,389.40356907948785"></path><path marker-end="url(#blue_arrow)" style="fill: none; stroke-width: 1.66667; stroke: blue; stroke-opacity: 0.4;" d="M269.1876433651189,414.95836053317043A89.10326323781042,89.10326323781042 0,0,1 345.45943062467944,368.89312431474997"></path><path marker-end="url(#blue_arrow)" style="fill: none; stroke-width: 1.66667; stroke: blue; stroke-opacity: 0.4;" d="M497.219502035668,368.14409180548796A251.40467659906324,251.40467659906324 0,0,1 748.2082396254142,382.59971420596224"></path><path marker-end="url(#blue_arrow)" style="fill: none; stroke-width: 1.66667; stroke: blue; stroke-opacity: 0.4;" d="M497.219502035668,368.14409180548796A86.79073498283789,86.79073498283789 0,0,1 581.3661971870373,389.40356907948785"></path><path marker-end="url(#blue_arrow)" style="fill: none; stroke-width: 1.66667; stroke: blue; stroke-opacity: 0.4;" d="M497.219502035668,368.14409180548796A75.74129869411739,75.74129869411739 0,0,1 421.7312178842401,361.9583595331704"></path><path marker-end="url(#blue_arrow)" style="fill: none; stroke-width: 1.66667; stroke: blue; stroke-opacity: 0.4;" d="M497.219502035668,368.14409180548796A161.24131874449023,161.24131874449023 0,0,1 487.2949450047295,207.2084958728232"></path><path marker-end="url(#blue_arrow)" style="fill: none; stroke-width: 1.66667; stroke: blue; stroke-opacity: 0.4;" d="M497.219502035668,368.14409180548796A306.6883429014947,306.6883429014947 0,0,1 190.54229299933021,365.53083151474317"></path><path marker-end="url(#blue_arrow)" style="fill: none; stroke-width: 1.66667; stroke: blue; stroke-opacity: 0.4;" d="M497.219502035668,368.14409180548796A151.76191987573256,151.76191987573256 0,0,1 345.45943062467944,368.89312431474997"></path><path marker-end="url(#blue_arrow)" style="fill: none; stroke-width: 1.66667; stroke: blue; stroke-opacity: 0.4;" d="M497.219502035668,368.14409180548796A153.24518940009185,153.24518940009185 0,0,1 366.96554143275284,448.87818510890133"></path><path marker-end="url(#blue_arrow)" style="fill: none; stroke-width: 1.66667; stroke: blue; stroke-opacity: 0.4;" d="M415.82057458326375,209.38031441517865A30,20 -45,1,1 416.82057458326375,210.38031441517865"></path><path marker-end="url(#blue_arrow)" style="fill: none; stroke-width: 1.66667; stroke: blue; stroke-opacity: 0.4;" d="M415.82057458326375,209.38031441517865A174.3416963930815,174.3416963930815 0,0,1 345.45943062467944,368.89312431474997"></path><path marker-end="url(#blue_arrow)" style="fill: none; stroke-width: 1.66667; stroke: blue; stroke-opacity: 0.4;" d="M659.2967719728903,316.61964899848095A392.55297360022377,392.55297360022377 0,0,1 267.61710521350614,290.449518512834"></path><path marker-end="url(#blue_arrow)" style="fill: none; stroke-width: 1.66667; stroke: blue; stroke-opacity: 0.4;" d="M659.2967719728903,316.61964899848095A411.6119835675921,411.6119835675921 0,0,1 286.6818766970743,491.4983636410595"></path><path marker-end="url(#blue_arrow)" style="fill: none; stroke-width: 1.66667; stroke: blue; stroke-opacity: 0.4;" d="M501.23341576563,290.4839891117046A263.5941395976251,263.5941395976251 0,0,1 748.2082396254142,382.59971420596224"></path><path marker-end="url(#blue_arrow)" style="fill: none; stroke-width: 1.66667; stroke: blue; stroke-opacity: 0.4;" d="M501.23341576563,290.4839891117046A207.64533080102635,207.64533080102635 0,0,1 366.96554143275284,448.87818510890133"></path><path marker-end="url(#blue_arrow)" style="fill: none; stroke-width: 1.66667; stroke: blue; stroke-opacity: 0.4;" d="M286.6818766970743,491.4983636410595A474.1998518838338,474.1998518838338 0,0,1 748.2082396254142,382.59971420596224"></path><path marker-end="url(#blue_arrow)" style="fill: none; stroke-width: 1.66667; stroke: blue; stroke-opacity: 0.4;" d="M286.6818766970743,491.4983636410595A269.9607094433649,269.9607094433649 0,0,1 272.7130719180516,221.8992962535582"></path><path marker-end="url(#blue_arrow)" style="fill: none; stroke-width: 1.66667; stroke: blue; stroke-opacity: 0.4;" d="M286.6818766970743,491.4983636410595A87.21444583242993,87.21444583242993 0,0,1 366.93515333955406,525.6417546560637"></path><path marker-end="url(#blue_arrow)" style="fill: none; stroke-width: 1.66667; stroke: blue; stroke-opacity: 0.4;" d="M286.6818766970743,491.4983636410595A311.86887600272127,311.86887600272127 0,0,1 581.3661971870373,389.40356907948785"></path><path marker-end="url(#blue_arrow)" style="fill: none; stroke-width: 1.66667; stroke: blue; stroke-opacity: 0.4;" d="M286.6818766970743,491.4983636410595A284.90191910672047,284.90191910672047 0,0,1 342.8047491695627,212.17896457230685"></path><path marker-end="url(#blue_arrow)" style="fill: none; stroke-width: 1.66667; stroke: blue; stroke-opacity: 0.4;" d="M286.6818766970743,491.4983636410595A78.51382219474839,78.51382219474839 0,0,1 269.1876433651189,414.95836053317043"></path><path marker-end="url(#blue_arrow)" style="fill: none; stroke-width: 1.66667; stroke: blue; stroke-opacity: 0.4;" d="M286.6818766970743,491.4983636410595A244.01304896111216,244.01304896111216 0,0,1 497.219502035668,368.14409180548796"></path><path marker-end="url(#blue_arrow)" style="fill: none; stroke-width: 1.66667; stroke: blue; stroke-opacity: 0.4;" d="M286.6818766970743,491.4983636410595A411.6119835675921,411.6119835675921 0,0,1 659.2967719728903,316.61964899848095"></path><path marker-end="url(#blue_arrow)" style="fill: none; stroke-width: 1.66667; stroke: blue; stroke-opacity: 0.4;" d="M286.6818766970743,491.4983636410595A30,20 -45,1,1 287.6818766970743,492.4983636410595"></path><path marker-end="url(#blue_arrow)" style="fill: none; stroke-width: 1.66667; stroke: blue; stroke-opacity: 0.4;" d="M286.6818766970743,491.4983636410595A246.77530886136677,246.77530886136677 0,0,1 422.78980996371394,285.65210167473924"></path><path marker-end="url(#blue_arrow)" style="fill: none; stroke-width: 1.66667; stroke: blue; stroke-opacity: 0.4;" d="M366.96554143275284,448.87818510890133A386.9610195232233,386.9610195232233 0,0,1 748.2082396254142,382.59971420596224"></path><path marker-end="url(#blue_arrow)" style="fill: none; stroke-width: 1.66667; stroke: blue; stroke-opacity: 0.4;" d="M366.96554143275284,448.87818510890133A237.92911735518294,237.92911735518294 0,0,1 342.8047491695627,212.17896457230685"></path><path marker-end="url(#blue_arrow)" style="fill: none; stroke-width: 1.66667; stroke: blue; stroke-opacity: 0.4;" d="M366.96554143275284,448.87818510890133A172.5082701503696,172.5082701503696 0,0,1 422.78980996371394,285.65210167473924"></path><path marker-end="url(#blue_arrow)" style="fill: none; stroke-width: 1.66667; stroke: blue; stroke-opacity: 0.4;" d="M422.78980996371394,285.65210167473924A177.37393868878092,177.37393868878092 0,0,1 503.4356224011843,443.6323759569159"></path><path marker-end="url(#blue_arrow)" style="fill: none; stroke-width: 1.66667; stroke: blue; stroke-opacity: 0.4;" d="M422.78980996371394,285.65210167473924A218.97567410840352,218.97567410840352 0,0,1 437.05721868426394,504.1624833494563"></path><path marker-end="url(#blue_arrow)" style="fill: none; stroke-width: 1.66667; stroke: blue; stroke-opacity: 0.4;" d="M422.78980996371394,285.65210167473924A163.0565776088083,163.0565776088083 0,0,1 272.7130719180516,221.8992962535582"></path><path marker-end="url(#blue_arrow)" style="fill: none; stroke-width: 1.66667; stroke: blue; stroke-opacity: 0.4;" d="M422.78980996371394,285.65210167473924A189.50155031935756,189.50155031935756 0,0,1 581.3661971870373,389.40356907948785"></path><path marker-end="url(#blue_arrow)" style="fill: none; stroke-width: 1.66667; stroke: blue; stroke-opacity: 0.4;" d="M422.78980996371394,285.65210167473924A76.31360039696797,76.31360039696797 0,0,1 421.7312178842401,361.9583595331704"></path><path marker-end="url(#blue_arrow)" style="fill: none; stroke-width: 1.66667; stroke: blue; stroke-opacity: 0.4;" d="M422.78980996371394,285.65210167473924A108.60898593540453,108.60898593540453 0,0,1 342.8047491695627,212.17896457230685"></path><path marker-end="url(#blue_arrow)" style="fill: none; stroke-width: 1.66667; stroke: blue; stroke-opacity: 0.4;" d="M422.78980996371394,285.65210167473924A76.58952783217683,76.58952783217683 0,0,1 415.82057458326375,209.38031441517865"></path><path marker-end="url(#blue_arrow)" style="fill: none; stroke-width: 1.66667; stroke: blue; stroke-opacity: 0.4;" d="M422.78980996371394,285.65210167473924A113.61802418134964,113.61802418134964 0,0,1 345.45943062467944,368.89312431474997"></path></g><rect class="group" rx="25" ry="25" style="fill: rgb(255, 127, 14); stroke: rgb(0, 0, 0); stroke-width: 2px; opacity: 0.4;" x="149.2905757797276" y="167.5482692113821" width="389.7963220611004" height="397.45805279707264" bounds="a"></rect><rect class="group" rx="25" ry="25" style="fill: rgb(44, 160, 44); stroke: rgb(0, 0, 0); stroke-width: 2px; opacity: 0.4;" x="623.6454965334236" y="280.9873417206173" width="167.45146976041303" height="152.97656730285587" bounds="a"></rect><rect class="group" rx="25" ry="25" style="fill: rgb(204, 51, 204); stroke: rgb(0, 0, 0); stroke-width: 2px; opacity: 0.4;" x="539.0869008408281" y="347.1315699385321" width="84.55859269259554" height="84.55859269259554" bounds="a"></rect><circle r="29.039077241735068" style="fill: rgb(255, 225, 25); stroke: rgb(85, 85, 85); stroke-width: 2px; stroke-opacity: 0.9;" cx="198.44686639895133" cy="211.08734628918828" fill-opacity="0.9"></circle><circle r="27.33700771187273" style="fill: rgb(255, 225, 25); stroke: rgb(85, 85, 85); stroke-width: 2px; stroke-opacity: 0.9;" cx="665.4825042452078" cy="392.10793314990883" fill-opacity="0.9"></circle><circle r="28.38872666833384" style="fill: rgb(0, 130, 200); stroke: rgb(85, 85, 85); stroke-width: 2px; stroke-opacity: 0.9;" cx="286.6818766970743" cy="491.4983636410595" fill-opacity="0.9"></circle><circle r="28.120510820005403" style="fill: rgb(248, 248, 255); stroke: rgb(85, 85, 85); stroke-width: 2px; stroke-opacity: 0.9;" cx="422.78980996371394" cy="285.65210167473924" fill-opacity="0.9"></circle><circle r="27.33700771187273" style="fill: rgb(255, 225, 25); stroke: rgb(85, 85, 85); stroke-width: 2px; stroke-opacity: 0.9;" cx="497.219502035668" cy="368.14409180548796" fill-opacity="0.9"></circle><circle r="23.32309398191064" style="fill: rgb(248, 248, 255); stroke: rgb(85, 85, 85); stroke-width: 2px; stroke-opacity: 0.9;" cx="487.2949450047295" cy="207.2084958728232" fill-opacity="0.9"></circle><circle r="24.8645489741459" style="fill: rgb(248, 248, 255); stroke: rgb(85, 85, 85); stroke-width: 2px; stroke-opacity: 0.9;" cx="342.8047491695627" cy="288.9080635205987" fill-opacity="0.9"></circle><circle r="23.32309398191064" style="fill: rgb(255, 225, 25); stroke: rgb(85, 85, 85); stroke-width: 2px; stroke-opacity: 0.9;" cx="501.23341576563" cy="290.4839891117046" fill-opacity="0.9"></circle><circle r="24.8645489741459" style="fill: rgb(255, 225, 25); stroke: rgb(85, 85, 85); stroke-width: 2px; stroke-opacity: 0.9;" cx="366.93515333955406" cy="525.6417546560637" fill-opacity="0.9"></circle><circle r="24.8645489741459" style="fill: rgb(0, 130, 200); stroke: rgb(85, 85, 85); stroke-width: 2px; stroke-opacity: 0.9;" cx="366.96554143275284" cy="448.87818510890133" class="fixed" fill-opacity="0.9"></circle><circle r="18.227127277365167" style="fill: rgb(255, 225, 25); stroke: rgb(85, 85, 85); stroke-width: 2px; stroke-opacity: 0.9;" cx="437.05721868426394" cy="440.7082277947259" fill-opacity="0.9"></circle><circle r="18.227127277365167" style="fill: rgb(255, 225, 25); stroke: rgb(85, 85, 85); stroke-width: 2px; stroke-opacity: 0.9;" cx="437.05721868426394" cy="504.1624833494563" fill-opacity="0.9"></circle><circle r="23.32309398191064" style="fill: rgb(255, 225, 25); stroke: rgb(85, 85, 85); stroke-width: 2px; stroke-opacity: 0.9;" cx="267.61710521350614" cy="290.449518512834" fill-opacity="0.9"></circle><circle r="21.151275439555178" style="fill: rgb(255, 225, 25); stroke: rgb(85, 85, 85); stroke-width: 2px; stroke-opacity: 0.9;" cx="415.82057458326375" cy="209.38031441517865" fill-opacity="0.9"></circle><circle r="18.227127277365167" style="fill: rgb(0, 130, 200); stroke: rgb(85, 85, 85); stroke-width: 2px; stroke-opacity: 0.9;" cx="272.7130719180516" cy="221.8992962535582" fill-opacity="0.9"></circle><circle r="21.151275439555178" style="fill: rgb(248, 248, 255); stroke: rgb(85, 85, 85); stroke-width: 2px; stroke-opacity: 0.9;" cx="659.2967719728903" cy="316.61964899848095" fill-opacity="0.9"></circle><circle r="21.151275439555178" style="fill: rgb(255, 225, 25); stroke: rgb(85, 85, 85); stroke-width: 2px; stroke-opacity: 0.9;" cx="421.7312178842401" cy="361.9583595331704" fill-opacity="0.9"></circle><circle r="21.151275439555178" style="fill: rgb(255, 225, 25); stroke: rgb(85, 85, 85); stroke-width: 2px; stroke-opacity: 0.9;" cx="269.1876433651189" cy="414.95836053317043" fill-opacity="0.9"></circle><circle r="28.38872666833384" style="fill: rgb(248, 248, 255); stroke: rgb(85, 85, 85); stroke-width: 2px; stroke-opacity: 0.9;" cx="748.2082396254142" cy="382.59971420596224" fill-opacity="0.9"></circle><circle r="24.8645489741459" style="fill: rgb(0, 130, 200); stroke: rgb(85, 85, 85); stroke-width: 2px; stroke-opacity: 0.9;" cx="342.8047491695627" cy="212.17896457230685" fill-opacity="0.9"></circle><circle r="21.151275439555178" style="fill: rgb(240, 50, 230); stroke: rgb(85, 85, 85); stroke-width: 2px; stroke-opacity: 0.9;" cx="503.4356224011843" cy="443.6323759569159" fill-opacity="0.9"></circle><circle r="27.779296346297755" style="fill: rgb(0, 130, 200); stroke: rgb(85, 85, 85); stroke-width: 2px; stroke-opacity: 0.9;" cx="581.3661971870373" cy="389.40356907948785" fill-opacity="0.9"></circle><circle r="26.75171723226527" style="fill: rgb(0, 130, 200); stroke: rgb(85, 85, 85); stroke-width: 2px; stroke-opacity: 0.9;" cx="190.54229299933021" cy="365.53083151474317" fill-opacity="0.9"></circle><circle r="28.120510820005403" style="fill: rgb(0, 130, 200); stroke: rgb(85, 85, 85); stroke-width: 2px; stroke-opacity: 0.9;" cx="345.45943062467944" cy="368.89312431474997" fill-opacity="0.9"></circle><circle r="13" style="fill: rgb(255, 225, 25); stroke: rgb(85, 85, 85); stroke-width: 2px; stroke-opacity: 0.9;" cx="277.33891880467405" cy="353.80708409361523" fill-opacity="0.9"></circle><g><text x="183.16314153488025" y="215.92719249614413" style="font-style: normal; font-variant: normal; font-weight: bold; font-stretch: normal; font-size: 13.0676px; line-height: normal; font-family: sans-serif; pointer-events: none; opacity: 0.9;">FKH1</text><text x="651.0946054494854" y="396.66410110188764" style="font-style: normal; font-variant: normal; font-weight: bold; font-stretch: normal; font-size: 12.3017px; line-height: normal; font-family: sans-serif; pointer-events: none; opacity: 0.9;">FKH2</text><text x="271.74044160847757" y="496.2298180857818" style="font-style: normal; font-variant: normal; font-weight: bold; font-stretch: normal; font-size: 12.7749px; line-height: normal; font-family: sans-serif; pointer-events: none; opacity: 0.9;">XBP1</text><text x="407.9895411110795" y="290.3388534780735" style="font-style: normal; font-variant: normal; font-weight: bold; font-stretch: normal; font-size: 12.6542px; line-height: normal; font-family: sans-serif; pointer-events: none; opacity: 0.9;">YAP6</text><text x="482.8316032399455" y="372.70025975746677" style="font-style: normal; font-variant: normal; font-weight: bold; font-stretch: normal; font-size: 12.3017px; line-height: normal; font-family: sans-serif; pointer-events: none; opacity: 0.9;">SPT3</text><text x="475.0196323826713" y="211.09567820314163" style="font-style: normal; font-variant: normal; font-weight: bold; font-stretch: normal; font-size: 10.4954px; line-height: normal; font-family: sans-serif; pointer-events: none; opacity: 0.9;">IXR1</text><text x="329.718144446328" y="293.0521550162897" style="font-style: normal; font-variant: normal; font-weight: bold; font-stretch: normal; font-size: 11.189px; line-height: normal; font-family: sans-serif; pointer-events: none; opacity: 0.9;">RAP1</text><text x="488.9581031435718" y="294.37117144202307" style="font-style: normal; font-variant: normal; font-weight: bold; font-stretch: normal; font-size: 10.4954px; line-height: normal; font-family: sans-serif; pointer-events: none; opacity: 0.9;">UME6</text><text x="353.84854861631936" y="529.7858461517546" style="font-style: normal; font-variant: normal; font-weight: bold; font-stretch: normal; font-size: 11.189px; line-height: normal; font-family: sans-serif; pointer-events: none; opacity: 0.9;">HSF1</text><text x="353.87893670951814" y="453.0222766045923" style="font-style: normal; font-variant: normal; font-weight: bold; font-stretch: normal; font-size: 11.189px; line-height: normal; font-family: sans-serif; pointer-events: none; opacity: 0.9;">YAP5</text><text x="427.46399380144015" y="443.7460823409534" style="font-style: normal; font-variant: normal; font-weight: bold; font-stretch: normal; font-size: 8.20221px; line-height: normal; font-family: sans-serif; pointer-events: none; opacity: 0.9;">HFI1</text><text x="427.46399380144015" y="507.20033789568384" style="font-style: normal; font-variant: normal; font-weight: bold; font-stretch: normal; font-size: 8.20221px; line-height: normal; font-family: sans-serif; pointer-events: none; opacity: 0.9;">FHL1</text><text x="255.3417925914479" y="294.33670084315247" style="font-style: normal; font-variant: normal; font-weight: bold; font-stretch: normal; font-size: 10.4954px; line-height: normal; font-family: sans-serif; pointer-events: none; opacity: 0.9;">NCB2</text><text x="401.71972429022696" y="212.90552698843783" style="font-style: normal; font-variant: normal; font-weight: bold; font-stretch: normal; font-size: 9.51807px; line-height: normal; font-family: sans-serif; pointer-events: none; opacity: 0.9;">STE12</text><text x="263.1198470352278" y="224.9371507997857" style="font-style: normal; font-variant: normal; font-weight: bold; font-stretch: normal; font-size: 8.20221px; line-height: normal; font-family: sans-serif; pointer-events: none; opacity: 0.9;">GLN3</text><text x="648.1645217415454" y="320.14486157174014" style="font-style: normal; font-variant: normal; font-weight: bold; font-stretch: normal; font-size: 9.51807px; line-height: normal; font-family: sans-serif; pointer-events: none; opacity: 0.9;">SWI5</text><text x="410.5989676528953" y="365.48357210642956" style="font-style: normal; font-variant: normal; font-weight: bold; font-stretch: normal; font-size: 9.51807px; line-height: normal; font-family: sans-serif; pointer-events: none; opacity: 0.9;">INO2</text><text x="258.0553931337741" y="418.4835731064296" style="font-style: normal; font-variant: normal; font-weight: bold; font-stretch: normal; font-size: 9.51807px; line-height: normal; font-family: sans-serif; pointer-events: none; opacity: 0.9;">RGM1</text><text x="733.2668045368174" y="387.33116865068456" style="font-style: normal; font-variant: normal; font-weight: bold; font-stretch: normal; font-size: 12.7749px; line-height: normal; font-family: sans-serif; pointer-events: none; opacity: 0.9;">CIP1</text><text x="329.718144446328" y="216.32305606799784" style="font-style: normal; font-variant: normal; font-weight: bold; font-stretch: normal; font-size: 11.189px; line-height: normal; font-family: sans-serif; pointer-events: none; opacity: 0.9;">PHO4</text><text x="492.30337216983946" y="447.1575885301751" style="font-style: normal; font-variant: normal; font-weight: bold; font-stretch: normal; font-size: 9.51807px; line-height: normal; font-family: sans-serif; pointer-events: none; opacity: 0.9;">CUP2</text><text x="562.8466662895055" y="394.03345180387083" style="font-style: normal; font-variant: normal; font-weight: bold; font-stretch: normal; font-size: 12.5007px; line-height: normal; font-family: sans-serif; pointer-events: none; opacity: 0.9;">HSP30</text><text x="176.46244182445375" y="369.98945105345405" style="font-style: normal; font-variant: normal; font-weight: bold; font-stretch: normal; font-size: 12.0383px; line-height: normal; font-family: sans-serif; pointer-events: none; opacity: 0.9;">MBF1</text><text x="330.659161772045" y="373.5798761180842" style="font-style: normal; font-variant: normal; font-weight: bold; font-stretch: normal; font-size: 12.6542px; line-height: normal; font-family: sans-serif; pointer-events: none; opacity: 0.9;">TSL1</text><text x="270.49681354151613" y="355.9737507602819" style="font-style: normal; font-variant: normal; font-weight: bold; font-stretch: normal; font-size: 5.85px; line-height: normal; font-family: sans-serif; pointer-events: none; opacity: 0.9;">CHA4</text></g></svg>