<svg width="835" height="700" title="svg_title" version="1.1" xmlns="http://www.w3.org/2000/svg"><g class="link"><path d="M539.1073392980119,251.66251586123786A395.67594418663106,395.67594418663106 0,0,1 184.60822148092993,427.4175393311024" style="fill: none; stroke-width: 15; stroke: rgb(143, 0, 0); stroke-opacity: 0.4;"></path><path d="M539.1073392980119,251.66251586123786A416.537491925034,416.537491925034 0,0,1 235.49515929663008,536.834615362585" style="fill: none; stroke-width: 13.6667; stroke: rgb(143, 0, 0); stroke-opacity: 0.4;"></path><path d="M587.4485117941413,365.8784137523474A30,20 -45,1,1 588.4485117941413,366.8784137523474" style="fill: none; stroke-width: 9; stroke: rgb(143, 0, 0); stroke-opacity: 0.4;"></path><path d="M417.00883901610905,179.97940119172853A287.04613861201847,287.04613861201847 0,0,1 652.299460514971,344.3990141542623" style="fill: none; stroke-width: 7; stroke: rgb(143, 0, 0); stroke-opacity: 0.4;"></path><path d="M184.60822148092993,427.4175393311024A120.67135935066861,120.67135935066861 0,0,1 235.49515929663008,536.834615362585" style="fill: none; stroke-width: 5.66667; stroke: rgb(143, 0, 0); stroke-opacity: 0.4;"></path><path d="M383.5242573175433,254.23548142509475A283.49527771732323,283.49527771732323 0,0,1 652.299460514971,344.3990141542623" style="fill: none; stroke-width: 5; stroke: rgb(143, 0, 0); stroke-opacity: 0.4;"></path><path d="M539.1073392980119,251.66251586123786A83.26557878414928,83.26557878414928 0,0,1 490.798704570462,319.4816313156548" style="fill: none; stroke-width: 4.33333; stroke: rgb(143, 0, 0); stroke-opacity: 0.4;"></path><path d="M539.1073392980119,251.66251586123786A465.2437237168135,465.2437237168135 0,0,1 144.77978250450417,498.5582436718861" style="fill: none; stroke-width: 3; stroke: rgb(143, 0, 0); stroke-opacity: 0.4;"></path><path d="M445.11445797826667,381.910047856191A30,20 -45,1,1 446.11445797826667,382.910047856191" style="fill: none; stroke-width: 3; stroke: rgb(143, 0, 0); stroke-opacity: 0.4;"></path><path d="M417.00883901610905,179.97940119172853A30,20 -45,1,1 418.00883901610905,180.97940119172853" style="fill: none; stroke-width: 3; stroke: rgb(143, 0, 0); stroke-opacity: 0.4;"></path><path d="M417.00883901610905,179.97940119172853A81.45663056591555,81.45663056591555 0,0,1 383.5242573175433,254.23548142509475" style="fill: none; stroke-width: 3; stroke: rgb(143, 0, 0); stroke-opacity: 0.4;"></path><path d="M217.07039622285947,486.4503901244259A53.64738621008609,53.64738621008609 0,0,1 235.49515929663008,536.834615362585" style="fill: none; stroke-width: 3; stroke: rgb(143, 0, 0); stroke-opacity: 0.4;"></path><path d="M144.77978250450417,498.5582436718861A98.45994219144106,98.45994219144106 0,0,1 235.49515929663008,536.834615362585" style="fill: none; stroke-width: 3; stroke: rgb(143, 0, 0); stroke-opacity: 0.4;"></path><path d="M217.07039622285947,486.4503901244259A398.53875420869116,398.53875420869116 0,0,1 539.1073392980119,251.66251586123786" style="fill: none; stroke-width: 2.33333; stroke: rgb(143, 0, 0); stroke-opacity: 0.4;"></path><path d="M539.1073392980119,251.66251586123786A160.62092432047592,160.62092432047592 0,0,1 445.11445797826667,381.910047856191" style="fill: none; stroke-width: 2.33333; stroke: rgb(143, 0, 0); stroke-opacity: 0.4;"></path><path d="M184.60822148092993,427.4175393311024A426.70551342926876,426.70551342926876 0,0,1 611.1553424482885,439.04289031047097" style="fill: none; stroke-width: 2.33333; stroke: rgb(143, 0, 0); stroke-opacity: 0.4;"></path><path d="M416.2563701583496,319.53127546896593A237.34941527719064,237.34941527719064 0,0,1 652.299460514971,344.3990141542623" style="fill: none; stroke-width: 2.33333; stroke: rgb(143, 0, 0); stroke-opacity: 0.4;"></path><path d="M144.77978250450417,498.5582436718861A341.1752932481153,341.1752932481153 0,0,1 484.68462602035044,527.9738530894305" style="fill: none; stroke-width: 2.33333; stroke: rgb(143, 0, 0); stroke-opacity: 0.4;"></path><path d="M184.60822148092993,427.4175393311024A316.47657227347696,316.47657227347696 0,0,1 484.68462602035044,527.9738530894305" style="fill: none; stroke-width: 2.33333; stroke: rgb(143, 0, 0); stroke-opacity: 0.4;"></path><path d="M539.4517265488362,472.15781401026163A30,20 -45,1,1 540.4517265488362,473.15781401026163" style="fill: none; stroke-width: 2.33333; stroke: rgb(143, 0, 0); stroke-opacity: 0.4;"></path><path d="M484.68462602035044,527.9738530894305A30,20 -45,1,1 485.68462602035044,528.9738530894305" style="fill: none; stroke-width: 2.33333; stroke: rgb(143, 0, 0); stroke-opacity: 0.4;"></path><path d="M484.68462602035044,527.9738530894305A136.69774240661033,136.69774240661033 0,0,1 518.8980888447137,395.62691606167033" style="fill: none; stroke-width: 2.33333; stroke: rgb(143, 0, 0); stroke-opacity: 0.4;"></path><path d="M484.68462602035044,527.9738530894305A283.09835093097723,283.09835093097723 0,0,1 460.40094890491304,245.91893055555252" style="fill: none; stroke-width: 2.33333; stroke: rgb(143, 0, 0); stroke-opacity: 0.4;"></path><path d="M484.68462602035044,527.9738530894305A78.10901639599697,78.10901639599697 0,0,1 467.0245045184714,451.88746435340886" style="fill: none; stroke-width: 2.33333; stroke: rgb(143, 0, 0); stroke-opacity: 0.4;"></path><path marker-end="url(#blue_arrow)" style="fill: none; stroke-width: 2.33333; stroke: blue; stroke-opacity: 0.4;" d="M556.9681186811238,314.55838963118873A135.76688156160543,135.76688156160543 0,0,1 611.1553424482885,439.04289031047097"></path><path d="M652.299460514971,344.3990141542623A30,20 -45,1,1 653.299460514971,345.3990141542623" style="fill: none; stroke-width: 2.33333; stroke: rgb(143, 0, 0); stroke-opacity: 0.4;"></path><path d="M566.2447606781271,185.92042470625648A30,20 -45,1,1 567.2447606781271,186.92042470625648" style="fill: none; stroke-width: 2.33333; stroke: rgb(143, 0, 0); stroke-opacity: 0.4;"></path><path d="M184.60822148092993,427.4175393311024A357.6529117276187,357.6529117276187 0,0,1 539.4517265488362,472.15781401026163" style="fill: none; stroke-width: 2.33333; stroke: rgb(143, 0, 0); stroke-opacity: 0.4;"></path><path d="M108.01198571814767,424.0798156142129A503.36580240024205,503.36580240024205 0,0,1 611.1553424482885,439.04289031047097" style="fill: none; stroke-width: 1.66667; stroke: rgb(143, 0, 0); stroke-opacity: 0.4;"></path><path d="M217.07039622285947,486.4503901244259A30,20 -45,1,1 218.07039622285947,487.4503901244259" style="fill: none; stroke-width: 1.66667; stroke: rgb(143, 0, 0); stroke-opacity: 0.4;"></path><path d="M217.07039622285947,486.4503901244259A374.8393296943894,374.8393296943894 0,0,1 165.7879848686737,115.13564846791799" style="fill: none; stroke-width: 1.66667; stroke: rgb(143, 0, 0); stroke-opacity: 0.4;"></path><path d="M217.07039622285947,486.4503901244259A270.8164950048472,270.8164950048472 0,0,1 484.68462602035044,527.9738530894305" style="fill: none; stroke-width: 1.66667; stroke: rgb(143, 0, 0); stroke-opacity: 0.4;"></path><path d="M217.07039622285947,486.4503901244259A444.19257189405994,444.19257189405994 0,0,1 612.4838751435685,284.07642536195556" style="fill: none; stroke-width: 1.66667; stroke: rgb(143, 0, 0); stroke-opacity: 0.4;"></path><path d="M217.07039622285947,486.4503901244259A396.92620961598067,396.92620961598067 0,0,1 611.1553424482885,439.04289031047097" style="fill: none; stroke-width: 1.66667; stroke: rgb(143, 0, 0); stroke-opacity: 0.4;"></path><path d="M217.07039622285947,486.4503901244259A320.63336259500784,320.63336259500784 0,0,1 490.798704570462,319.4816313156548" style="fill: none; stroke-width: 1.66667; stroke: rgb(143, 0, 0); stroke-opacity: 0.4;"></path><path d="M539.1073392980119,251.66251586123786A141.5857079645112,141.5857079645112 0,0,1 417.00883901610905,179.97940119172853" style="fill: none; stroke-width: 1.66667; stroke: rgb(143, 0, 0); stroke-opacity: 0.4;"></path><path d="M539.1073392980119,251.66251586123786A200.7543760087861,200.7543760087861 0,0,1 611.1553424482885,439.04289031047097" style="fill: none; stroke-width: 1.66667; stroke: rgb(143, 0, 0); stroke-opacity: 0.4;"></path><path d="M144.77978250450417,498.5582436718861A81.53100248004849,81.53100248004849 0,0,1 184.60822148092993,427.4175393311024" style="fill: none; stroke-width: 1.66667; stroke: rgb(143, 0, 0); stroke-opacity: 0.4;"></path><path d="M144.77978250450417,498.5582436718861A470.15767589034687,470.15767589034687 0,0,1 611.1553424482885,439.04289031047097" style="fill: none; stroke-width: 1.66667; stroke: rgb(143, 0, 0); stroke-opacity: 0.4;"></path><path d="M144.77978250450417,498.5582436718861A524.761978114343,524.761978114343 0,0,1 566.2447606781271,185.92042470625648" style="fill: none; stroke-width: 1.66667; stroke: rgb(143, 0, 0); stroke-opacity: 0.4;"></path><path d="M150.54772635068954,365.6874528628424A466.4122599270371,466.4122599270371 0,0,1 611.1553424482885,439.04289031047097" style="fill: none; stroke-width: 1.66667; stroke: rgb(143, 0, 0); stroke-opacity: 0.4;"></path><path d="M445.11445797826667,381.910047856191A151.32889148504478,151.32889148504478 0,0,1 484.68462602035044,527.9738530894305" style="fill: none; stroke-width: 1.66667; stroke: rgb(143, 0, 0); stroke-opacity: 0.4;"></path><path marker-end="url(#blue_arrow)" style="fill: none; stroke-width: 1.66667; stroke: blue; stroke-opacity: 0.4;" d="M539.4517265488362,472.15781401026163A395.5539484091275,395.5539484091275 0,0,1 144.77978250450417,498.5582436718861"></path><path d="M539.4517265488362,472.15781401026163A78.19760558216961,78.19760558216961 0,0,1 484.68462602035044,527.9738530894305" style="fill: none; stroke-width: 1.66667; stroke: rgb(143, 0, 0); stroke-opacity: 0.4;"></path><path d="M539.4517265488362,472.15781401026163A201.76298839043355,201.76298839043355 0,0,1 612.4838751435685,284.07642536195556" style="fill: none; stroke-width: 1.66667; stroke: rgb(143, 0, 0); stroke-opacity: 0.4;"></path><path d="M539.4517265488362,472.15781401026163A78.98105282090856,78.98105282090856 0,0,1 611.1553424482885,439.04289031047097" style="fill: none; stroke-width: 1.66667; stroke: rgb(143, 0, 0); stroke-opacity: 0.4;"></path><path marker-end="url(#blue_arrow)" style="fill: none; stroke-width: 1.66667; stroke: blue; stroke-opacity: 0.4;" d="M497.5061460145233,178.5846283944771A460.4058946766776,460.4058946766776 0,0,1 108.01198571814767,424.0798156142129"></path><path marker-end="url(#blue_arrow)" style="fill: none; stroke-width: 1.66667; stroke: blue; stroke-opacity: 0.4;" d="M497.5061460145233,178.5846283944771A84.08945783637044,84.08945783637044 0,0,1 539.1073392980119,251.66251586123786"></path><path marker-end="url(#blue_arrow)" style="fill: none; stroke-width: 1.66667; stroke: blue; stroke-opacity: 0.4;" d="M497.5061460145233,178.5846283944771A476.2341881770958,476.2341881770958 0,0,1 144.77978250450417,498.5582436718861"></path><path marker-end="url(#blue_arrow)" style="fill: none; stroke-width: 1.66667; stroke: blue; stroke-opacity: 0.4;" d="M497.5061460145233,178.5846283944771A30,20 -45,1,1 498.5061460145233,179.5846283944771"></path><path marker-end="url(#blue_arrow)" style="fill: none; stroke-width: 1.66667; stroke: blue; stroke-opacity: 0.4;" d="M497.5061460145233,178.5846283944771A349.6244009046016,349.6244009046016 0,0,1 484.68462602035044,527.9738530894305"></path><path marker-end="url(#blue_arrow)" style="fill: none; stroke-width: 1.66667; stroke: blue; stroke-opacity: 0.4;" d="M497.5061460145233,178.5846283944771A80.50938967072665,80.50938967072665 0,0,1 417.00883901610905,179.97940119172853"></path><path d="M497.5061460145233,178.5846283944771A156.03973027117095,156.03973027117095 0,0,1 612.4838751435685,284.07642536195556" style="fill: none; stroke-width: 1.66667; stroke: rgb(143, 0, 0); stroke-opacity: 0.4;"></path><path d="M497.5061460145233,178.5846283944771A284.17361955385826,284.17361955385826 0,0,1 611.1553424482885,439.04289031047097" style="fill: none; stroke-width: 1.66667; stroke: rgb(143, 0, 0); stroke-opacity: 0.4;"></path><path marker-end="url(#blue_arrow)" style="fill: none; stroke-width: 1.66667; stroke: blue; stroke-opacity: 0.4;" d="M497.5061460145233,178.5846283944771A284.17361955385826,284.17361955385826 0,0,1 611.1553424482885,439.04289031047097"></path><path marker-end="url(#blue_arrow)" style="fill: none; stroke-width: 1.66667; stroke: blue; stroke-opacity: 0.4;" d="M497.5061460145233,178.5846283944771A226.83778507763947,226.83778507763947 0,0,1 652.299460514971,344.3990141542623"></path><path d="M165.7879848686737,115.13564846791799A30,20 -45,1,1 166.7879848686737,116.13564846791799" style="fill: none; stroke-width: 1.66667; stroke: rgb(143, 0, 0); stroke-opacity: 0.4;"></path><path d="M165.7879848686737,115.13564846791799A550.6977251773413,550.6977251773413 0,0,1 611.1553424482885,439.04289031047097" style="fill: none; stroke-width: 1.66667; stroke: rgb(143, 0, 0); stroke-opacity: 0.4;"></path><path d="M484.68462602035044,527.9738530894305A354.5139640384077,354.5139640384077 0,0,1 417.00883901610905,179.97940119172853" style="fill: none; stroke-width: 1.66667; stroke: rgb(143, 0, 0); stroke-opacity: 0.4;"></path><path d="M484.68462602035044,527.9738530894305A275.35178105205205,275.35178105205205 0,0,1 612.4838751435685,284.07642536195556" style="fill: none; stroke-width: 1.66667; stroke: rgb(143, 0, 0); stroke-opacity: 0.4;"></path><path d="M484.68462602035044,527.9738530894305A291.8323428229467,291.8323428229467 0,0,1 383.5242573175433,254.23548142509475" style="fill: none; stroke-width: 1.66667; stroke: rgb(143, 0, 0); stroke-opacity: 0.4;"></path><path d="M484.68462602035044,527.9738530894305A154.60775612687934,154.60775612687934 0,0,1 611.1553424482885,439.04289031047097" style="fill: none; stroke-width: 1.66667; stroke: rgb(143, 0, 0); stroke-opacity: 0.4;"></path><path d="M587.4485117941413,365.8784137523474A76.90939116706507,76.90939116706507 0,0,1 611.1553424482885,439.04289031047097" style="fill: none; stroke-width: 1.66667; stroke: rgb(143, 0, 0); stroke-opacity: 0.4;"></path><path d="M518.8980888447137,395.62691606167033A30,20 -45,1,1 519.8980888447137,396.62691606167033" style="fill: none; stroke-width: 1.66667; stroke: rgb(143, 0, 0); stroke-opacity: 0.4;"></path><path marker-end="url(#blue_arrow)" style="fill: none; stroke-width: 1.66667; stroke: blue; stroke-opacity: 0.4;" d="M556.9681186811238,314.55838963118873A462.12179355060124,462.12179355060124 0,0,1 108.01198571814767,424.0798156142129"></path><path marker-end="url(#blue_arrow)" style="fill: none; stroke-width: 1.66667; stroke: blue; stroke-opacity: 0.4;" d="M556.9681186811238,314.55838963118873A65.3827070214884,65.3827070214884 0,0,1 539.1073392980119,251.66251586123786"></path><path marker-end="url(#blue_arrow)" style="fill: none; stroke-width: 1.66667; stroke: blue; stroke-opacity: 0.4;" d="M556.9681186811238,314.55838963118873A451.39247974135316,451.39247974135316 0,0,1 144.77978250450417,498.5582436718861"></path><path marker-end="url(#blue_arrow)" style="fill: none; stroke-width: 1.66667; stroke: blue; stroke-opacity: 0.4;" d="M556.9681186811238,314.55838963118873A130.5660265087645,130.5660265087645 0,0,1 445.11445797826667,381.910047856191"></path><path marker-end="url(#blue_arrow)" style="fill: none; stroke-width: 1.66667; stroke: blue; stroke-opacity: 0.4;" d="M556.9681186811238,314.55838963118873A30,20 -45,1,1 557.9681186811238,315.55838963118873"></path><path d="M556.9681186811238,314.55838963118873A135.76688156160543,135.76688156160543 0,0,1 611.1553424482885,439.04289031047097" style="fill: none; stroke-width: 1.66667; stroke: rgb(143, 0, 0); stroke-opacity: 0.4;"></path><path marker-end="url(#blue_arrow)" style="fill: none; stroke-width: 1.66667; stroke: blue; stroke-opacity: 0.4;" d="M556.9681186811238,314.55838963118873A164.1618972012117,164.1618972012117 0,0,1 467.0245045184714,451.88746435340886"></path><path d="M417.00883901610905,179.97940119172853A221.4648509134766,221.4648509134766 0,0,1 612.4838751435685,284.07642536195556" style="fill: none; stroke-width: 1.66667; stroke: rgb(143, 0, 0); stroke-opacity: 0.4;"></path><path d="M417.00883901610905,179.97940119172853A276.4698204288861,276.4698204288861 0,0,1 467.0245045184714,451.88746435340886" style="fill: none; stroke-width: 1.66667; stroke: rgb(143, 0, 0); stroke-opacity: 0.4;"></path><path marker-end="url(#blue_arrow)" style="fill: none; stroke-width: 1.66667; stroke: blue; stroke-opacity: 0.4;" d="M416.2563701583496,319.53127546896593A228.62334850513102,228.62334850513102 0,0,1 611.1553424482885,439.04289031047097"></path><path d="M416.2563701583496,319.53127546896593A141.75882407251308,141.75882407251308 0,0,1 467.0245045184714,451.88746435340886" style="fill: none; stroke-width: 1.66667; stroke: rgb(143, 0, 0); stroke-opacity: 0.4;"></path><path marker-end="url(#blue_arrow)" style="fill: none; stroke-width: 1.66667; stroke: blue; stroke-opacity: 0.4;" d="M416.2563701583496,319.53127546896593A141.75882407251308,141.75882407251308 0,0,1 467.0245045184714,451.88746435340886"></path><path marker-end="url(#blue_arrow)" style="fill: none; stroke-width: 1.66667; stroke: blue; stroke-opacity: 0.4;" d="M612.4838751435685,284.07642536195556A514.538209132096,514.538209132096 0,0,1 144.77978250450417,498.5582436718861"></path><path marker-end="url(#blue_arrow)" style="fill: none; stroke-width: 1.66667; stroke: blue; stroke-opacity: 0.4;" d="M612.4838751435685,284.07642536195556A469.0899331379297,469.0899331379297 0,0,1 150.54772635068954,365.6874528628424"></path><path marker-end="url(#blue_arrow)" style="fill: none; stroke-width: 1.66667; stroke: blue; stroke-opacity: 0.4;" d="M612.4838751435685,284.07642536195556A201.76298839043355,201.76298839043355 0,0,1 539.4517265488362,472.15781401026163"></path><path marker-end="url(#blue_arrow)" style="fill: none; stroke-width: 1.66667; stroke: blue; stroke-opacity: 0.4;" d="M612.4838751435685,284.07642536195556A30,20 -45,1,1 613.4838751435685,285.07642536195556"></path><path d="M612.4838751435685,284.07642536195556A230.89605568324984,230.89605568324984 0,0,1 383.5242573175433,254.23548142509475" style="fill: none; stroke-width: 1.66667; stroke: rgb(143, 0, 0); stroke-opacity: 0.4;"></path><path d="M612.4838751435685,284.07642536195556A126.73124849866306,126.73124849866306 0,0,1 490.798704570462,319.4816313156548" style="fill: none; stroke-width: 1.66667; stroke: rgb(143, 0, 0); stroke-opacity: 0.4;"></path><path d="M612.4838751435685,284.07642536195556A72.27790504070501,72.27790504070501 0,0,1 652.299460514971,344.3990141542623" style="fill: none; stroke-width: 1.66667; stroke: rgb(143, 0, 0); stroke-opacity: 0.4;"></path><path d="M612.4838751435685,284.07642536195556A222.07875474714015,222.07875474714015 0,0,1 467.0245045184714,451.88746435340886" style="fill: none; stroke-width: 1.66667; stroke: rgb(143, 0, 0); stroke-opacity: 0.4;"></path><path marker-end="url(#blue_arrow)" style="fill: none; stroke-width: 1.66667; stroke: blue; stroke-opacity: 0.4;" d="M383.5242573175433,254.23548142509475A341.6028928531724,341.6028928531724 0,0,1 144.77978250450417,498.5582436718861"></path><path marker-end="url(#blue_arrow)" style="fill: none; stroke-width: 1.66667; stroke: blue; stroke-opacity: 0.4;" d="M383.5242573175433,254.23548142509475A136.8024945503219,136.8024945503219 0,0,1 497.5061460145233,178.5846283944771"></path><path marker-end="url(#blue_arrow)" style="fill: none; stroke-width: 1.66667; stroke: blue; stroke-opacity: 0.4;" d="M383.5242573175433,254.23548142509475A232.48493693670522,232.48493693670522 0,0,1 587.4485117941413,365.8784137523474"></path><path marker-end="url(#blue_arrow)" style="fill: none; stroke-width: 1.66667; stroke: blue; stroke-opacity: 0.4;" d="M383.5242573175433,254.23548142509475A195.74884942429608,195.74884942429608 0,0,1 518.8980888447137,395.62691606167033"></path><path d="M383.5242573175433,254.23548142509475A214.56606823566182,214.56606823566182 0,0,1 467.0245045184714,451.88746435340886" style="fill: none; stroke-width: 1.66667; stroke: rgb(143, 0, 0); stroke-opacity: 0.4;"></path><path marker-end="url(#blue_arrow)" style="fill: none; stroke-width: 1.66667; stroke: blue; stroke-opacity: 0.4;" d="M383.5242573175433,254.23548142509475A214.56606823566182,214.56606823566182 0,0,1 467.0245045184714,451.88746435340886"></path><path d="M611.1553424482885,439.04289031047097A30,20 -45,1,1 612.1553424482885,440.04289031047097" style="fill: none; stroke-width: 1.66667; stroke: rgb(143, 0, 0); stroke-opacity: 0.4;"></path><path d="M611.1553424482885,439.04289031047097A244.9974510154142,244.9974510154142 0,0,1 460.40094890491304,245.91893055555252" style="fill: none; stroke-width: 1.66667; stroke: rgb(143, 0, 0); stroke-opacity: 0.4;"></path><path d="M611.1553424482885,439.04289031047097A144.70204395479598,144.70204395479598 0,0,1 467.0245045184714,451.88746435340886" style="fill: none; stroke-width: 1.66667; stroke: rgb(143, 0, 0); stroke-opacity: 0.4;"></path><path d="M490.798704570462,319.4816313156548A163.41165851362499,163.41165851362499 0,0,1 652.299460514971,344.3990141542623" style="fill: none; stroke-width: 1.66667; stroke: rgb(143, 0, 0); stroke-opacity: 0.4;"></path><path d="M460.40094890491304,245.91893055555252A30,20 -45,1,1 461.40094890491304,246.91893055555252" style="fill: none; stroke-width: 1.66667; stroke: rgb(143, 0, 0); stroke-opacity: 0.4;"></path><path marker-end="url(#blue_arrow)" style="fill: none; stroke-width: 1.66667; stroke: blue; stroke-opacity: 0.4;" d="M467.0245045184714,451.88746435340886A325.60685267366995,325.60685267366995 0,0,1 144.77978250450417,498.5582436718861"></path><path marker-end="url(#blue_arrow)" style="fill: none; stroke-width: 1.66667; stroke: blue; stroke-opacity: 0.4;" d="M467.0245045184714,451.88746435340886A274.99740109951694,274.99740109951694 0,0,1 497.5061460145233,178.5846283944771"></path><path marker-end="url(#blue_arrow)" style="fill: none; stroke-width: 1.66667; stroke: blue; stroke-opacity: 0.4;" d="M467.0245045184714,451.88746435340886A147.98479081860586,147.98479081860586 0,0,1 587.4485117941413,365.8784137523474"></path><path marker-end="url(#blue_arrow)" style="fill: none; stroke-width: 1.66667; stroke: blue; stroke-opacity: 0.4;" d="M467.0245045184714,451.88746435340886A246.6208753601981,246.6208753601981 0,0,1 235.49515929663008,536.834615362585"></path><path d="M217.07039622285947,486.4503901244259A53.64738621008609,53.64738621008609 0,0,1 235.49515929663008,536.834615362585" style="fill: none; stroke-width: 10.3333; stroke: grey; stroke-opacity: 0.4;"></path><path d="M144.77978250450417,498.5582436718861A81.53100248004849,81.53100248004849 0,0,1 184.60822148092993,427.4175393311024" style="fill: none; stroke-width: 6.33333; stroke: grey; stroke-opacity: 0.4;"></path><path d="M539.1073392980119,251.66251586123786A395.67594418663106,395.67594418663106 0,0,1 184.60822148092993,427.4175393311024" style="fill: none; stroke-width: 6.33333; stroke: grey; stroke-opacity: 0.4;"></path><path d="M150.54772635068954,365.6874528628424A324.7907095629037,324.7907095629037 0,0,1 417.00883901610905,179.97940119172853" style="fill: none; stroke-width: 5.66667; stroke: grey; stroke-opacity: 0.4;"></path><path d="M184.60822148092993,427.4175393311024A120.67135935066861,120.67135935066861 0,0,1 235.49515929663008,536.834615362585" style="fill: none; stroke-width: 5; stroke: grey; stroke-opacity: 0.4;"></path><path d="M217.07039622285947,486.4503901244259A67.3696538640534,67.3696538640534 0,0,1 184.60822148092993,427.4175393311024" style="fill: none; stroke-width: 5; stroke: grey; stroke-opacity: 0.4;"></path><path d="M184.60822148092993,427.4175393311024A70.50333966484128,70.50333966484128 0,0,1 150.54772635068954,365.6874528628424" style="fill: none; stroke-width: 5; stroke: grey; stroke-opacity: 0.4;"></path><path d="M445.11445797826667,381.910047856191A386.25361972260913,386.25361972260913 0,0,1 165.7879848686737,115.13564846791799" style="fill: none; stroke-width: 4.33333; stroke: grey; stroke-opacity: 0.4;"></path><path d="M445.11445797826667,381.910047856191A77.35862963144581,77.35862963144581 0,0,1 490.798704570462,319.4816313156548" style="fill: none; stroke-width: 4.33333; stroke: grey; stroke-opacity: 0.4;"></path><path d="M587.4485117941413,365.8784137523474A147.98479081860586,147.98479081860586 0,0,1 467.0245045184714,451.88746435340886" style="fill: none; stroke-width: 4.33333; stroke: grey; stroke-opacity: 0.4;"></path><path d="M184.60822148092993,427.4175393311024A264.45118837763897,264.45118837763897 0,0,1 445.11445797826667,381.910047856191" style="fill: none; stroke-width: 4.33333; stroke: grey; stroke-opacity: 0.4;"></path><path d="M539.1073392980119,251.66251586123786A160.62092432047592,160.62092432047592 0,0,1 445.11445797826667,381.910047856191" style="fill: none; stroke-width: 3.66667; stroke: grey; stroke-opacity: 0.4;"></path><path d="M416.2563701583496,319.53127546896593A74.54235094326683,74.54235094326683 0,0,1 490.798704570462,319.4816313156548" style="fill: none; stroke-width: 3.66667; stroke: grey; stroke-opacity: 0.4;"></path><path d="M108.01198571814767,424.0798156142129A170.19284477303086,170.19284477303086 0,0,1 235.49515929663008,536.834615362585" style="fill: none; stroke-width: 3; stroke: grey; stroke-opacity: 0.4;"></path><path d="M539.1073392980119,251.66251586123786A416.537491925034,416.537491925034 0,0,1 235.49515929663008,536.834615362585" style="fill: none; stroke-width: 3; stroke: grey; stroke-opacity: 0.4;"></path><path d="M108.01198571814767,424.0798156142129A394.86615750242345,394.86615750242345 0,0,1 460.40094890491304,245.91893055555252" style="fill: none; stroke-width: 3; stroke: grey; stroke-opacity: 0.4;"></path><path d="M150.54772635068954,365.6874528628424A436.90082717610676,436.90082717610676 0,0,1 587.4485117941413,365.8784137523474" style="fill: none; stroke-width: 3; stroke: grey; stroke-opacity: 0.4;"></path><path d="M445.11445797826667,381.910047856191A203.87719803738227,203.87719803738227 0,0,1 417.00883901610905,179.97940119172853" style="fill: none; stroke-width: 3; stroke: grey; stroke-opacity: 0.4;"></path><path d="M518.8980888447137,395.62691606167033A238.50633094368288,238.50633094368288 0,0,1 417.00883901610905,179.97940119172853" style="fill: none; stroke-width: 3; stroke: grey; stroke-opacity: 0.4;"></path><path d="M108.01198571814767,424.0798156142129A72.24235086738607,72.24235086738607 0,0,1 150.54772635068954,365.6874528628424" style="fill: none; stroke-width: 2.33333; stroke: grey; stroke-opacity: 0.4;"></path><path d="M108.01198571814767,424.0798156142129A396.8204282648209,396.8204282648209 0,0,1 490.798704570462,319.4816313156548" style="fill: none; stroke-width: 2.33333; stroke: grey; stroke-opacity: 0.4;"></path><path d="M150.54772635068954,365.6874528628424A295.01310474294405,295.01310474294405 0,0,1 445.11445797826667,381.910047856191" style="fill: none; stroke-width: 2.33333; stroke: grey; stroke-opacity: 0.4;"></path><path d="M150.54772635068954,365.6874528628424A343.37400327392675,343.37400327392675 0,0,1 490.798704570462,319.4816313156548" style="fill: none; stroke-width: 2.33333; stroke: grey; stroke-opacity: 0.4;"></path><path d="M539.4517265488362,472.15781401026163A287.4886253635541,287.4886253635541 0,0,1 566.2447606781271,185.92042470625648" style="fill: none; stroke-width: 2.33333; stroke: grey; stroke-opacity: 0.4;"></path><path d="M587.4485117941413,365.8784137523474A107.20935899842024,107.20935899842024 0,0,1 490.798704570462,319.4816313156548" style="fill: none; stroke-width: 2.33333; stroke: grey; stroke-opacity: 0.4;"></path><path d="M587.4485117941413,365.8784137523474A174.73225473545094,174.73225473545094 0,0,1 460.40094890491304,245.91893055555252" style="fill: none; stroke-width: 2.33333; stroke: grey; stroke-opacity: 0.4;"></path><path d="M518.8980888447137,395.62691606167033A127.77272374065109,127.77272374065109 0,0,1 416.2563701583496,319.53127546896593" style="fill: none; stroke-width: 2.33333; stroke: grey; stroke-opacity: 0.4;"></path><path d="M518.8980888447137,395.62691606167033A76.52527716342367,76.52527716342367 0,0,1 467.0245045184714,451.88746435340886" style="fill: none; stroke-width: 2.33333; stroke: grey; stroke-opacity: 0.4;"></path><path d="M235.49515929663008,536.834615362585A367.71531089427043,367.71531089427043 0,0,1 460.40094890491304,245.91893055555252" style="fill: none; stroke-width: 2.33333; stroke: grey; stroke-opacity: 0.4;"></path><path d="M383.5242573175433,254.23548142509475A125.55822198868806,125.55822198868806 0,0,1 490.798704570462,319.4816313156548" style="fill: none; stroke-width: 2.33333; stroke: grey; stroke-opacity: 0.4;"></path><path d="M108.01198571814767,424.0798156142129A516.4273148519276,516.4273148519276 0,0,1 566.2447606781271,185.92042470625648" style="fill: none; stroke-width: 2.33333; stroke: grey; stroke-opacity: 0.4;"></path><path d="M539.1073392980119,251.66251586123786A465.2437237168135,465.2437237168135 0,0,1 144.77978250450417,498.5582436718861" style="fill: none; stroke-width: 2.33333; stroke: grey; stroke-opacity: 0.4;"></path><path d="M445.11445797826667,381.910047856191A75.04782913051253,75.04782913051253 0,0,1 518.8980888447137,395.62691606167033" style="fill: none; stroke-width: 2.33333; stroke: grey; stroke-opacity: 0.4;"></path><path d="M445.11445797826667,381.910047856191A68.73063710718297,68.73063710718297 0,0,1 416.2563701583496,319.53127546896593" style="fill: none; stroke-width: 2.33333; stroke: grey; stroke-opacity: 0.4;"></path><path d="M497.5061460145233,178.5846283944771A80.50938967072665,80.50938967072665 0,0,1 417.00883901610905,179.97940119172853" style="fill: none; stroke-width: 2.33333; stroke: grey; stroke-opacity: 0.4;"></path><path d="M518.8980888447137,395.62691606167033A160.73081940137243,160.73081940137243 0,0,1 460.40094890491304,245.91893055555252" style="fill: none; stroke-width: 2.33333; stroke: grey; stroke-opacity: 0.4;"></path><path d="M417.00883901610905,179.97940119172853A139.55390293242166,139.55390293242166 0,0,1 416.2563701583496,319.53127546896593" style="fill: none; stroke-width: 2.33333; stroke: grey; stroke-opacity: 0.4;"></path><path d="M417.00883901610905,179.97940119172853A81.45663056591555,81.45663056591555 0,0,1 383.5242573175433,254.23548142509475" style="fill: none; stroke-width: 2.33333; stroke: grey; stroke-opacity: 0.4;"></path><path d="M417.00883901610905,179.97940119172853A149.35412975446033,149.35412975446033 0,0,1 566.2447606781271,185.92042470625648" style="fill: none; stroke-width: 2.33333; stroke: grey; stroke-opacity: 0.4;"></path><path d="M416.2563701583496,319.53127546896593A73.04061836295557,73.04061836295557 0,0,1 383.5242573175433,254.23548142509475" style="fill: none; stroke-width: 2.33333; stroke: grey; stroke-opacity: 0.4;"></path><path d="M383.5242573175433,254.23548142509475A195.0736510214622,195.0736510214622 0,0,1 566.2447606781271,185.92042470625648" style="fill: none; stroke-width: 2.33333; stroke: grey; stroke-opacity: 0.4;"></path><path d="M490.798704570462,319.4816313156548A153.3972075794059,153.3972075794059 0,0,1 566.2447606781271,185.92042470625648" style="fill: none; stroke-width: 2.33333; stroke: grey; stroke-opacity: 0.4;"></path><path d="M566.2447606781271,185.92042470625648A121.66648344894162,121.66648344894162 0,0,1 460.40094890491304,245.91893055555252" style="fill: none; stroke-width: 2.33333; stroke: grey; stroke-opacity: 0.4;"></path><path d="M108.01198571814767,424.0798156142129A393.78175131571356,393.78175131571356 0,0,1 417.00883901610905,179.97940119172853" style="fill: none; stroke-width: 2.33333; stroke: grey; stroke-opacity: 0.4;"></path><path d="M165.7879848686737,115.13564846791799A322.3368819291895,322.3368819291895 0,0,1 460.40094890491304,245.91893055555252" style="fill: none; stroke-width: 2.33333; stroke: grey; stroke-opacity: 0.4;"></path><path d="M108.01198571814767,424.0798156142129A464.2961653215062,464.2961653215062 0,0,1 539.1073392980119,251.66251586123786" style="fill: none; stroke-width: 1.66667; stroke: grey; stroke-opacity: 0.4;"></path><path d="M108.01198571814767,424.0798156142129A83.05966004303657,83.05966004303657 0,0,1 144.77978250450417,498.5582436718861" style="fill: none; stroke-width: 1.66667; stroke: grey; stroke-opacity: 0.4;"></path><path d="M108.01198571814767,424.0798156142129A434.1102900160535,434.1102900160535 0,0,1 539.4517265488362,472.15781401026163" style="fill: none; stroke-width: 1.66667; stroke: grey; stroke-opacity: 0.4;"></path><path d="M108.01198571814767,424.0798156142129A325.4919319820713,325.4919319820713 0,0,1 416.2563701583496,319.53127546896593" style="fill: none; stroke-width: 1.66667; stroke: grey; stroke-opacity: 0.4;"></path><path d="M108.01198571814767,424.0798156142129A523.5387631327598,523.5387631327598 0,0,1 612.4838751435685,284.07642536195556" style="fill: none; stroke-width: 1.66667; stroke: grey; stroke-opacity: 0.4;"></path><path d="M108.01198571814767,424.0798156142129A323.6573954940687,323.6573954940687 0,0,1 383.5242573175433,254.23548142509475" style="fill: none; stroke-width: 1.66667; stroke: grey; stroke-opacity: 0.4;"></path><path d="M217.07039622285947,486.4503901244259A398.53875420869116,398.53875420869116 0,0,1 539.1073392980119,251.66251586123786" style="fill: none; stroke-width: 1.66667; stroke: grey; stroke-opacity: 0.4;"></path><path d="M217.07039622285947,486.4503901244259A73.29756441590133,73.29756441590133 0,0,1 144.77978250450417,498.5582436718861" style="fill: none; stroke-width: 1.66667; stroke: grey; stroke-opacity: 0.4;"></path><path d="M539.1073392980119,251.66251586123786A220.495567094682,220.495567094682 0,0,1 539.4517265488362,472.15781401026163" style="fill: none; stroke-width: 1.66667; stroke: grey; stroke-opacity: 0.4;"></path><path d="M539.1073392980119,251.66251586123786A397.50085020257626,397.50085020257626 0,0,1 165.7879848686737,115.13564846791799" style="fill: none; stroke-width: 1.66667; stroke: grey; stroke-opacity: 0.4;"></path><path d="M539.1073392980119,251.66251586123786A124.02475675998278,124.02475675998278 0,0,1 587.4485117941413,365.8784137523474" style="fill: none; stroke-width: 1.66667; stroke: grey; stroke-opacity: 0.4;"></path><path d="M539.1073392980119,251.66251586123786A145.37593449039085,145.37593449039085 0,0,1 518.8980888447137,395.62691606167033" style="fill: none; stroke-width: 1.66667; stroke: grey; stroke-opacity: 0.4;"></path><path d="M539.1073392980119,251.66251586123786A155.60435582056823,155.60435582056823 0,0,1 383.5242573175433,254.23548142509475" style="fill: none; stroke-width: 1.66667; stroke: grey; stroke-opacity: 0.4;"></path><path d="M539.1073392980119,251.66251586123786A146.3301555430284,146.3301555430284 0,0,1 652.299460514971,344.3990141542623" style="fill: none; stroke-width: 1.66667; stroke: grey; stroke-opacity: 0.4;"></path><path d="M144.77978250450417,498.5582436718861A132.99592560087467,132.99592560087467 0,0,1 150.54772635068954,365.6874528628424" style="fill: none; stroke-width: 1.66667; stroke: grey; stroke-opacity: 0.4;"></path><path d="M144.77978250450417,498.5582436718861A322.19205278682307,322.19205278682307 0,0,1 445.11445797826667,381.910047856191" style="fill: none; stroke-width: 1.66667; stroke: grey; stroke-opacity: 0.4;"></path><path d="M144.77978250450417,498.5582436718861A395.5539484091275,395.5539484091275 0,0,1 539.4517265488362,472.15781401026163" style="fill: none; stroke-width: 1.66667; stroke: grey; stroke-opacity: 0.4;"></path><path d="M144.77978250450417,498.5582436718861A383.99769671121715,383.99769671121715 0,0,1 165.7879848686737,115.13564846791799" style="fill: none; stroke-width: 1.66667; stroke: grey; stroke-opacity: 0.4;"></path><path d="M144.77978250450417,498.5582436718861A462.12502762605243,462.12502762605243 0,0,1 587.4485117941413,365.8784137523474" style="fill: none; stroke-width: 1.66667; stroke: grey; stroke-opacity: 0.4;"></path><path d="M144.77978250450417,498.5582436718861A388.0198001938412,388.0198001938412 0,0,1 518.8980888447137,395.62691606167033" style="fill: none; stroke-width: 1.66667; stroke: grey; stroke-opacity: 0.4;"></path><path d="M144.77978250450417,498.5582436718861A419.04789473900905,419.04789473900905 0,0,1 417.00883901610905,179.97940119172853" style="fill: none; stroke-width: 1.66667; stroke: grey; stroke-opacity: 0.4;"></path><path d="M144.77978250450417,498.5582436718861A325.19254755929666,325.19254755929666 0,0,1 416.2563701583496,319.53127546896593" style="fill: none; stroke-width: 1.66667; stroke: grey; stroke-opacity: 0.4;"></path><path d="M144.77978250450417,498.5582436718861A341.6028928531724,341.6028928531724 0,0,1 383.5242573175433,254.23548142509475" style="fill: none; stroke-width: 1.66667; stroke: grey; stroke-opacity: 0.4;"></path><path d="M144.77978250450417,498.5582436718861A389.61202178663757,389.61202178663757 0,0,1 490.798704570462,319.4816313156548" style="fill: none; stroke-width: 1.66667; stroke: grey; stroke-opacity: 0.4;"></path><path d="M144.77978250450417,498.5582436718861A530.4161494650359,530.4161494650359 0,0,1 652.299460514971,344.3990141542623" style="fill: none; stroke-width: 1.66667; stroke: grey; stroke-opacity: 0.4;"></path><path d="M144.77978250450417,498.5582436718861A404.2812674510747,404.2812674510747 0,0,1 460.40094890491304,245.91893055555252" style="fill: none; stroke-width: 1.66667; stroke: grey; stroke-opacity: 0.4;"></path><path d="M184.60822148092993,427.4175393311024A357.6529117276187,357.6529117276187 0,0,1 539.4517265488362,472.15781401026163" style="fill: none; stroke-width: 1.66667; stroke: grey; stroke-opacity: 0.4;"></path><path d="M184.60822148092993,427.4175393311024A312.84849474981837,312.84849474981837 0,0,1 165.7879848686737,115.13564846791799" style="fill: none; stroke-width: 1.66667; stroke: grey; stroke-opacity: 0.4;"></path><path d="M184.60822148092993,427.4175393311024A407.51363593949856,407.51363593949856 0,0,1 587.4485117941413,365.8784137523474" style="fill: none; stroke-width: 1.66667; stroke: grey; stroke-opacity: 0.4;"></path><path d="M184.60822148092993,427.4175393311024A335.7980928325161,335.7980928325161 0,0,1 518.8980888447137,395.62691606167033" style="fill: none; stroke-width: 1.66667; stroke: grey; stroke-opacity: 0.4;"></path><path d="M184.60822148092993,427.4175393311024A451.24743761172334,451.24743761172334 0,0,1 612.4838751435685,284.07642536195556" style="fill: none; stroke-width: 1.66667; stroke: grey; stroke-opacity: 0.4;"></path><path d="M184.60822148092993,427.4175393311024A324.65793101928097,324.65793101928097 0,0,1 490.798704570462,319.4816313156548" style="fill: none; stroke-width: 1.66667; stroke: grey; stroke-opacity: 0.4;"></path><path d="M150.54772635068954,365.6874528628424A403.21490445292557,403.21490445292557 0,0,1 539.4517265488362,472.15781401026163" style="fill: none; stroke-width: 1.66667; stroke: grey; stroke-opacity: 0.4;"></path><path d="M150.54772635068954,365.6874528628424A258.2626684573477,258.2626684573477 0,0,1 383.5242573175433,254.23548142509475" style="fill: none; stroke-width: 1.66667; stroke: grey; stroke-opacity: 0.4;"></path><path d="M150.54772635068954,365.6874528628424A332.1950006591143,332.1950006591143 0,0,1 460.40094890491304,245.91893055555252" style="fill: none; stroke-width: 1.66667; stroke: grey; stroke-opacity: 0.4;"></path><path d="M539.4517265488362,472.15781401026163A296.55462741114053,296.55462741114053 0,0,1 497.5061460145233,178.5846283944771" style="fill: none; stroke-width: 1.66667; stroke: grey; stroke-opacity: 0.4;"></path><path d="M539.4517265488362,472.15781401026163A79.24285686224356,79.24285686224356 0,0,1 518.8980888447137,395.62691606167033" style="fill: none; stroke-width: 1.66667; stroke: grey; stroke-opacity: 0.4;"></path><path d="M539.4517265488362,472.15781401026163A201.76298839043355,201.76298839043355 0,0,1 612.4838751435685,284.07642536195556" style="fill: none; stroke-width: 1.66667; stroke: grey; stroke-opacity: 0.4;"></path><path d="M539.4517265488362,472.15781401026163A267.96178589536953,267.96178589536953 0,0,1 383.5242573175433,254.23548142509475" style="fill: none; stroke-width: 1.66667; stroke: grey; stroke-opacity: 0.4;"></path><path d="M497.5061460145233,178.5846283944771A162.68830135636358,162.68830135636358 0,0,1 416.2563701583496,319.53127546896593" style="fill: none; stroke-width: 1.66667; stroke: grey; stroke-opacity: 0.4;"></path><path d="M497.5061460145233,178.5846283944771A156.03973027117095,156.03973027117095 0,0,1 612.4838751435685,284.07642536195556" style="fill: none; stroke-width: 1.66667; stroke: grey; stroke-opacity: 0.4;"></path><path d="M497.5061460145233,178.5846283944771A136.8024945503219,136.8024945503219 0,0,1 383.5242573175433,254.23548142509475" style="fill: none; stroke-width: 1.66667; stroke: grey; stroke-opacity: 0.4;"></path><path d="M497.5061460145233,178.5846283944771A141.05656738661926,141.05656738661926 0,0,1 490.798704570462,319.4816313156548" style="fill: none; stroke-width: 1.66667; stroke: grey; stroke-opacity: 0.4;"></path><path d="M165.7879848686737,115.13564846791799A521.6612415475537,521.6612415475537 0,0,1 484.68462602035044,527.9738530894305" style="fill: none; stroke-width: 1.66667; stroke: grey; stroke-opacity: 0.4;"></path><path d="M165.7879848686737,115.13564846791799A490.58081323013994,490.58081323013994 0,0,1 587.4485117941413,365.8784137523474" style="fill: none; stroke-width: 1.66667; stroke: grey; stroke-opacity: 0.4;"></path><path d="M165.7879848686737,115.13564846791799A383.91307431120646,383.91307431120646 0,0,1 490.798704570462,319.4816313156548" style="fill: none; stroke-width: 1.66667; stroke: grey; stroke-opacity: 0.4;"></path><path d="M587.4485117941413,365.8784137523474A177.35502977053633,177.35502977053633 0,0,1 416.2563701583496,319.53127546896593" style="fill: none; stroke-width: 1.66667; stroke: grey; stroke-opacity: 0.4;"></path><path d="M518.8980888447137,395.62691606167033A89.562453904272,89.562453904272 0,0,1 556.9681186811238,314.55838963118873" style="fill: none; stroke-width: 1.66667; stroke: grey; stroke-opacity: 0.4;"></path><path d="M518.8980888447137,395.62691606167033A214.9849293562207,214.9849293562207 0,0,1 566.2447606781271,185.92042470625648" style="fill: none; stroke-width: 1.66667; stroke: grey; stroke-opacity: 0.4;"></path><path d="M417.00883901610905,179.97940119172853A157.81576748879806,157.81576748879806 0,0,1 490.798704570462,319.4816313156548" style="fill: none; stroke-width: 1.66667; stroke: grey; stroke-opacity: 0.4;"></path><path d="M417.00883901610905,179.97940119172853A287.04613861201847,287.04613861201847 0,0,1 652.299460514971,344.3990141542623" style="fill: none; stroke-width: 1.66667; stroke: grey; stroke-opacity: 0.4;"></path><path d="M235.49515929663008,536.834615362585A335.29422885503516,335.29422885503516 0,0,1 490.798704570462,319.4816313156548" style="fill: none; stroke-width: 1.66667; stroke: grey; stroke-opacity: 0.4;"></path><path d="M416.2563701583496,319.53127546896593A237.34941527719064,237.34941527719064 0,0,1 652.299460514971,344.3990141542623" style="fill: none; stroke-width: 1.66667; stroke: grey; stroke-opacity: 0.4;"></path><path d="M416.2563701583496,319.53127546896593A141.75882407251308,141.75882407251308 0,0,1 467.0245045184714,451.88746435340886" style="fill: none; stroke-width: 1.66667; stroke: grey; stroke-opacity: 0.4;"></path><path d="M612.4838751435685,284.07642536195556A230.89605568324984,230.89605568324984 0,0,1 383.5242573175433,254.23548142509475" style="fill: none; stroke-width: 1.66667; stroke: grey; stroke-opacity: 0.4;"></path><path d="M383.5242573175433,254.23548142509475A214.56606823566182,214.56606823566182 0,0,1 467.0245045184714,451.88746435340886" style="fill: none; stroke-width: 1.66667; stroke: grey; stroke-opacity: 0.4;"></path><path d="M490.798704570462,319.4816313156548A134.5232961629088,134.5232961629088 0,0,1 467.0245045184714,451.88746435340886" style="fill: none; stroke-width: 1.66667; stroke: grey; stroke-opacity: 0.4;"></path><path d="M652.299460514971,344.3990141542623A180.3354504179333,180.3354504179333 0,0,1 566.2447606781271,185.92042470625648" style="fill: none; stroke-width: 1.66667; stroke: grey; stroke-opacity: 0.4;"></path><path d="M652.299460514971,344.3990141542623A215.69275746710738,215.69275746710738 0,0,1 460.40094890491304,245.91893055555252" style="fill: none; stroke-width: 1.66667; stroke: grey; stroke-opacity: 0.4;"></path><path d="M460.40094890491304,245.91893055555252A206.07500674221654,206.07500674221654 0,0,1 467.0245045184714,451.88746435340886" style="fill: none; stroke-width: 1.66667; stroke: grey; stroke-opacity: 0.4;"></path></g><circle r="36.338921978626836" style="fill: rgb(248, 248, 255); stroke: rgb(85, 85, 85); stroke-width: 2px;" cx="144.77978250450417" cy="498.5582436718861"></circle><circle r="33.798561000070634" style="fill: rgb(0, 130, 200); stroke: rgb(85, 85, 85); stroke-width: 2px;" cx="611.1553424482885" cy="439.04289031047097"></circle><circle r="33.798561000070634" style="fill: rgb(0, 130, 200); stroke: rgb(85, 85, 85); stroke-width: 2px;" cx="539.1073392980119" cy="251.66251586123786"></circle><circle r="31.746445452260946" style="fill: rgb(255, 225, 25); stroke: rgb(85, 85, 85); stroke-width: 2px;" cx="612.4838751435685" cy="284.07642536195556"></circle><circle r="32.91758067261333" style="fill: rgb(255, 225, 25); stroke: rgb(85, 85, 85); stroke-width: 2px;" cx="383.5242573175433" cy="254.23548142509475"></circle><circle r="31.746445452260946" style="fill: rgb(204, 204, 204); stroke: rgb(85, 85, 85); stroke-width: 2px;" cx="108.01198571814767" cy="424.0798156142129"></circle><circle r="32.91758067261333" style="fill: rgb(0, 130, 200); stroke: rgb(85, 85, 85); stroke-width: 2px;" cx="484.68462602035044" cy="527.9738530894305"></circle><circle r="33.798561000070634" style="fill: rgb(255, 225, 25); stroke: rgb(85, 85, 85); stroke-width: 2px;" cx="417.00883901610905" cy="179.97940119172853"></circle><circle r="30.182491820837868" style="fill: rgb(0, 130, 200); stroke: rgb(85, 85, 85); stroke-width: 2px;" cx="184.60822148092993" cy="427.4175393311024"></circle><circle r="31.746445452260946" style="fill: rgb(248, 248, 255); stroke: rgb(85, 85, 85); stroke-width: 2px;" cx="497.5061460145233" cy="178.5846283944771"></circle><circle r="25.457922621654813" style="fill: rgb(248, 248, 255); stroke: rgb(85, 85, 85); stroke-width: 2px;" cx="165.7879848686737" cy="115.13564846791799"></circle><circle r="16.944625405440593" style="fill: rgb(255, 225, 25); stroke: rgb(85, 85, 85); stroke-width: 2px;" cx="556.9681186811238" cy="314.55838963118873"></circle><circle r="25.457922621654813" style="fill: rgb(255, 225, 25); stroke: rgb(85, 85, 85); stroke-width: 2px;" cx="416.2563701583496" cy="319.53127546896593"></circle><circle r="28.111070110015703" style="fill: rgb(0, 130, 200); stroke: rgb(85, 85, 85); stroke-width: 2px;" cx="587.4485117941413" cy="365.8784137523474"></circle><circle r="34.46832179295342" style="fill: rgb(255, 225, 25); stroke: rgb(85, 85, 85); stroke-width: 2px;" cx="490.798704570462" cy="319.4816313156548"></circle><circle r="30.182491820837868" style="fill: rgb(0, 130, 200); stroke: rgb(85, 85, 85); stroke-width: 2px;" cx="460.40094890491304" cy="245.91893055555252"></circle><circle r="28.111070110015703" style="fill: rgb(0, 130, 200); stroke: rgb(85, 85, 85); stroke-width: 2px;" cx="445.11445797826667" cy="381.910047856191"></circle><circle r="25.457922621654813" style="fill: rgb(255, 225, 25); stroke: rgb(85, 85, 85); stroke-width: 2px;" cx="652.299460514971" cy="344.3990141542623"></circle><circle r="22.324305847321092" style="fill: rgb(248, 248, 255); stroke: rgb(85, 85, 85); stroke-width: 2px;" cx="566.2447606781271" cy="185.92042470625648"></circle><circle r="30.182491820837868" style="fill: rgb(0, 130, 200); stroke: rgb(85, 85, 85); stroke-width: 2px;" cx="467.0245045184714" cy="451.88746435340886"></circle><circle r="25.457922621654813" style="fill: rgb(255, 225, 25); stroke: rgb(85, 85, 85); stroke-width: 2px;" cx="150.54772635068954" cy="365.6874528628424"></circle><circle r="31.746445452260946" style="fill: rgb(0, 130, 200); stroke: rgb(85, 85, 85); stroke-width: 2px;" cx="518.8980888447137" cy="395.62691606167033"></circle><circle r="16.25" style="fill: rgb(0, 130, 200); stroke: rgb(85, 85, 85); stroke-width: 2px;" cx="235.49515929663008" cy="536.834615362585"></circle><circle r="22.324305847321092" style="fill: rgb(230, 190, 255); stroke: rgb(85, 85, 85); stroke-width: 2px;" cx="217.07039622285947" cy="486.4503901244259"></circle><circle r="30.182491820837868" style="fill: rgb(255, 225, 25); stroke: rgb(85, 85, 85); stroke-width: 2px;" cx="539.4517265488362" cy="472.15781401026163"></circle><g><text x="125.65403409470056" y="504.6147306683239" style="font-style: normal; font-variant: normal; font-weight: bold; font-stretch: normal; font-size: 14.5356px; line-height: normal; font-family: sans-serif; pointer-events: none;">CLB1</text><text x="593.3666261324619" y="444.67598381048276" style="font-style: normal; font-variant: normal; font-weight: bold; font-stretch: normal; font-size: 13.5194px; line-height: normal; font-family: sans-serif; pointer-events: none;">SSB2</text><text x="516.5749652979648" y="257.29560936124966" style="font-style: normal; font-variant: normal; font-weight: bold; font-stretch: normal; font-size: 13.5194px; line-height: normal; font-family: sans-serif; pointer-events: none;">CDC28</text><text x="591.3195781753946" y="289.367499603999" style="font-style: normal; font-variant: normal; font-weight: bold; font-stretch: normal; font-size: 12.6986px; line-height: normal; font-family: sans-serif; pointer-events: none;">SPT10</text><text x="366.19921485827314" y="259.7217448705303" style="font-style: normal; font-variant: normal; font-weight: bold; font-stretch: normal; font-size: 13.167px; line-height: normal; font-family: sans-serif; pointer-events: none;">SPT3</text><text x="91.3033302169577" y="429.3708898562564" style="font-style: normal; font-variant: normal; font-weight: bold; font-stretch: normal; font-size: 12.6986px; line-height: normal; font-family: sans-serif; pointer-events: none;">BUB3</text><text x="467.3595835610803" y="533.4601165348661" style="font-style: normal; font-variant: normal; font-weight: bold; font-stretch: normal; font-size: 13.167px; line-height: normal; font-family: sans-serif; pointer-events: none;">PUF3</text><text x="394.476465016062" y="185.6124946917403" style="font-style: normal; font-variant: normal; font-weight: bold; font-stretch: normal; font-size: 13.5194px; line-height: normal; font-family: sans-serif; pointer-events: none;">SGF73</text><text x="168.72269946996263" y="432.44795463457535" style="font-style: normal; font-variant: normal; font-weight: bold; font-stretch: normal; font-size: 12.073px; line-height: normal; font-family: sans-serif; pointer-events: none;">CLB2</text><text x="480.79749051333334" y="183.8757026365206" style="font-style: normal; font-variant: normal; font-weight: bold; font-stretch: normal; font-size: 12.6986px; line-height: normal; font-family: sans-serif; pointer-events: none;">IXR1</text><text x="152.3890782256975" y="119.37863557152713" style="font-style: normal; font-variant: normal; font-weight: bold; font-stretch: normal; font-size: 10.1832px; line-height: normal; font-family: sans-serif; pointer-events: none;">PTC1</text><text x="548.0498947835234" y="317.38249386542884" style="font-style: normal; font-variant: normal; font-weight: bold; font-stretch: normal; font-size: 6.77785px; line-height: normal; font-family: sans-serif; pointer-events: none;">SFP1</text><text x="402.8574635153734" y="323.7742625725751" style="font-style: normal; font-variant: normal; font-weight: bold; font-stretch: normal; font-size: 10.1832px; line-height: normal; font-family: sans-serif; pointer-events: none;">SIN4</text><text x="568.7077983874641" y="370.56359210401666" style="font-style: normal; font-variant: normal; font-weight: bold; font-stretch: normal; font-size: 11.2444px; line-height: normal; font-family: sans-serif; pointer-events: none;">RAD51</text><text x="472.65748257417073" y="325.22635161448034" style="font-style: normal; font-variant: normal; font-weight: bold; font-stretch: normal; font-size: 13.7873px; line-height: normal; font-family: sans-serif; pointer-events: none;">SWI6</text><text x="444.51542689394574" y="250.9493458590255" style="font-style: normal; font-variant: normal; font-weight: bold; font-stretch: normal; font-size: 12.073px; line-height: normal; font-family: sans-serif; pointer-events: none;">XRN1</text><text x="430.3191579203637" y="386.59522620786026" style="font-style: normal; font-variant: normal; font-weight: bold; font-stretch: normal; font-size: 11.2444px; line-height: normal; font-family: sans-serif; pointer-events: none;">ELM1</text><text x="635.3275121005345" y="348.64200125787147" style="font-style: normal; font-variant: normal; font-weight: bold; font-stretch: normal; font-size: 10.1832px; line-height: normal; font-family: sans-serif; pointer-events: none;">TAF12</text><text x="554.4951260216424" y="189.64114234747666" style="font-style: normal; font-variant: normal; font-weight: bold; font-stretch: normal; font-size: 8.92972px; line-height: normal; font-family: sans-serif; pointer-events: none;">UBP6</text><text x="451.1389825075041" y="456.91787965688184" style="font-style: normal; font-variant: normal; font-weight: bold; font-stretch: normal; font-size: 12.073px; line-height: normal; font-family: sans-serif; pointer-events: none;">YAP1</text><text x="137.14881970771333" y="369.93043996645156" style="font-style: normal; font-variant: normal; font-weight: bold; font-stretch: normal; font-size: 10.1832px; line-height: normal; font-family: sans-serif; pointer-events: none;">DCC1</text><text x="502.1894333435237" y="400.9179903037138" style="font-style: normal; font-variant: normal; font-weight: bold; font-stretch: normal; font-size: 12.6986px; line-height: normal; font-family: sans-serif; pointer-events: none;">RAS2</text><text x="226.9425277176827" y="539.5429486959184" style="font-style: normal; font-variant: normal; font-weight: bold; font-stretch: normal; font-size: 6.5px; line-height: normal; font-family: sans-serif; pointer-events: none;">SIC1</text><text x="202.18752565797874" y="490.17110776564607" style="font-style: normal; font-variant: normal; font-weight: bold; font-stretch: normal; font-size: 8.92972px; line-height: normal; font-family: sans-serif; pointer-events: none;">CDC14</text><text x="523.5662045378689" y="477.1882293137346" style="font-style: normal; font-variant: normal; font-weight: bold; font-stretch: normal; font-size: 12.073px; line-height: normal; font-family: sans-serif; pointer-events: none;">HIR1</text></g></svg>