<svg width="835" height="700" title="svg_title" version="1.1" xmlns="http://www.w3.org/2000/svg"><g class="link"><path d="M462.7633318499225,114.44507000951536A373.40304668713696,373.40304668713696 0,0,1 207.48196142280602,386.9542573557212" style="fill: none; stroke-width: 15; stroke: rgb(143, 0, 0); stroke-opacity: 0.4;"></path><path d="M462.7633318499225,114.44507000951536A274.79753750174075,274.79753750174075 0,0,1 280.70177073892785,320.27819315262894" style="fill: none; stroke-width: 13.6667; stroke: rgb(143, 0, 0); stroke-opacity: 0.4;"></path><path d="M575.400238961666,566.7264342703824A30,20 -45,1,1 576.400238961666,567.7264342703824" style="fill: none; stroke-width: 9; stroke: rgb(143, 0, 0); stroke-opacity: 0.4;"></path><path d="M656.3212211774115,471.1495178876818A327.7018288330797,327.7018288330797 0,0,1 577.9617505059474,152.9541659784608" style="fill: none; stroke-width: 7; stroke: rgb(143, 0, 0); stroke-opacity: 0.4;"></path><path d="M207.48196142280602,386.9542573557212A99.02948052930563,99.02948052930563 0,0,1 280.70177073892785,320.27819315262894" style="fill: none; stroke-width: 5.66667; stroke: rgb(143, 0, 0); stroke-opacity: 0.4;"></path><path d="M360.84041373681475,602.9444670597907A499.6328111200075,499.6328111200075 0,0,1 577.9617505059474,152.9541659784608" style="fill: none; stroke-width: 5; stroke: rgb(143, 0, 0); stroke-opacity: 0.4;"></path><path d="M462.7633318499225,114.44507000951536A213.87872675378196,213.87872675378196 0,0,1 383.3942454026522,313.0518621248523" style="fill: none; stroke-width: 4.33333; stroke: rgb(143, 0, 0); stroke-opacity: 0.4;"></path><path d="M462.7633318499225,114.44507000951536A309.2741157766266,309.2741157766266 0,0,1 439.1497892731677,422.81640346382665" style="fill: none; stroke-width: 3; stroke: rgb(143, 0, 0); stroke-opacity: 0.4;"></path><path d="M597.2227283409088,373.3634847414771A30,20 -45,1,1 598.2227283409088,374.3634847414771" style="fill: none; stroke-width: 3; stroke: rgb(143, 0, 0); stroke-opacity: 0.4;"></path><path d="M656.3212211774115,471.1495178876818A30,20 -45,1,1 657.3212211774115,472.1495178876818" style="fill: none; stroke-width: 3; stroke: rgb(143, 0, 0); stroke-opacity: 0.4;"></path><path d="M656.3212211774115,471.1495178876818A323.54105797104916,323.54105797104916 0,0,1 360.84041373681475,602.9444670597907" style="fill: none; stroke-width: 3; stroke: rgb(143, 0, 0); stroke-opacity: 0.4;"></path><path d="M404.10533886127985,206.029054365858A168.17046809367815,168.17046809367815 0,0,1 280.70177073892785,320.27819315262894" style="fill: none; stroke-width: 3; stroke: rgb(143, 0, 0); stroke-opacity: 0.4;"></path><path d="M439.1497892731677,422.81640346382665A188.73224194940892,188.73224194940892 0,0,1 280.70177073892785,320.27819315262894" style="fill: none; stroke-width: 3; stroke: rgb(143, 0, 0); stroke-opacity: 0.4;"></path><path d="M404.10533886127985,206.029054365858A108.75838511139482,108.75838511139482 0,0,1 462.7633318499225,114.44507000951536" style="fill: none; stroke-width: 2.33333; stroke: rgb(143, 0, 0); stroke-opacity: 0.4;"></path><path d="M462.7633318499225,114.44507000951536A291.75002106603597,291.75002106603597 0,0,1 597.2227283409088,373.3634847414771" style="fill: none; stroke-width: 2.33333; stroke: rgb(143, 0, 0); stroke-opacity: 0.4;"></path><path d="M207.48196142280602,386.9542573557212A299.5263870835987,299.5263870835987 0,0,1 463.5973341854142,542.2635371622546" style="fill: none; stroke-width: 2.33333; stroke: rgb(143, 0, 0); stroke-opacity: 0.4;"></path><path d="M275.07668346803905,513.5704642931893A470.9389328190817,470.9389328190817 0,0,1 577.9617505059474,152.9541659784608" style="fill: none; stroke-width: 2.33333; stroke: rgb(143, 0, 0); stroke-opacity: 0.4;"></path><path d="M439.1497892731677,422.81640346382665A341.89020768324883,341.89020768324883 0,0,1 224.58338830287713,156.63944412220465" style="fill: none; stroke-width: 2.33333; stroke: rgb(143, 0, 0); stroke-opacity: 0.4;"></path><path d="M207.48196142280602,386.9542573557212A230.9488514717578,230.9488514717578 0,0,1 224.58338830287713,156.63944412220465" style="fill: none; stroke-width: 2.33333; stroke: rgb(143, 0, 0); stroke-opacity: 0.4;"></path><path d="M336.1554673454707,125.97130947189598A30,20 -45,1,1 337.1554673454707,126.97130947189598" style="fill: none; stroke-width: 2.33333; stroke: rgb(143, 0, 0); stroke-opacity: 0.4;"></path><path d="M224.58338830287713,156.63944412220465A30,20 -45,1,1 225.58338830287713,157.63944412220465" style="fill: none; stroke-width: 2.33333; stroke: rgb(143, 0, 0); stroke-opacity: 0.4;"></path><path d="M224.58338830287713,156.63944412220465A117.09360084726472,117.09360084726472 0,0,1 194.3300334379894,269.7572847964225" style="fill: none; stroke-width: 2.33333; stroke: rgb(143, 0, 0); stroke-opacity: 0.4;"></path><path d="M224.58338830287713,156.63944412220465A497.98590055828714,497.98590055828714 0,0,1 694.6030970199154,321.1734241153926" style="fill: none; stroke-width: 2.33333; stroke: rgb(143, 0, 0); stroke-opacity: 0.4;"></path><path d="M224.58338830287713,156.63944412220465A320.3703953102938,320.3703953102938 0,0,1 499.89820031544747,320.4654020097049" style="fill: none; stroke-width: 2.33333; stroke: rgb(143, 0, 0); stroke-opacity: 0.4;"></path><path marker-end="url(#blue_arrow)" style="fill: none; stroke-width: 2.33333; stroke: blue; stroke-opacity: 0.4;" d="M369.1428044061715,500.9983318691412A103.07509574917036,103.07509574917036 0,0,1 463.5973341854142,542.2635371622546"></path><path d="M577.9617505059474,152.9541659784608A30,20 -45,1,1 578.9617505059474,153.9541659784608" style="fill: none; stroke-width: 2.33333; stroke: rgb(143, 0, 0); stroke-opacity: 0.4;"></path><path d="M500.66583960262585,216.02645156609694A30,20 -45,1,1 501.66583960262585,217.02645156609694" style="fill: none; stroke-width: 2.33333; stroke: rgb(143, 0, 0); stroke-opacity: 0.4;"></path><path d="M207.48196142280602,386.9542573557212A290.9793295279949,290.9793295279949 0,0,1 336.1554673454707,125.97130947189598" style="fill: none; stroke-width: 2.33333; stroke: rgb(143, 0, 0); stroke-opacity: 0.4;"></path><path d="M167.36115406046258,493.78537853245234A300.1766251378662,300.1766251378662 0,0,1 463.5973341854142,542.2635371622546" style="fill: none; stroke-width: 1.66667; stroke: rgb(143, 0, 0); stroke-opacity: 0.4;"></path><path d="M404.10533886127985,206.029054365858A30,20 -45,1,1 405.10533886127985,207.029054365858" style="fill: none; stroke-width: 1.66667; stroke: rgb(143, 0, 0); stroke-opacity: 0.4;"></path><path d="M404.10533886127985,206.029054365858A294.9700140663452,294.9700140663452 0,0,1 544.5290876061046,465.4292856432226" style="fill: none; stroke-width: 1.66667; stroke: rgb(143, 0, 0); stroke-opacity: 0.4;"></path><path d="M404.10533886127985,206.029054365858A186.1920093138091,186.1920093138091 0,0,1 224.58338830287713,156.63944412220465" style="fill: none; stroke-width: 1.66667; stroke: rgb(143, 0, 0); stroke-opacity: 0.4;"></path><path d="M404.10533886127985,206.029054365858A200.74669644874336,200.74669644874336 0,0,1 597.183359769275,260.98461802719913" style="fill: none; stroke-width: 1.66667; stroke: rgb(143, 0, 0); stroke-opacity: 0.4;"></path><path d="M404.10533886127985,206.029054365858A341.4570616183053,341.4570616183053 0,0,1 463.5973341854142,542.2635371622546" style="fill: none; stroke-width: 1.66667; stroke: rgb(143, 0, 0); stroke-opacity: 0.4;"></path><path d="M404.10533886127985,206.029054365858A109.00839771719724,109.00839771719724 0,0,1 383.3942454026522,313.0518621248523" style="fill: none; stroke-width: 1.66667; stroke: rgb(143, 0, 0); stroke-opacity: 0.4;"></path><path d="M462.7633318499225,114.44507000951536A405.8358284540438,405.8358284540438 0,0,1 656.3212211774115,471.1495178876818" style="fill: none; stroke-width: 1.66667; stroke: rgb(143, 0, 0); stroke-opacity: 0.4;"></path><path d="M462.7633318499225,114.44507000951536A427.81928006672985,427.81928006672985 0,0,1 463.5973341854142,542.2635371622546" style="fill: none; stroke-width: 1.66667; stroke: rgb(143, 0, 0); stroke-opacity: 0.4;"></path><path d="M439.1497892731677,422.81640346382665A234.42712297083696,234.42712297083696 0,0,1 207.48196142280602,386.9542573557212" style="fill: none; stroke-width: 1.66667; stroke: rgb(143, 0, 0); stroke-opacity: 0.4;"></path><path d="M439.1497892731677,422.81640346382665A121.92333739283234,121.92333739283234 0,0,1 463.5973341854142,542.2635371622546" style="fill: none; stroke-width: 1.66667; stroke: rgb(143, 0, 0); stroke-opacity: 0.4;"></path><path d="M439.1497892731677,422.81640346382665A215.74593542869306,215.74593542869306 0,0,1 500.66583960262585,216.02645156609694" style="fill: none; stroke-width: 1.66667; stroke: rgb(143, 0, 0); stroke-opacity: 0.4;"></path><path d="M306.94744123813797,230.15041883048298A349.21882480069075,349.21882480069075 0,0,1 463.5973341854142,542.2635371622546" style="fill: none; stroke-width: 1.66667; stroke: rgb(143, 0, 0); stroke-opacity: 0.4;"></path><path d="M597.2227283409088,373.3634847414771A431.0793285769151,431.0793285769151 0,0,1 224.58338830287713,156.63944412220465" style="fill: none; stroke-width: 1.66667; stroke: rgb(143, 0, 0); stroke-opacity: 0.4;"></path><path marker-end="url(#blue_arrow)" style="fill: none; stroke-width: 1.66667; stroke: blue; stroke-opacity: 0.4;" d="M336.1554673454707,125.97130947189598A314.2050925373811,314.2050925373811 0,0,1 439.1497892731677,422.81640346382665"></path><path d="M336.1554673454707,125.97130947189598A115.71025583247238,115.71025583247238 0,0,1 224.58338830287713,156.63944412220465" style="fill: none; stroke-width: 1.66667; stroke: rgb(143, 0, 0); stroke-opacity: 0.4;"></path><path d="M336.1554673454707,125.97130947189598A293.87778771159725,293.87778771159725 0,0,1 597.183359769275,260.98461802719913" style="fill: none; stroke-width: 1.66667; stroke: rgb(143, 0, 0); stroke-opacity: 0.4;"></path><path d="M336.1554673454707,125.97130947189598A435.36266291340513,435.36266291340513 0,0,1 463.5973341854142,542.2635371622546" style="fill: none; stroke-width: 1.66667; stroke: rgb(143, 0, 0); stroke-opacity: 0.4;"></path><path marker-end="url(#blue_arrow)" style="fill: none; stroke-width: 1.66667; stroke: blue; stroke-opacity: 0.4;" d="M318.9829338193404,413.19798707055645A171.70757630309302,171.70757630309302 0,0,1 167.36115406046258,493.78537853245234"></path><path marker-end="url(#blue_arrow)" style="fill: none; stroke-width: 1.66667; stroke: blue; stroke-opacity: 0.4;" d="M318.9829338193404,413.19798707055645A331.5510644083561,331.5510644083561 0,0,1 462.7633318499225,114.44507000951536"></path><path marker-end="url(#blue_arrow)" style="fill: none; stroke-width: 1.66667; stroke: blue; stroke-opacity: 0.4;" d="M318.9829338193404,413.19798707055645A120.55118034915853,120.55118034915853 0,0,1 439.1497892731677,422.81640346382665"></path><path marker-end="url(#blue_arrow)" style="fill: none; stroke-width: 1.66667; stroke: blue; stroke-opacity: 0.4;" d="M318.9829338193404,413.19798707055645A30,20 -45,1,1 319.9829338193404,414.19798707055645"></path><path marker-end="url(#blue_arrow)" style="fill: none; stroke-width: 1.66667; stroke: blue; stroke-opacity: 0.4;" d="M318.9829338193404,413.19798707055645A273.37439557042666,273.37439557042666 0,0,1 224.58338830287713,156.63944412220465"></path><path marker-end="url(#blue_arrow)" style="fill: none; stroke-width: 1.66667; stroke: blue; stroke-opacity: 0.4;" d="M318.9829338193404,413.19798707055645A342.27985631895547,342.27985631895547 0,0,1 656.3212211774115,471.1495178876818"></path><path d="M318.9829338193404,413.19798707055645A317.1188841968486,317.1188841968486 0,0,1 597.183359769275,260.98461802719913" style="fill: none; stroke-width: 1.66667; stroke: rgb(143, 0, 0); stroke-opacity: 0.4;"></path><path d="M318.9829338193404,413.19798707055645A193.83302353755852,193.83302353755852 0,0,1 463.5973341854142,542.2635371622546" style="fill: none; stroke-width: 1.66667; stroke: rgb(143, 0, 0); stroke-opacity: 0.4;"></path><path marker-end="url(#blue_arrow)" style="fill: none; stroke-width: 1.66667; stroke: blue; stroke-opacity: 0.4;" d="M318.9829338193404,413.19798707055645A193.83302353755852,193.83302353755852 0,0,1 463.5973341854142,542.2635371622546"></path><path marker-end="url(#blue_arrow)" style="fill: none; stroke-width: 1.66667; stroke: blue; stroke-opacity: 0.4;" d="M318.9829338193404,413.19798707055645A367.1469377633564,367.1469377633564 0,0,1 577.9617505059474,152.9541659784608"></path><path d="M544.5290876061046,465.4292856432226A30,20 -45,1,1 545.5290876061046,466.4292856432226" style="fill: none; stroke-width: 1.66667; stroke: rgb(143, 0, 0); stroke-opacity: 0.4;"></path><path d="M544.5290876061046,465.4292856432226A111.59503088505909,111.59503088505909 0,0,1 463.5973341854142,542.2635371622546" style="fill: none; stroke-width: 1.66667; stroke: rgb(143, 0, 0); stroke-opacity: 0.4;"></path><path d="M224.58338830287713,156.63944412220465A534.148053291562,534.148053291562 0,0,1 656.3212211774115,471.1495178876818" style="fill: none; stroke-width: 1.66667; stroke: rgb(143, 0, 0); stroke-opacity: 0.4;"></path><path d="M224.58338830287713,156.63944412220465A386.93494809079215,386.93494809079215 0,0,1 597.183359769275,260.98461802719913" style="fill: none; stroke-width: 1.66667; stroke: rgb(143, 0, 0); stroke-opacity: 0.4;"></path><path d="M224.58338830287713,156.63944412220465A466.6413510174853,466.6413510174853 0,0,1 360.84041373681475,602.9444670597907" style="fill: none; stroke-width: 1.66667; stroke: rgb(143, 0, 0); stroke-opacity: 0.4;"></path><path d="M224.58338830287713,156.63944412220465A453.6888884018446,453.6888884018446 0,0,1 463.5973341854142,542.2635371622546" style="fill: none; stroke-width: 1.66667; stroke: rgb(143, 0, 0); stroke-opacity: 0.4;"></path><path d="M575.400238961666,566.7264342703824A114.44790453009821,114.44790453009821 0,0,1 463.5973341854142,542.2635371622546" style="fill: none; stroke-width: 1.66667; stroke: rgb(143, 0, 0); stroke-opacity: 0.4;"></path><path d="M194.3300334379894,269.7572847964225A30,20 -45,1,1 195.3300334379894,270.7572847964225" style="fill: none; stroke-width: 1.66667; stroke: rgb(143, 0, 0); stroke-opacity: 0.4;"></path><path marker-end="url(#blue_arrow)" style="fill: none; stroke-width: 1.66667; stroke: blue; stroke-opacity: 0.4;" d="M369.1428044061715,500.9983318691412A201.91052749194424,201.91052749194424 0,0,1 167.36115406046258,493.78537853245234"></path><path marker-end="url(#blue_arrow)" style="fill: none; stroke-width: 1.66667; stroke: blue; stroke-opacity: 0.4;" d="M369.1428044061715,500.9983318691412A397.7288365371093,397.7288365371093 0,0,1 462.7633318499225,114.44507000951536"></path><path marker-end="url(#blue_arrow)" style="fill: none; stroke-width: 1.66667; stroke: blue; stroke-opacity: 0.4;" d="M369.1428044061715,500.9983318691412A104.94470858190789,104.94470858190789 0,0,1 439.1497892731677,422.81640346382665"></path><path marker-end="url(#blue_arrow)" style="fill: none; stroke-width: 1.66667; stroke: blue; stroke-opacity: 0.4;" d="M369.1428044061715,500.9983318691412A261.36393382289333,261.36393382289333 0,0,1 597.2227283409088,373.3634847414771"></path><path marker-end="url(#blue_arrow)" style="fill: none; stroke-width: 1.66667; stroke: blue; stroke-opacity: 0.4;" d="M369.1428044061715,500.9983318691412A30,20 -45,1,1 370.1428044061715,501.9983318691412"></path><path d="M369.1428044061715,500.9983318691412A103.07509574917036,103.07509574917036 0,0,1 463.5973341854142,542.2635371622546" style="fill: none; stroke-width: 1.66667; stroke: rgb(143, 0, 0); stroke-opacity: 0.4;"></path><path marker-end="url(#blue_arrow)" style="fill: none; stroke-width: 1.66667; stroke: blue; stroke-opacity: 0.4;" d="M369.1428044061715,500.9983318691412A222.91054780566947,222.91054780566947 0,0,1 499.89820031544747,320.4654020097049"></path><path d="M656.3212211774115,471.1495178876818A218.32675462548028,218.32675462548028 0,0,1 597.183359769275,260.98461802719913" style="fill: none; stroke-width: 1.66667; stroke: rgb(143, 0, 0); stroke-opacity: 0.4;"></path><path d="M656.3212211774115,471.1495178876818A217.1954516869771,217.1954516869771 0,0,1 499.89820031544747,320.4654020097049" style="fill: none; stroke-width: 1.66667; stroke: rgb(143, 0, 0); stroke-opacity: 0.4;"></path><path marker-end="url(#blue_arrow)" style="fill: none; stroke-width: 1.66667; stroke: blue; stroke-opacity: 0.4;" d="M275.07668346803905,513.5704642931893A190.6917097767285,190.6917097767285 0,0,1 463.5973341854142,542.2635371622546"></path><path d="M275.07668346803905,513.5704642931893A296.3684860390489,296.3684860390489 0,0,1 499.89820031544747,320.4654020097049" style="fill: none; stroke-width: 1.66667; stroke: rgb(143, 0, 0); stroke-opacity: 0.4;"></path><path marker-end="url(#blue_arrow)" style="fill: none; stroke-width: 1.66667; stroke: blue; stroke-opacity: 0.4;" d="M275.07668346803905,513.5704642931893A296.3684860390489,296.3684860390489 0,0,1 499.89820031544747,320.4654020097049"></path><path marker-end="url(#blue_arrow)" style="fill: none; stroke-width: 1.66667; stroke: blue; stroke-opacity: 0.4;" d="M597.183359769275,260.98461802719913A226.19490750535198,226.19490750535198 0,0,1 439.1497892731677,422.81640346382665"></path><path marker-end="url(#blue_arrow)" style="fill: none; stroke-width: 1.66667; stroke: blue; stroke-opacity: 0.4;" d="M597.183359769275,260.98461802719913A291.86921085601944,291.86921085601944 0,0,1 306.94744123813797,230.15041883048298"></path><path marker-end="url(#blue_arrow)" style="fill: none; stroke-width: 1.66667; stroke: blue; stroke-opacity: 0.4;" d="M597.183359769275,260.98461802719913A293.87778771159725,293.87778771159725 0,0,1 336.1554673454707,125.97130947189598"></path><path marker-end="url(#blue_arrow)" style="fill: none; stroke-width: 1.66667; stroke: blue; stroke-opacity: 0.4;" d="M597.183359769275,260.98461802719913A30,20 -45,1,1 598.183359769275,261.98461802719913"></path><path d="M597.183359769275,260.98461802719913A415.685610154712,415.685610154712 0,0,1 360.84041373681475,602.9444670597907" style="fill: none; stroke-width: 1.66667; stroke: rgb(143, 0, 0); stroke-opacity: 0.4;"></path><path d="M597.183359769275,260.98461802719913A220.0381406247324,220.0381406247324 0,0,1 383.3942454026522,313.0518621248523" style="fill: none; stroke-width: 1.66667; stroke: rgb(143, 0, 0); stroke-opacity: 0.4;"></path><path d="M597.183359769275,260.98461802719913A109.72715631295105,109.72715631295105 0,0,1 577.9617505059474,152.9541659784608" style="fill: none; stroke-width: 1.66667; stroke: rgb(143, 0, 0); stroke-opacity: 0.4;"></path><path d="M597.183359769275,260.98461802719913A114.02791725332071,114.02791725332071 0,0,1 499.89820031544747,320.4654020097049" style="fill: none; stroke-width: 1.66667; stroke: rgb(143, 0, 0); stroke-opacity: 0.4;"></path><path marker-end="url(#blue_arrow)" style="fill: none; stroke-width: 1.66667; stroke: blue; stroke-opacity: 0.4;" d="M360.84041373681475,602.9444670597907A196.41404631982206,196.41404631982206 0,0,1 439.1497892731677,422.81640346382665"></path><path marker-end="url(#blue_arrow)" style="fill: none; stroke-width: 1.66667; stroke: blue; stroke-opacity: 0.4;" d="M360.84041373681475,602.9444670597907A194.30845399350648,194.30845399350648 0,0,1 318.9829338193404,413.19798707055645"></path><path marker-end="url(#blue_arrow)" style="fill: none; stroke-width: 1.66667; stroke: blue; stroke-opacity: 0.4;" d="M360.84041373681475,602.9444670597907A217.59518491835559,217.59518491835559 0,0,1 575.400238961666,566.7264342703824"></path><path marker-end="url(#blue_arrow)" style="fill: none; stroke-width: 1.66667; stroke: blue; stroke-opacity: 0.4;" d="M360.84041373681475,602.9444670597907A372.47738880616953,372.47738880616953 0,0,1 194.3300334379894,269.7572847964225"></path><path d="M360.84041373681475,602.9444670597907A314.85153675934174,314.85153675934174 0,0,1 499.89820031544747,320.4654020097049" style="fill: none; stroke-width: 1.66667; stroke: rgb(143, 0, 0); stroke-opacity: 0.4;"></path><path marker-end="url(#blue_arrow)" style="fill: none; stroke-width: 1.66667; stroke: blue; stroke-opacity: 0.4;" d="M360.84041373681475,602.9444670597907A314.85153675934174,314.85153675934174 0,0,1 499.89820031544747,320.4654020097049"></path><path d="M463.5973341854142,542.2635371622546A30,20 -45,1,1 464.5973341854142,543.2635371622546" style="fill: none; stroke-width: 1.66667; stroke: rgb(143, 0, 0); stroke-opacity: 0.4;"></path><path d="M463.5973341854142,542.2635371622546A319.75693979931697,319.75693979931697 0,0,1 694.6030970199154,321.1734241153926" style="fill: none; stroke-width: 1.66667; stroke: rgb(143, 0, 0); stroke-opacity: 0.4;"></path><path d="M463.5973341854142,542.2635371622546A224.74911710380374,224.74911710380374 0,0,1 499.89820031544747,320.4654020097049" style="fill: none; stroke-width: 1.66667; stroke: rgb(143, 0, 0); stroke-opacity: 0.4;"></path><path d="M383.3942454026522,313.0518621248523A251.96782801283007,251.96782801283007 0,0,1 577.9617505059474,152.9541659784608" style="fill: none; stroke-width: 1.66667; stroke: rgb(143, 0, 0); stroke-opacity: 0.4;"></path><path d="M694.6030970199154,321.1734241153926A30,20 -45,1,1 695.6030970199154,322.1734241153926" style="fill: none; stroke-width: 1.66667; stroke: rgb(143, 0, 0); stroke-opacity: 0.4;"></path><path marker-end="url(#blue_arrow)" style="fill: none; stroke-width: 1.66667; stroke: blue; stroke-opacity: 0.4;" d="M499.89820031544747,320.4654020097049A119.02141379946471,119.02141379946471 0,0,1 439.1497892731677,422.81640346382665"></path><path marker-end="url(#blue_arrow)" style="fill: none; stroke-width: 1.66667; stroke: blue; stroke-opacity: 0.4;" d="M499.89820031544747,320.4654020097049A203.2969896073857,203.2969896073857 0,0,1 318.9829338193404,413.19798707055645"></path><path marker-end="url(#blue_arrow)" style="fill: none; stroke-width: 1.66667; stroke: blue; stroke-opacity: 0.4;" d="M499.89820031544747,320.4654020097049A257.5753362607326,257.5753362607326 0,0,1 575.400238961666,566.7264342703824"></path><path marker-end="url(#blue_arrow)" style="fill: none; stroke-width: 1.66667; stroke: blue; stroke-opacity: 0.4;" d="M499.89820031544747,320.4654020097049A219.1965095211379,219.1965095211379 0,0,1 280.70177073892785,320.27819315262894"></path><path d="M404.10533886127985,206.029054365858A168.17046809367815,168.17046809367815 0,0,1 280.70177073892785,320.27819315262894" style="fill: none; stroke-width: 10.3333; stroke: grey; stroke-opacity: 0.4;"></path><path d="M439.1497892731677,422.81640346382665A234.42712297083696,234.42712297083696 0,0,1 207.48196142280602,386.9542573557212" style="fill: none; stroke-width: 6.33333; stroke: grey; stroke-opacity: 0.4;"></path><path d="M462.7633318499225,114.44507000951536A373.40304668713696,373.40304668713696 0,0,1 207.48196142280602,386.9542573557212" style="fill: none; stroke-width: 6.33333; stroke: grey; stroke-opacity: 0.4;"></path><path d="M306.94744123813797,230.15041883048298A424.43209569427887,424.43209569427887 0,0,1 656.3212211774115,471.1495178876818" style="fill: none; stroke-width: 5.66667; stroke: grey; stroke-opacity: 0.4;"></path><path d="M207.48196142280602,386.9542573557212A99.02948052930563,99.02948052930563 0,0,1 280.70177073892785,320.27819315262894" style="fill: none; stroke-width: 5; stroke: grey; stroke-opacity: 0.4;"></path><path d="M404.10533886127985,206.029054365858A267.1978323868585,267.1978323868585 0,0,1 207.48196142280602,386.9542573557212" style="fill: none; stroke-width: 5; stroke: grey; stroke-opacity: 0.4;"></path><path d="M207.48196142280602,386.9542573557212A185.69013288579228,185.69013288579228 0,0,1 306.94744123813797,230.15041883048298" style="fill: none; stroke-width: 5; stroke: grey; stroke-opacity: 0.4;"></path><path d="M597.2227283409088,373.3634847414771A106.07889266752584,106.07889266752584 0,0,1 544.5290876061046,465.4292856432226" style="fill: none; stroke-width: 4.33333; stroke: grey; stroke-opacity: 0.4;"></path><path d="M597.2227283409088,373.3634847414771A222.17135715102089,222.17135715102089 0,0,1 383.3942454026522,313.0518621248523" style="fill: none; stroke-width: 4.33333; stroke: grey; stroke-opacity: 0.4;"></path><path d="M575.400238961666,566.7264342703824A257.5753362607326,257.5753362607326 0,0,1 499.89820031544747,320.4654020097049" style="fill: none; stroke-width: 4.33333; stroke: grey; stroke-opacity: 0.4;"></path><path d="M207.48196142280602,386.9542573557212A389.9776589731302,389.9776589731302 0,0,1 597.2227283409088,373.3634847414771" style="fill: none; stroke-width: 4.33333; stroke: grey; stroke-opacity: 0.4;"></path><path d="M462.7633318499225,114.44507000951536A291.75002106603597,291.75002106603597 0,0,1 597.2227283409088,373.3634847414771" style="fill: none; stroke-width: 3.66667; stroke: grey; stroke-opacity: 0.4;"></path><path d="M275.07668346803905,513.5704642931893A227.90437476933732,227.90437476933732 0,0,1 383.3942454026522,313.0518621248523" style="fill: none; stroke-width: 3.66667; stroke: grey; stroke-opacity: 0.4;"></path><path d="M167.36115406046258,493.78537853245234A207.24584137560686,207.24584137560686 0,0,1 280.70177073892785,320.27819315262894" style="fill: none; stroke-width: 3; stroke: grey; stroke-opacity: 0.4;"></path><path d="M462.7633318499225,114.44507000951536A274.79753750174075,274.79753750174075 0,0,1 280.70177073892785,320.27819315262894" style="fill: none; stroke-width: 3; stroke: grey; stroke-opacity: 0.4;"></path><path d="M167.36115406046258,493.78537853245234A554.7782919539444,554.7782919539444 0,0,1 694.6030970199154,321.1734241153926" style="fill: none; stroke-width: 3; stroke: grey; stroke-opacity: 0.4;"></path><path d="M306.94744123813797,230.15041883048298A430.52330805078236,430.52330805078236 0,0,1 575.400238961666,566.7264342703824" style="fill: none; stroke-width: 3; stroke: grey; stroke-opacity: 0.4;"></path><path d="M597.2227283409088,373.3634847414771A114.2573417072916,114.2573417072916 0,0,1 656.3212211774115,471.1495178876818" style="fill: none; stroke-width: 3; stroke: grey; stroke-opacity: 0.4;"></path><path d="M194.3300334379894,269.7572847964225A503.9788577890605,503.9788577890605 0,0,1 656.3212211774115,471.1495178876818" style="fill: none; stroke-width: 3; stroke: grey; stroke-opacity: 0.4;"></path><path d="M167.36115406046258,493.78537853245234A298.30810170879954,298.30810170879954 0,0,1 306.94744123813797,230.15041883048298" style="fill: none; stroke-width: 2.33333; stroke: grey; stroke-opacity: 0.4;"></path><path d="M167.36115406046258,493.78537853245234A281.66451765871943,281.66451765871943 0,0,1 383.3942454026522,313.0518621248523" style="fill: none; stroke-width: 2.33333; stroke: grey; stroke-opacity: 0.4;"></path><path d="M306.94744123813797,230.15041883048298A323.68151715880043,323.68151715880043 0,0,1 597.2227283409088,373.3634847414771" style="fill: none; stroke-width: 2.33333; stroke: grey; stroke-opacity: 0.4;"></path><path d="M306.94744123813797,230.15041883048298A112.76862669757541,112.76862669757541 0,0,1 383.3942454026522,313.0518621248523" style="fill: none; stroke-width: 2.33333; stroke: grey; stroke-opacity: 0.4;"></path><path d="M336.1554673454707,125.97130947189598A187.5462374930366,187.5462374930366 0,0,1 500.66583960262585,216.02645156609694" style="fill: none; stroke-width: 2.33333; stroke: grey; stroke-opacity: 0.4;"></path><path d="M575.400238961666,566.7264342703824A318.1463344371608,318.1463344371608 0,0,1 383.3942454026522,313.0518621248523" style="fill: none; stroke-width: 2.33333; stroke: grey; stroke-opacity: 0.4;"></path><path d="M575.400238961666,566.7264342703824A272.9571434592464,272.9571434592464 0,0,1 694.6030970199154,321.1734241153926" style="fill: none; stroke-width: 2.33333; stroke: grey; stroke-opacity: 0.4;"></path><path d="M194.3300334379894,269.7572847964225A256.83630582025967,256.83630582025967 0,0,1 275.07668346803905,513.5704642931893" style="fill: none; stroke-width: 2.33333; stroke: grey; stroke-opacity: 0.4;"></path><path d="M194.3300334379894,269.7572847964225A309.7470221974152,309.7470221974152 0,0,1 499.89820031544747,320.4654020097049" style="fill: none; stroke-width: 2.33333; stroke: grey; stroke-opacity: 0.4;"></path><path d="M280.70177073892785,320.27819315262894A413.9022944314723,413.9022944314723 0,0,1 694.6030970199154,321.1734241153926" style="fill: none; stroke-width: 2.33333; stroke: grey; stroke-opacity: 0.4;"></path><path d="M360.84041373681475,602.9444670597907A290.76863262528025,290.76863262528025 0,0,1 383.3942454026522,313.0518621248523" style="fill: none; stroke-width: 2.33333; stroke: grey; stroke-opacity: 0.4;"></path><path d="M167.36115406046258,493.78537853245234A433.86868395156324,433.86868395156324 0,0,1 500.66583960262585,216.02645156609694" style="fill: none; stroke-width: 2.33333; stroke: grey; stroke-opacity: 0.4;"></path><path d="M462.7633318499225,114.44507000951536A309.2741157766266,309.2741157766266 0,0,1 439.1497892731677,422.81640346382665" style="fill: none; stroke-width: 2.33333; stroke: grey; stroke-opacity: 0.4;"></path><path d="M597.2227283409088,373.3634847414771A416.00092340425346,416.00092340425346 0,0,1 194.3300334379894,269.7572847964225" style="fill: none; stroke-width: 2.33333; stroke: grey; stroke-opacity: 0.4;"></path><path d="M597.2227283409088,373.3634847414771A351.33469988352596,351.33469988352596 0,0,1 275.07668346803905,513.5704642931893" style="fill: none; stroke-width: 2.33333; stroke: grey; stroke-opacity: 0.4;"></path><path d="M318.9829338193404,413.19798707055645A342.27985631895547,342.27985631895547 0,0,1 656.3212211774115,471.1495178876818" style="fill: none; stroke-width: 2.33333; stroke: grey; stroke-opacity: 0.4;"></path><path d="M194.3300334379894,269.7572847964225A502.90829932316035,502.90829932316035 0,0,1 694.6030970199154,321.1734241153926" style="fill: none; stroke-width: 2.33333; stroke: grey; stroke-opacity: 0.4;"></path><path d="M656.3212211774115,471.1495178876818A383.5973595153805,383.5973595153805 0,0,1 275.07668346803905,513.5704642931893" style="fill: none; stroke-width: 2.33333; stroke: grey; stroke-opacity: 0.4;"></path><path d="M656.3212211774115,471.1495178876818A323.54105797104916,323.54105797104916 0,0,1 360.84041373681475,602.9444670597907" style="fill: none; stroke-width: 2.33333; stroke: grey; stroke-opacity: 0.4;"></path><path d="M656.3212211774115,471.1495178876818A298.8584561000741,298.8584561000741 0,0,1 500.66583960262585,216.02645156609694" style="fill: none; stroke-width: 2.33333; stroke: grey; stroke-opacity: 0.4;"></path><path d="M275.07668346803905,513.5704642931893A123.86738796043043,123.86738796043043 0,0,1 360.84041373681475,602.9444670597907" style="fill: none; stroke-width: 2.33333; stroke: grey; stroke-opacity: 0.4;"></path><path d="M360.84041373681475,602.9444670597907A411.4081919847169,411.4081919847169 0,0,1 500.66583960262585,216.02645156609694" style="fill: none; stroke-width: 2.33333; stroke: grey; stroke-opacity: 0.4;"></path><path d="M383.3942454026522,313.0518621248523A152.2056408294329,152.2056408294329 0,0,1 500.66583960262585,216.02645156609694" style="fill: none; stroke-width: 2.33333; stroke: grey; stroke-opacity: 0.4;"></path><path d="M500.66583960262585,216.02645156609694A220.60722030528004,220.60722030528004 0,0,1 694.6030970199154,321.1734241153926" style="fill: none; stroke-width: 2.33333; stroke: grey; stroke-opacity: 0.4;"></path><path d="M167.36115406046258,493.78537853245234A489.48373764829074,489.48373764829074 0,0,1 656.3212211774115,471.1495178876818" style="fill: none; stroke-width: 2.33333; stroke: grey; stroke-opacity: 0.4;"></path><path d="M544.5290876061046,465.4292856432226A208.16330581222294,208.16330581222294 0,0,1 694.6030970199154,321.1734241153926" style="fill: none; stroke-width: 2.33333; stroke: grey; stroke-opacity: 0.4;"></path><path d="M167.36115406046258,493.78537853245234A480.792591782603,480.792591782603 0,0,1 462.7633318499225,114.44507000951536" style="fill: none; stroke-width: 1.66667; stroke: grey; stroke-opacity: 0.4;"></path><path d="M167.36115406046258,493.78537853245234A280.90150881238804,280.90150881238804 0,0,1 439.1497892731677,422.81640346382665" style="fill: none; stroke-width: 1.66667; stroke: grey; stroke-opacity: 0.4;"></path><path d="M167.36115406046258,493.78537853245234A404.69582354682285,404.69582354682285 0,0,1 336.1554673454707,125.97130947189598" style="fill: none; stroke-width: 1.66667; stroke: grey; stroke-opacity: 0.4;"></path><path d="M167.36115406046258,493.78537853245234A109.51750953210261,109.51750953210261 0,0,1 275.07668346803905,513.5704642931893" style="fill: none; stroke-width: 1.66667; stroke: grey; stroke-opacity: 0.4;"></path><path d="M167.36115406046258,493.78537853245234A488.81829201883687,488.81829201883687 0,0,1 597.183359769275,260.98461802719913" style="fill: none; stroke-width: 1.66667; stroke: grey; stroke-opacity: 0.4;"></path><path d="M167.36115406046258,493.78537853245234A222.1484425626896,222.1484425626896 0,0,1 360.84041373681475,602.9444670597907" style="fill: none; stroke-width: 1.66667; stroke: grey; stroke-opacity: 0.4;"></path><path d="M404.10533886127985,206.029054365858A108.75838511139482,108.75838511139482 0,0,1 462.7633318499225,114.44507000951536" style="fill: none; stroke-width: 1.66667; stroke: grey; stroke-opacity: 0.4;"></path><path d="M404.10533886127985,206.029054365858A219.6016125478039,219.6016125478039 0,0,1 439.1497892731677,422.81640346382665" style="fill: none; stroke-width: 1.66667; stroke: grey; stroke-opacity: 0.4;"></path><path d="M462.7633318499225,114.44507000951536A127.13144988759379,127.13144988759379 0,0,1 336.1554673454707,125.97130947189598" style="fill: none; stroke-width: 1.66667; stroke: grey; stroke-opacity: 0.4;"></path><path d="M462.7633318499225,114.44507000951536A360.38251683230743,360.38251683230743 0,0,1 544.5290876061046,465.4292856432226" style="fill: none; stroke-width: 1.66667; stroke: grey; stroke-opacity: 0.4;"></path><path d="M462.7633318499225,114.44507000951536A466.0960258373489,466.0960258373489 0,0,1 575.400238961666,566.7264342703824" style="fill: none; stroke-width: 1.66667; stroke: grey; stroke-opacity: 0.4;"></path><path d="M462.7633318499225,114.44507000951536A310.1262964637541,310.1262964637541 0,0,1 194.3300334379894,269.7572847964225" style="fill: none; stroke-width: 1.66667; stroke: grey; stroke-opacity: 0.4;"></path><path d="M462.7633318499225,114.44507000951536A499.0189797544516,499.0189797544516 0,0,1 360.84041373681475,602.9444670597907" style="fill: none; stroke-width: 1.66667; stroke: grey; stroke-opacity: 0.4;"></path><path d="M462.7633318499225,114.44507000951536A121.46450565162743,121.46450565162743 0,0,1 577.9617505059474,152.9541659784608" style="fill: none; stroke-width: 1.66667; stroke: grey; stroke-opacity: 0.4;"></path><path d="M439.1497892731677,422.81640346382665A233.66138418812585,233.66138418812585 0,0,1 306.94744123813797,230.15041883048298" style="fill: none; stroke-width: 1.66667; stroke: grey; stroke-opacity: 0.4;"></path><path d="M439.1497892731677,422.81640346382665A165.62803275917125,165.62803275917125 0,0,1 597.2227283409088,373.3634847414771" style="fill: none; stroke-width: 1.66667; stroke: grey; stroke-opacity: 0.4;"></path><path d="M439.1497892731677,422.81640346382665A314.2050925373811,314.2050925373811 0,0,1 336.1554673454707,125.97130947189598" style="fill: none; stroke-width: 1.66667; stroke: grey; stroke-opacity: 0.4;"></path><path d="M439.1497892731677,422.81640346382665A113.66905579258231,113.66905579258231 0,0,1 544.5290876061046,465.4292856432226" style="fill: none; stroke-width: 1.66667; stroke: grey; stroke-opacity: 0.4;"></path><path d="M439.1497892731677,422.81640346382665A198.1774003438884,198.1774003438884 0,0,1 575.400238961666,566.7264342703824" style="fill: none; stroke-width: 1.66667; stroke: grey; stroke-opacity: 0.4;"></path><path d="M439.1497892731677,422.81640346382665A288.7279111108568,288.7279111108568 0,0,1 194.3300334379894,269.7572847964225" style="fill: none; stroke-width: 1.66667; stroke: grey; stroke-opacity: 0.4;"></path><path d="M439.1497892731677,422.81640346382665A222.4848776551995,222.4848776551995 0,0,1 656.3212211774115,471.1495178876818" style="fill: none; stroke-width: 1.66667; stroke: grey; stroke-opacity: 0.4;"></path><path d="M439.1497892731677,422.81640346382665A187.50008961480683,187.50008961480683 0,0,1 275.07668346803905,513.5704642931893" style="fill: none; stroke-width: 1.66667; stroke: grey; stroke-opacity: 0.4;"></path><path d="M439.1497892731677,422.81640346382665A196.41404631982206,196.41404631982206 0,0,1 360.84041373681475,602.9444670597907" style="fill: none; stroke-width: 1.66667; stroke: grey; stroke-opacity: 0.4;"></path><path d="M439.1497892731677,422.81640346382665A123.11350538284738,123.11350538284738 0,0,1 383.3942454026522,313.0518621248523" style="fill: none; stroke-width: 1.66667; stroke: grey; stroke-opacity: 0.4;"></path><path d="M439.1497892731677,422.81640346382665A303.4705715582629,303.4705715582629 0,0,1 577.9617505059474,152.9541659784608" style="fill: none; stroke-width: 1.66667; stroke: grey; stroke-opacity: 0.4;"></path><path d="M439.1497892731677,422.81640346382665A274.93215106564156,274.93215106564156 0,0,1 694.6030970199154,321.1734241153926" style="fill: none; stroke-width: 1.66667; stroke: grey; stroke-opacity: 0.4;"></path><path d="M207.48196142280602,386.9542573557212A290.9793295279949,290.9793295279949 0,0,1 336.1554673454707,125.97130947189598" style="fill: none; stroke-width: 1.66667; stroke: grey; stroke-opacity: 0.4;"></path><path d="M207.48196142280602,386.9542573557212A346.0622708894232,346.0622708894232 0,0,1 544.5290876061046,465.4292856432226" style="fill: none; stroke-width: 1.66667; stroke: grey; stroke-opacity: 0.4;"></path><path d="M207.48196142280602,386.9542573557212A409.48979784580445,409.48979784580445 0,0,1 575.400238961666,566.7264342703824" style="fill: none; stroke-width: 1.66667; stroke: grey; stroke-opacity: 0.4;"></path><path d="M207.48196142280602,386.9542573557212A117.93262308107465,117.93262308107465 0,0,1 194.3300334379894,269.7572847964225" style="fill: none; stroke-width: 1.66667; stroke: grey; stroke-opacity: 0.4;"></path><path d="M207.48196142280602,386.9542573557212A409.55528308856077,409.55528308856077 0,0,1 597.183359769275,260.98461802719913" style="fill: none; stroke-width: 1.66667; stroke: grey; stroke-opacity: 0.4;"></path><path d="M207.48196142280602,386.9542573557212A190.80538691521684,190.80538691521684 0,0,1 383.3942454026522,313.0518621248523" style="fill: none; stroke-width: 1.66667; stroke: grey; stroke-opacity: 0.4;"></path><path d="M306.94744123813797,230.15041883048298A108.19609796954352,108.19609796954352 0,0,1 336.1554673454707,125.97130947189598" style="fill: none; stroke-width: 1.66667; stroke: grey; stroke-opacity: 0.4;"></path><path d="M306.94744123813797,230.15041883048298A376.6694238718329,376.6694238718329 0,0,1 360.84041373681475,602.9444670597907" style="fill: none; stroke-width: 1.66667; stroke: grey; stroke-opacity: 0.4;"></path><path d="M306.94744123813797,230.15041883048298A398.1985622157576,398.1985622157576 0,0,1 694.6030970199154,321.1734241153926" style="fill: none; stroke-width: 1.66667; stroke: grey; stroke-opacity: 0.4;"></path><path d="M336.1554673454707,125.97130947189598A287.739570153413,287.739570153413 0,0,1 318.9829338193404,413.19798707055645" style="fill: none; stroke-width: 1.66667; stroke: grey; stroke-opacity: 0.4;"></path><path d="M336.1554673454707,125.97130947189598A201.96252227349186,201.96252227349186 0,0,1 194.3300334379894,269.7572847964225" style="fill: none; stroke-width: 1.66667; stroke: grey; stroke-opacity: 0.4;"></path><path d="M336.1554673454707,125.97130947189598A293.87778771159725,293.87778771159725 0,0,1 597.183359769275,260.98461802719913" style="fill: none; stroke-width: 1.66667; stroke: grey; stroke-opacity: 0.4;"></path><path d="M336.1554673454707,125.97130947189598A477.6114944572734,477.6114944572734 0,0,1 360.84041373681475,602.9444670597907" style="fill: none; stroke-width: 1.66667; stroke: grey; stroke-opacity: 0.4;"></path><path d="M318.9829338193404,413.19798707055645A109.5554334741965,109.5554334741965 0,0,1 275.07668346803905,513.5704642931893" style="fill: none; stroke-width: 1.66667; stroke: grey; stroke-opacity: 0.4;"></path><path d="M318.9829338193404,413.19798707055645A317.1188841968486,317.1188841968486 0,0,1 597.183359769275,260.98461802719913" style="fill: none; stroke-width: 1.66667; stroke: grey; stroke-opacity: 0.4;"></path><path d="M318.9829338193404,413.19798707055645A194.30845399350648,194.30845399350648 0,0,1 360.84041373681475,602.9444670597907" style="fill: none; stroke-width: 1.66667; stroke: grey; stroke-opacity: 0.4;"></path><path d="M318.9829338193404,413.19798707055645A119.07167338004058,119.07167338004058 0,0,1 383.3942454026522,313.0518621248523" style="fill: none; stroke-width: 1.66667; stroke: grey; stroke-opacity: 0.4;"></path><path d="M544.5290876061046,465.4292856432226A444.6531420435558,444.6531420435558 0,0,1 224.58338830287713,156.63944412220465" style="fill: none; stroke-width: 1.66667; stroke: grey; stroke-opacity: 0.4;"></path><path d="M544.5290876061046,465.4292856432226A105.89683803594362,105.89683803594362 0,0,1 575.400238961666,566.7264342703824" style="fill: none; stroke-width: 1.66667; stroke: grey; stroke-opacity: 0.4;"></path><path d="M544.5290876061046,465.4292856432226A221.7731195840206,221.7731195840206 0,0,1 383.3942454026522,313.0518621248523" style="fill: none; stroke-width: 1.66667; stroke: grey; stroke-opacity: 0.4;"></path><path d="M575.400238961666,566.7264342703824A304.99146730449667,304.99146730449667 0,0,1 275.07668346803905,513.5704642931893" style="fill: none; stroke-width: 1.66667; stroke: grey; stroke-opacity: 0.4;"></path><path d="M194.3300334379894,269.7572847964225A289.88260855881197,289.88260855881197 0,0,1 369.1428044061715,500.9983318691412" style="fill: none; stroke-width: 1.66667; stroke: grey; stroke-opacity: 0.4;"></path><path d="M194.3300334379894,269.7572847964225A311.01226435329323,311.01226435329323 0,0,1 500.66583960262585,216.02645156609694" style="fill: none; stroke-width: 1.66667; stroke: grey; stroke-opacity: 0.4;"></path><path d="M656.3212211774115,471.1495178876818A315.41084772603847,315.41084772603847 0,0,1 383.3942454026522,313.0518621248523" style="fill: none; stroke-width: 1.66667; stroke: grey; stroke-opacity: 0.4;"></path><path d="M656.3212211774115,471.1495178876818A327.7018288330797,327.7018288330797 0,0,1 577.9617505059474,152.9541659784608" style="fill: none; stroke-width: 1.66667; stroke: grey; stroke-opacity: 0.4;"></path><path d="M280.70177073892785,320.27819315262894A102.9464142779275,102.9464142779275 0,0,1 383.3942454026522,313.0518621248523" style="fill: none; stroke-width: 1.66667; stroke: grey; stroke-opacity: 0.4;"></path><path d="M275.07668346803905,513.5704642931893A470.9389328190817,470.9389328190817 0,0,1 577.9617505059474,152.9541659784608" style="fill: none; stroke-width: 1.66667; stroke: grey; stroke-opacity: 0.4;"></path><path d="M275.07668346803905,513.5704642931893A296.3684860390489,296.3684860390489 0,0,1 499.89820031544747,320.4654020097049" style="fill: none; stroke-width: 1.66667; stroke: grey; stroke-opacity: 0.4;"></path><path d="M597.183359769275,260.98461802719913A415.685610154712,415.685610154712 0,0,1 360.84041373681475,602.9444670597907" style="fill: none; stroke-width: 1.66667; stroke: grey; stroke-opacity: 0.4;"></path><path d="M360.84041373681475,602.9444670597907A314.85153675934174,314.85153675934174 0,0,1 499.89820031544747,320.4654020097049" style="fill: none; stroke-width: 1.66667; stroke: grey; stroke-opacity: 0.4;"></path><path d="M383.3942454026522,313.0518621248523A116.73959090191698,116.73959090191698 0,0,1 499.89820031544747,320.4654020097049" style="fill: none; stroke-width: 1.66667; stroke: grey; stroke-opacity: 0.4;"></path><path d="M577.9617505059474,152.9541659784608A99.76357577604442,99.76357577604442 0,0,1 500.66583960262585,216.02645156609694" style="fill: none; stroke-width: 1.66667; stroke: grey; stroke-opacity: 0.4;"></path><path d="M577.9617505059474,152.9541659784608A204.7020335139132,204.7020335139132 0,0,1 694.6030970199154,321.1734241153926" style="fill: none; stroke-width: 1.66667; stroke: grey; stroke-opacity: 0.4;"></path><path d="M694.6030970199154,321.1734241153926A194.70618402094902,194.70618402094902 0,0,1 499.89820031544747,320.4654020097049" style="fill: none; stroke-width: 1.66667; stroke: grey; stroke-opacity: 0.4;"></path></g><circle r="36.338921978626836" style="fill: rgb(248, 248, 255); stroke: rgb(85, 85, 85); stroke-width: 2px;" cx="439.1497892731677" cy="422.81640346382665"></circle><circle r="33.798561000070634" style="fill: rgb(248, 248, 255); stroke: rgb(85, 85, 85); stroke-width: 2px;" cx="463.5973341854142" cy="542.2635371622546"></circle><circle r="33.798561000070634" style="fill: rgb(248, 248, 255); stroke: rgb(85, 85, 85); stroke-width: 2px;" cx="462.7633318499225" cy="114.44507000951536"></circle><circle r="31.746445452260946" style="fill: rgb(248, 248, 255); stroke: rgb(85, 85, 85); stroke-width: 2px;" cx="597.183359769275" cy="260.98461802719913"></circle><circle r="32.91758067261333" style="fill: rgb(248, 248, 255); stroke: rgb(85, 85, 85); stroke-width: 2px;" cx="360.84041373681475" cy="602.9444670597907"></circle><circle r="31.746445452260946" style="fill: rgb(248, 248, 255); stroke: rgb(85, 85, 85); stroke-width: 2px;" cx="167.36115406046258" cy="493.78537853245234"></circle><circle r="32.91758067261333" style="fill: rgb(248, 248, 255); stroke: rgb(85, 85, 85); stroke-width: 2px;" cx="224.58338830287713" cy="156.63944412220465"></circle><circle r="33.798561000070634" style="fill: rgb(248, 248, 255); stroke: rgb(85, 85, 85); stroke-width: 2px;" cx="656.3212211774115" cy="471.1495178876818"></circle><circle r="30.182491820837868" style="fill: rgb(248, 248, 255); stroke: rgb(85, 85, 85); stroke-width: 2px;" cx="207.48196142280602" cy="386.9542573557212"></circle><circle r="31.746445452260946" style="fill: rgb(248, 248, 255); stroke: rgb(85, 85, 85); stroke-width: 2px;" cx="318.9829338193404" cy="413.19798707055645"></circle><circle r="25.457922621654813" style="fill: rgb(248, 248, 255); stroke: rgb(85, 85, 85); stroke-width: 2px;" cx="544.5290876061046" cy="465.4292856432226"></circle><circle r="16.944625405440593" style="fill: rgb(248, 248, 255); stroke: rgb(85, 85, 85); stroke-width: 2px;" cx="369.1428044061715" cy="500.9983318691412"></circle><circle r="25.457922621654813" style="fill: rgb(248, 248, 255); stroke: rgb(85, 85, 85); stroke-width: 2px;" cx="275.07668346803905" cy="513.5704642931893"></circle><circle r="28.111070110015703" style="fill: rgb(248, 248, 255); stroke: rgb(85, 85, 85); stroke-width: 2px;" cx="575.400238961666" cy="566.7264342703824"></circle><circle r="34.46832179295342" style="fill: rgb(248, 248, 255); stroke: rgb(85, 85, 85); stroke-width: 2px;" cx="383.3942454026522" cy="313.0518621248523"></circle><circle r="30.182491820837868" style="fill: rgb(248, 248, 255); stroke: rgb(85, 85, 85); stroke-width: 2px;" cx="694.6030970199154" cy="321.1734241153926"></circle><circle r="28.111070110015703" style="fill: rgb(248, 248, 255); stroke: rgb(85, 85, 85); stroke-width: 2px;" cx="597.2227283409088" cy="373.3634847414771"></circle><circle r="25.457922621654813" style="fill: rgb(248, 248, 255); stroke: rgb(85, 85, 85); stroke-width: 2px;" cx="577.9617505059474" cy="152.9541659784608"></circle><circle r="22.324305847321092" style="fill: rgb(248, 248, 255); stroke: rgb(85, 85, 85); stroke-width: 2px;" cx="500.66583960262585" cy="216.02645156609694"></circle><circle r="30.182491820837868" style="fill: rgb(248, 248, 255); stroke: rgb(85, 85, 85); stroke-width: 2px;" cx="499.89820031544747" cy="320.4654020097049"></circle><circle r="25.457922621654813" style="fill: rgb(248, 248, 255); stroke: rgb(85, 85, 85); stroke-width: 2px;" cx="306.94744123813797" cy="230.15041883048298"></circle><circle r="31.746445452260946" style="fill: rgb(248, 248, 255); stroke: rgb(85, 85, 85); stroke-width: 2px;" cx="194.3300334379894" cy="269.7572847964225"></circle><circle r="16.25" style="fill: rgb(248, 248, 255); stroke: rgb(85, 85, 85); stroke-width: 2px;" cx="280.70177073892785" cy="320.27819315262894"></circle><circle r="22.324305847321092" style="fill: rgb(248, 248, 255); stroke: rgb(85, 85, 85); stroke-width: 2px;" cx="404.10533886127985" cy="206.029054365858"></circle><circle r="30.182491820837868" style="fill: rgb(248, 248, 255); stroke: rgb(85, 85, 85); stroke-width: 2px;" cx="336.1554673454707" cy="125.97130947189598"></circle><g><text x="420.0240408633641" y="428.87289046026444" style="font-style: normal; font-variant: normal; font-weight: bold; font-stretch: normal; font-size: 14.5356px; line-height: normal; font-family: sans-serif; pointer-events: none;">CLB1</text><text x="445.8086178695875" y="547.8966306622664" style="font-style: normal; font-variant: normal; font-weight: bold; font-stretch: normal; font-size: 13.5194px; line-height: normal; font-family: sans-serif; pointer-events: none;">SSB2</text><text x="440.23095784987544" y="120.07816350952713" style="font-style: normal; font-variant: normal; font-weight: bold; font-stretch: normal; font-size: 13.5194px; line-height: normal; font-family: sans-serif; pointer-events: none;">CDC28</text><text x="576.019062801101" y="266.2756922692426" style="font-style: normal; font-variant: normal; font-weight: bold; font-stretch: normal; font-size: 12.6986px; line-height: normal; font-family: sans-serif; pointer-events: none;">SPT10</text><text x="343.5153712775446" y="608.4307305052263" style="font-style: normal; font-variant: normal; font-weight: bold; font-stretch: normal; font-size: 13.167px; line-height: normal; font-family: sans-serif; pointer-events: none;">SPT3</text><text x="150.6524985592726" y="499.0764527744958" style="font-style: normal; font-variant: normal; font-weight: bold; font-stretch: normal; font-size: 12.6986px; line-height: normal; font-family: sans-serif; pointer-events: none;">BUB3</text><text x="207.25834584360695" y="162.1257075676402" style="font-style: normal; font-variant: normal; font-weight: bold; font-stretch: normal; font-size: 13.167px; line-height: normal; font-family: sans-serif; pointer-events: none;">PUF3</text><text x="633.7888471773645" y="476.7826113876936" style="font-style: normal; font-variant: normal; font-weight: bold; font-stretch: normal; font-size: 13.5194px; line-height: normal; font-family: sans-serif; pointer-events: none;">SGF73</text><text x="191.59643941183873" y="391.9846726591942" style="font-style: normal; font-variant: normal; font-weight: bold; font-stretch: normal; font-size: 12.073px; line-height: normal; font-family: sans-serif; pointer-events: none;">CLB2</text><text x="302.27427831815044" y="418.4890613125999" style="font-style: normal; font-variant: normal; font-weight: bold; font-stretch: normal; font-size: 12.6986px; line-height: normal; font-family: sans-serif; pointer-events: none;">IXR1</text><text x="531.1301809631283" y="469.67227274683177" style="font-style: normal; font-variant: normal; font-weight: bold; font-stretch: normal; font-size: 10.1832px; line-height: normal; font-family: sans-serif; pointer-events: none;">PTC1</text><text x="360.2245805085712" y="503.82243610338134" style="font-style: normal; font-variant: normal; font-weight: bold; font-stretch: normal; font-size: 6.77785px; line-height: normal; font-family: sans-serif; pointer-events: none;">SFP1</text><text x="261.67777682506284" y="517.8134513967984" style="font-style: normal; font-variant: normal; font-weight: bold; font-stretch: normal; font-size: 10.1832px; line-height: normal; font-family: sans-serif; pointer-events: none;">SIN4</text><text x="556.6595255549888" y="571.4116126220516" style="font-style: normal; font-variant: normal; font-weight: bold; font-stretch: normal; font-size: 11.2444px; line-height: normal; font-family: sans-serif; pointer-events: none;">RAD51</text><text x="365.2530234063609" y="318.7965824236778" style="font-style: normal; font-variant: normal; font-weight: bold; font-stretch: normal; font-size: 13.7873px; line-height: normal; font-family: sans-serif; pointer-events: none;">SWI6</text><text x="678.7175750089481" y="326.2038394188656" style="font-style: normal; font-variant: normal; font-weight: bold; font-stretch: normal; font-size: 12.073px; line-height: normal; font-family: sans-serif; pointer-events: none;">XRN1</text><text x="582.4274282830058" y="378.0486630931464" style="font-style: normal; font-variant: normal; font-weight: bold; font-stretch: normal; font-size: 11.2444px; line-height: normal; font-family: sans-serif; pointer-events: none;">ELM1</text><text x="560.9898020915109" y="157.19715308206992" style="font-style: normal; font-variant: normal; font-weight: bold; font-stretch: normal; font-size: 10.1832px; line-height: normal; font-family: sans-serif; pointer-events: none;">TAF12</text><text x="488.9162049461411" y="219.7471692073171" style="font-style: normal; font-variant: normal; font-weight: bold; font-stretch: normal; font-size: 8.92972px; line-height: normal; font-family: sans-serif; pointer-events: none;">UBP6</text><text x="484.0126783044802" y="325.4958173131779" style="font-style: normal; font-variant: normal; font-weight: bold; font-stretch: normal; font-size: 12.073px; line-height: normal; font-family: sans-serif; pointer-events: none;">YAP1</text><text x="293.54853459516175" y="234.3934059340921" style="font-style: normal; font-variant: normal; font-weight: bold; font-stretch: normal; font-size: 10.1832px; line-height: normal; font-family: sans-serif; pointer-events: none;">DCC1</text><text x="177.62137793679943" y="275.04835903846595" style="font-style: normal; font-variant: normal; font-weight: bold; font-stretch: normal; font-size: 12.6986px; line-height: normal; font-family: sans-serif; pointer-events: none;">RAS2</text><text x="272.1491391599805" y="322.98652648596226" style="font-style: normal; font-variant: normal; font-weight: bold; font-stretch: normal; font-size: 6.5px; line-height: normal; font-family: sans-serif; pointer-events: none;">SIC1</text><text x="389.22246829639914" y="209.74977200707818" style="font-style: normal; font-variant: normal; font-weight: bold; font-stretch: normal; font-size: 8.92972px; line-height: normal; font-family: sans-serif; pointer-events: none;">CDC14</text><text x="320.2699453345034" y="131.00172477536896" style="font-style: normal; font-variant: normal; font-weight: bold; font-stretch: normal; font-size: 12.073px; line-height: normal; font-family: sans-serif; pointer-events: none;">HIR1</text></g></svg>