<svg width="835" height="700" title="svg_title" version="1.1" xmlns="http://www.w3.org/2000/svg"><g class="link"><path d="M568.5913161711413,584.5820108903981A88.65253317566919,88.65253317566919 0,0,1 632.5045433448464,523.1461009459243" style="fill: none; stroke-width: 15; stroke: rgb(143, 0, 0); stroke-opacity: 0.4;"></path><path d="M568.5913161711413,584.5820108903981A115.83856067644294,115.83856067644294 0,0,1 505.52165195951824,487.41828517023515" style="fill: none; stroke-width: 13.6667; stroke: rgb(143, 0, 0); stroke-opacity: 0.4;"></path><path d="M446.829453963677,493.5978805328143A30,20 -45,1,1 447.829453963677,494.5978805328143" style="fill: none; stroke-width: 9; stroke: rgb(143, 0, 0); stroke-opacity: 0.4;"></path><path d="M553.0164358161787,98.86092863877745A156.6355624230986,156.6355624230986 0,0,1 570.3612146502132,254.53320639817443" style="fill: none; stroke-width: 7; stroke: rgb(143, 0, 0); stroke-opacity: 0.4;"></path><path d="M632.5045433448464,523.1461009459243A131.91334854623182,131.91334854623182 0,0,1 505.52165195951824,487.41828517023515" style="fill: none; stroke-width: 5.66667; stroke: rgb(143, 0, 0); stroke-opacity: 0.4;"></path><path d="M643.1794257668374,260.2063247512713A73.03886733838014,73.03886733838014 0,0,1 570.3612146502132,254.53320639817443" style="fill: none; stroke-width: 5; stroke: rgb(143, 0, 0); stroke-opacity: 0.4;"></path><path d="M568.5913161711413,584.5820108903981A403.2981061193519,403.2981061193519 0,0,1 553.8503818051315,181.55339248536097" style="fill: none; stroke-width: 4.33333; stroke: rgb(143, 0, 0); stroke-opacity: 0.4;"></path><path d="M568.5913161711413,584.5820108903981A547.2592943257376,547.2592943257376 0,0,1 121.5365430066092,268.93226034921196" style="fill: none; stroke-width: 3; stroke: rgb(143, 0, 0); stroke-opacity: 0.4;"></path><path d="M561.1033410816443,508.2214121438335A30,20 -45,1,1 562.1033410816443,509.2214121438335" style="fill: none; stroke-width: 3; stroke: rgb(143, 0, 0); stroke-opacity: 0.4;"></path><path d="M553.0164358161787,98.86092863877745A30,20 -45,1,1 554.0164358161787,99.86092863877745" style="fill: none; stroke-width: 3; stroke: rgb(143, 0, 0); stroke-opacity: 0.4;"></path><path d="M553.0164358161787,98.86092863877745A184.82884407889406,184.82884407889406 0,0,1 643.1794257668374,260.2063247512713" style="fill: none; stroke-width: 3; stroke: rgb(143, 0, 0); stroke-opacity: 0.4;"></path><path d="M87.80317196849302,594.714329789206A431.27852916287026,431.27852916287026 0,0,1 505.52165195951824,487.41828517023515" style="fill: none; stroke-width: 3; stroke: rgb(143, 0, 0); stroke-opacity: 0.4;"></path><path d="M121.5365430066092,268.93226034921196A441.7926062528324,441.7926062528324 0,0,1 505.52165195951824,487.41828517023515" style="fill: none; stroke-width: 3; stroke: rgb(143, 0, 0); stroke-opacity: 0.4;"></path><path d="M87.80317196849302,594.714329789206A480.894898592295,480.894898592295 0,0,1 568.5913161711413,584.5820108903981" style="fill: none; stroke-width: 2.33333; stroke: rgb(143, 0, 0); stroke-opacity: 0.4;"></path><path d="M568.5913161711413,584.5820108903981A76.7268584778158,76.7268584778158 0,0,1 561.1033410816443,508.2214121438335" style="fill: none; stroke-width: 2.33333; stroke: rgb(143, 0, 0); stroke-opacity: 0.4;"></path><path d="M632.5045433448464,523.1461009459243A144.86978253593557,144.86978253593557 0,0,1 491.38401741229615,555.891345677483" style="fill: none; stroke-width: 2.33333; stroke: rgb(143, 0, 0); stroke-opacity: 0.4;"></path><path d="M479.5297017318593,173.81243159914095A121.51628377790928,121.51628377790928 0,0,1 570.3612146502132,254.53320639817443" style="fill: none; stroke-width: 2.33333; stroke: rgb(143, 0, 0); stroke-opacity: 0.4;"></path><path d="M121.5365430066092,268.93226034921196A409.23404155410185,409.23404155410185 0,0,1 409.64038904585243,559.5672112138669" style="fill: none; stroke-width: 2.33333; stroke: rgb(143, 0, 0); stroke-opacity: 0.4;"></path><path d="M632.5045433448464,523.1461009459243A225.8205671424891,225.8205671424891 0,0,1 409.64038904585243,559.5672112138669" style="fill: none; stroke-width: 2.33333; stroke: rgb(143, 0, 0); stroke-opacity: 0.4;"></path><path d="M501.06919424841357,241.02601937165508A30,20 -45,1,1 502.06919424841357,242.02601937165508" style="fill: none; stroke-width: 2.33333; stroke: rgb(143, 0, 0); stroke-opacity: 0.4;"></path><path d="M409.64038904585243,559.5672112138669A30,20 -45,1,1 410.64038904585243,560.5672112138669" style="fill: none; stroke-width: 2.33333; stroke: rgb(143, 0, 0); stroke-opacity: 0.4;"></path><path d="M409.64038904585243,559.5672112138669A79.52529249231164,79.52529249231164 0,0,1 334.43920918364597,533.7011196397657" style="fill: none; stroke-width: 2.33333; stroke: rgb(143, 0, 0); stroke-opacity: 0.4;"></path><path d="M409.64038904585243,559.5672112138669A78.18291083574336,78.18291083574336 0,0,1 349.06157076186145,608.9916416310705" style="fill: none; stroke-width: 2.33333; stroke: rgb(143, 0, 0); stroke-opacity: 0.4;"></path><path d="M409.64038904585243,559.5672112138669A94.54380854233538,94.54380854233538 0,0,1 377.8542451676783,470.52692375338205" style="fill: none; stroke-width: 2.33333; stroke: rgb(143, 0, 0); stroke-opacity: 0.4;"></path><path marker-end="url(#blue_arrow)" style="fill: none; stroke-width: 2.33333; stroke: blue; stroke-opacity: 0.4;" d="M490.2205618603227,118.29316237761343A437.5997299544043,437.5997299544043 0,0,1 491.38401741229615,555.891345677483"></path><path d="M570.3612146502132,254.53320639817443A30,20 -45,1,1 571.3612146502132,255.53320639817443" style="fill: none; stroke-width: 2.33333; stroke: rgb(143, 0, 0); stroke-opacity: 0.4;"></path><path d="M80.55119134724316,330.42388595005923A30,20 -45,1,1 81.55119134724316,331.42388595005923" style="fill: none; stroke-width: 2.33333; stroke: rgb(143, 0, 0); stroke-opacity: 0.4;"></path><path d="M632.5045433448464,523.1461009459243A311.23462439062513,311.23462439062513 0,0,1 501.06919424841357,241.02601937165508" style="fill: none; stroke-width: 2.33333; stroke: rgb(143, 0, 0); stroke-opacity: 0.4;"></path><path d="M255.2893639383195,36.74644545226094A570.3087872625257,570.3087872625257 0,0,1 491.38401741229615,555.891345677483" style="fill: none; stroke-width: 1.66667; stroke: rgb(143, 0, 0); stroke-opacity: 0.4;"></path><path d="M87.80317196849302,594.714329789206A30,20 -45,1,1 88.80317196849302,595.714329789206" style="fill: none; stroke-width: 1.66667; stroke: rgb(143, 0, 0); stroke-opacity: 0.4;"></path><path d="M87.80317196849302,594.714329789206A319.9606971482528,319.9606971482528 0,0,1 193.89026367678358,292.8528107238029" style="fill: none; stroke-width: 1.66667; stroke: rgb(143, 0, 0); stroke-opacity: 0.4;"></path><path d="M87.80317196849302,594.714329789206A323.7506976675854,323.7506976675854 0,0,1 409.64038904585243,559.5672112138669" style="fill: none; stroke-width: 1.66667; stroke: rgb(143, 0, 0); stroke-opacity: 0.4;"></path><path d="M87.80317196849302,594.714329789206A685.7250399758492,685.7250399758492 0,0,1 634.9640580521193,181.39387881918583" style="fill: none; stroke-width: 1.66667; stroke: rgb(143, 0, 0); stroke-opacity: 0.4;"></path><path d="M87.80317196849302,594.714329789206A405.4438591278378,405.4438591278378 0,0,1 491.38401741229615,555.891345677483" style="fill: none; stroke-width: 1.66667; stroke: rgb(143, 0, 0); stroke-opacity: 0.4;"></path><path d="M87.80317196849302,594.714329789206A622.81775979038,622.81775979038 0,0,1 553.8503818051315,181.55339248536097" style="fill: none; stroke-width: 1.66667; stroke: rgb(143, 0, 0); stroke-opacity: 0.4;"></path><path d="M568.5913161711413,584.5820108903981A485.970726116046,485.970726116046 0,0,1 553.0164358161787,98.86092863877745" style="fill: none; stroke-width: 1.66667; stroke: rgb(143, 0, 0); stroke-opacity: 0.4;"></path><path d="M568.5913161711413,584.5820108903981A82.36577718929846,82.36577718929846 0,0,1 491.38401741229615,555.891345677483" style="fill: none; stroke-width: 1.66667; stroke: rgb(143, 0, 0); stroke-opacity: 0.4;"></path><path d="M121.5365430066092,268.93226034921196A570.7126896439113,570.7126896439113 0,0,1 632.5045433448464,523.1461009459243" style="fill: none; stroke-width: 1.66667; stroke: rgb(143, 0, 0); stroke-opacity: 0.4;"></path><path d="M121.5365430066092,268.93226034921196A468.11608707317805,468.11608707317805 0,0,1 491.38401741229615,555.891345677483" style="fill: none; stroke-width: 1.66667; stroke: rgb(143, 0, 0); stroke-opacity: 0.4;"></path><path d="M121.5365430066092,268.93226034921196A73.8987081732602,73.8987081732602 0,0,1 80.55119134724316,330.42388595005923" style="fill: none; stroke-width: 1.66667; stroke: rgb(143, 0, 0); stroke-opacity: 0.4;"></path><path d="M433.61384386482734,221.2391226399865A339.6019778146808,339.6019778146808 0,0,1 491.38401741229615,555.891345677483" style="fill: none; stroke-width: 1.66667; stroke: rgb(143, 0, 0); stroke-opacity: 0.4;"></path><path d="M561.1033410816443,508.2214121438335A159.92941230910853,159.92941230910853 0,0,1 409.64038904585243,559.5672112138669" style="fill: none; stroke-width: 1.66667; stroke: rgb(143, 0, 0); stroke-opacity: 0.4;"></path><path marker-end="url(#blue_arrow)" style="fill: none; stroke-width: 1.66667; stroke: blue; stroke-opacity: 0.4;" d="M501.06919424841357,241.02601937165508A380.5572120511324,380.5572120511324 0,0,1 121.5365430066092,268.93226034921196"></path><path d="M501.06919424841357,241.02601937165508A331.40265134881565,331.40265134881565 0,0,1 409.64038904585243,559.5672112138669" style="fill: none; stroke-width: 1.66667; stroke: rgb(143, 0, 0); stroke-opacity: 0.4;"></path><path d="M501.06919424841357,241.02601937165508A146.5736222513531,146.5736222513531 0,0,1 634.9640580521193,181.39387881918583" style="fill: none; stroke-width: 1.66667; stroke: rgb(143, 0, 0); stroke-opacity: 0.4;"></path><path d="M501.06919424841357,241.02601937165508A315.01424786828665,315.01424786828665 0,0,1 491.38401741229615,555.891345677483" style="fill: none; stroke-width: 1.66667; stroke: rgb(143, 0, 0); stroke-opacity: 0.4;"></path><path marker-end="url(#blue_arrow)" style="fill: none; stroke-width: 1.66667; stroke: blue; stroke-opacity: 0.4;" d="M147.14749011241,347.49037284447576A329.02348439848026,329.02348439848026 0,0,1 255.2893639383195,36.74644545226094"></path><path marker-end="url(#blue_arrow)" style="fill: none; stroke-width: 1.66667; stroke: blue; stroke-opacity: 0.4;" d="M147.14749011241,347.49037284447576A483.55697012277767,483.55697012277767 0,0,1 568.5913161711413,584.5820108903981"></path><path marker-end="url(#blue_arrow)" style="fill: none; stroke-width: 1.66667; stroke: blue; stroke-opacity: 0.4;" d="M147.14749011241,347.49037284447576A82.62746305239347,82.62746305239347 0,0,1 121.5365430066092,268.93226034921196"></path><path marker-end="url(#blue_arrow)" style="fill: none; stroke-width: 1.66667; stroke: blue; stroke-opacity: 0.4;" d="M147.14749011241,347.49037284447576A30,20 -45,1,1 148.14749011241,348.49037284447576"></path><path marker-end="url(#blue_arrow)" style="fill: none; stroke-width: 1.66667; stroke: blue; stroke-opacity: 0.4;" d="M147.14749011241,347.49037284447576A337.4597862905139,337.4597862905139 0,0,1 409.64038904585243,559.5672112138669"></path><path marker-end="url(#blue_arrow)" style="fill: none; stroke-width: 1.66667; stroke: blue; stroke-opacity: 0.4;" d="M147.14749011241,347.49037284447576A475.9686981438204,475.9686981438204 0,0,1 553.0164358161787,98.86092863877745"></path><path d="M147.14749011241,347.49037284447576A515.3183960271264,515.3183960271264 0,0,1 634.9640580521193,181.39387881918583" style="fill: none; stroke-width: 1.66667; stroke: rgb(143, 0, 0); stroke-opacity: 0.4;"></path><path d="M147.14749011241,347.49037284447576A402.4049604630006,402.4049604630006 0,0,1 491.38401741229615,555.891345677483" style="fill: none; stroke-width: 1.66667; stroke: rgb(143, 0, 0); stroke-opacity: 0.4;"></path><path marker-end="url(#blue_arrow)" style="fill: none; stroke-width: 1.66667; stroke: blue; stroke-opacity: 0.4;" d="M147.14749011241,347.49037284447576A402.4049604630006,402.4049604630006 0,0,1 491.38401741229615,555.891345677483"></path><path marker-end="url(#blue_arrow)" style="fill: none; stroke-width: 1.66667; stroke: blue; stroke-opacity: 0.4;" d="M147.14749011241,347.49037284447576A433.3023095148294,433.3023095148294 0,0,1 570.3612146502132,254.53320639817443"></path><path d="M193.89026367678358,292.8528107238029A30,20 -45,1,1 194.89026367678358,293.8528107238029" style="fill: none; stroke-width: 1.66667; stroke: rgb(143, 0, 0); stroke-opacity: 0.4;"></path><path d="M193.89026367678358,292.8528107238029A397.10427394101936,397.10427394101936 0,0,1 491.38401741229615,555.891345677483" style="fill: none; stroke-width: 1.66667; stroke: rgb(143, 0, 0); stroke-opacity: 0.4;"></path><path d="M409.64038904585243,559.5672112138669A482.5007456902476,482.5007456902476 0,0,1 553.0164358161787,98.86092863877745" style="fill: none; stroke-width: 1.66667; stroke: rgb(143, 0, 0); stroke-opacity: 0.4;"></path><path d="M409.64038904585243,559.5672112138669A440.21111429511143,440.21111429511143 0,0,1 634.9640580521193,181.39387881918583" style="fill: none; stroke-width: 1.66667; stroke: rgb(143, 0, 0); stroke-opacity: 0.4;"></path><path d="M409.64038904585243,559.5672112138669A379.6806842811952,379.6806842811952 0,0,1 643.1794257668374,260.2063247512713" style="fill: none; stroke-width: 1.66667; stroke: rgb(143, 0, 0); stroke-opacity: 0.4;"></path><path d="M409.64038904585243,559.5672112138669A81.82623519356636,81.82623519356636 0,0,1 491.38401741229615,555.891345677483" style="fill: none; stroke-width: 1.66667; stroke: rgb(143, 0, 0); stroke-opacity: 0.4;"></path><path d="M446.829453963677,493.5978805328143A76.58710677279221,76.58710677279221 0,0,1 491.38401741229615,555.891345677483" style="fill: none; stroke-width: 1.66667; stroke: rgb(143, 0, 0); stroke-opacity: 0.4;"></path><path d="M334.43920918364597,533.7011196397657A30,20 -45,1,1 335.43920918364597,534.7011196397657" style="fill: none; stroke-width: 1.66667; stroke: rgb(143, 0, 0); stroke-opacity: 0.4;"></path><path marker-end="url(#blue_arrow)" style="fill: none; stroke-width: 1.66667; stroke: blue; stroke-opacity: 0.4;" d="M490.2205618603227,118.29316237761343A248.68159320378138,248.68159320378138 0,0,1 255.2893639383195,36.74644545226094"></path><path marker-end="url(#blue_arrow)" style="fill: none; stroke-width: 1.66667; stroke: blue; stroke-opacity: 0.4;" d="M490.2205618603227,118.29316237761343A472.8290022604635,472.8290022604635 0,0,1 568.5913161711413,584.5820108903981"></path><path marker-end="url(#blue_arrow)" style="fill: none; stroke-width: 1.66667; stroke: blue; stroke-opacity: 0.4;" d="M490.2205618603227,118.29316237761343A398.2713190725918,398.2713190725918 0,0,1 121.5365430066092,268.93226034921196"></path><path marker-end="url(#blue_arrow)" style="fill: none; stroke-width: 1.66667; stroke: blue; stroke-opacity: 0.4;" d="M490.2205618603227,118.29316237761343A396.3185692796722,396.3185692796722 0,0,1 561.1033410816443,508.2214121438335"></path><path marker-end="url(#blue_arrow)" style="fill: none; stroke-width: 1.66667; stroke: blue; stroke-opacity: 0.4;" d="M490.2205618603227,118.29316237761343A30,20 -45,1,1 491.2205618603227,119.29316237761343"></path><path d="M490.2205618603227,118.29316237761343A437.5997299544043,437.5997299544043 0,0,1 491.38401741229615,555.891345677483" style="fill: none; stroke-width: 1.66667; stroke: rgb(143, 0, 0); stroke-opacity: 0.4;"></path><path marker-end="url(#blue_arrow)" style="fill: none; stroke-width: 1.66667; stroke: blue; stroke-opacity: 0.4;" d="M490.2205618603227,118.29316237761343A369.722614645079,369.722614645079 0,0,1 377.8542451676783,470.52692375338205"></path><path d="M553.0164358161787,98.86092863877745A116.30606456933444,116.30606456933444 0,0,1 634.9640580521193,181.39387881918583" style="fill: none; stroke-width: 1.66667; stroke: rgb(143, 0, 0); stroke-opacity: 0.4;"></path><path d="M553.0164358161787,98.86092863877745A410.8739526391407,410.8739526391407 0,0,1 377.8542451676783,470.52692375338205" style="fill: none; stroke-width: 1.66667; stroke: rgb(143, 0, 0); stroke-opacity: 0.4;"></path><path marker-end="url(#blue_arrow)" style="fill: none; stroke-width: 1.66667; stroke: blue; stroke-opacity: 0.4;" d="M479.5297017318593,173.81243159914095A382.26276484054324,382.26276484054324 0,0,1 491.38401741229615,555.891345677483"></path><path d="M479.5297017318593,173.81243159914095A313.65169905786234,313.65169905786234 0,0,1 377.8542451676783,470.52692375338205" style="fill: none; stroke-width: 1.66667; stroke: rgb(143, 0, 0); stroke-opacity: 0.4;"></path><path marker-end="url(#blue_arrow)" style="fill: none; stroke-width: 1.66667; stroke: blue; stroke-opacity: 0.4;" d="M479.5297017318593,173.81243159914095A313.65169905786234,313.65169905786234 0,0,1 377.8542451676783,470.52692375338205"></path><path marker-end="url(#blue_arrow)" style="fill: none; stroke-width: 1.66667; stroke: blue; stroke-opacity: 0.4;" d="M634.9640580521193,181.39387881918583A520.8366168451522,520.8366168451522 0,0,1 121.5365430066092,268.93226034921196"></path><path marker-end="url(#blue_arrow)" style="fill: none; stroke-width: 1.66667; stroke: blue; stroke-opacity: 0.4;" d="M634.9640580521193,181.39387881918583A205.25484697908453,205.25484697908453 0,0,1 433.61384386482734,221.2391226399865"></path><path marker-end="url(#blue_arrow)" style="fill: none; stroke-width: 1.66667; stroke: blue; stroke-opacity: 0.4;" d="M634.9640580521193,181.39387881918583A146.5736222513531,146.5736222513531 0,0,1 501.06919424841357,241.02601937165508"></path><path marker-end="url(#blue_arrow)" style="fill: none; stroke-width: 1.66667; stroke: blue; stroke-opacity: 0.4;" d="M634.9640580521193,181.39387881918583A30,20 -45,1,1 635.9640580521193,182.39387881918583"></path><path d="M634.9640580521193,181.39387881918583A79.2394718589538,79.2394718589538 0,0,1 643.1794257668374,260.2063247512713" style="fill: none; stroke-width: 1.66667; stroke: rgb(143, 0, 0); stroke-opacity: 0.4;"></path><path d="M634.9640580521193,181.39387881918583A81.11383309220966,81.11383309220966 0,0,1 553.8503818051315,181.55339248536097" style="fill: none; stroke-width: 1.66667; stroke: rgb(143, 0, 0); stroke-opacity: 0.4;"></path><path d="M634.9640580521193,181.39387881918583A97.58528892367845,97.58528892367845 0,0,1 570.3612146502132,254.53320639817443" style="fill: none; stroke-width: 1.66667; stroke: rgb(143, 0, 0); stroke-opacity: 0.4;"></path><path d="M634.9640580521193,181.39387881918583A386.91520202027755,386.91520202027755 0,0,1 377.8542451676783,470.52692375338205" style="fill: none; stroke-width: 1.66667; stroke: rgb(143, 0, 0); stroke-opacity: 0.4;"></path><path marker-end="url(#blue_arrow)" style="fill: none; stroke-width: 1.66667; stroke: blue; stroke-opacity: 0.4;" d="M643.1794257668374,260.2063247512713A521.7158604896545,521.7158604896545 0,0,1 121.5365430066092,268.93226034921196"></path><path marker-end="url(#blue_arrow)" style="fill: none; stroke-width: 1.66667; stroke: blue; stroke-opacity: 0.4;" d="M643.1794257668374,260.2063247512713A503.6528429787872,503.6528429787872 0,0,1 147.14749011241,347.49037284447576"></path><path marker-end="url(#blue_arrow)" style="fill: none; stroke-width: 1.66667; stroke: blue; stroke-opacity: 0.4;" d="M643.1794257668374,260.2063247512713A304.99988481511105,304.99988481511105 0,0,1 446.829453963677,493.5978805328143"></path><path marker-end="url(#blue_arrow)" style="fill: none; stroke-width: 1.66667; stroke: blue; stroke-opacity: 0.4;" d="M643.1794257668374,260.2063247512713A412.45596633693583,412.45596633693583 0,0,1 334.43920918364597,533.7011196397657"></path><path d="M643.1794257668374,260.2063247512713A338.57378195097016,338.57378195097016 0,0,1 377.8542451676783,470.52692375338205" style="fill: none; stroke-width: 1.66667; stroke: rgb(143, 0, 0); stroke-opacity: 0.4;"></path><path marker-end="url(#blue_arrow)" style="fill: none; stroke-width: 1.66667; stroke: blue; stroke-opacity: 0.4;" d="M643.1794257668374,260.2063247512713A338.57378195097016,338.57378195097016 0,0,1 377.8542451676783,470.52692375338205"></path><path d="M491.38401741229615,555.891345677483A30,20 -45,1,1 492.38401741229615,556.891345677483" style="fill: none; stroke-width: 1.66667; stroke: rgb(143, 0, 0); stroke-opacity: 0.4;"></path><path d="M491.38401741229615,555.891345677483A151.90562942473335,151.90562942473335 0,0,1 349.06157076186145,608.9916416310705" style="fill: none; stroke-width: 1.66667; stroke: rgb(143, 0, 0); stroke-opacity: 0.4;"></path><path d="M491.38401741229615,555.891345677483A142.0425771251378,142.0425771251378 0,0,1 377.8542451676783,470.52692375338205" style="fill: none; stroke-width: 1.66667; stroke: rgb(143, 0, 0); stroke-opacity: 0.4;"></path><path d="M553.8503818051315,181.55339248536097A74.82419956128571,74.82419956128571 0,0,1 570.3612146502132,254.53320639817443" style="fill: none; stroke-width: 1.66667; stroke: rgb(143, 0, 0); stroke-opacity: 0.4;"></path><path d="M349.06157076186145,608.9916416310705A30,20 -45,1,1 350.06157076186145,609.9916416310705" style="fill: none; stroke-width: 1.66667; stroke: rgb(143, 0, 0); stroke-opacity: 0.4;"></path><path marker-end="url(#blue_arrow)" style="fill: none; stroke-width: 1.66667; stroke: blue; stroke-opacity: 0.4;" d="M377.8542451676783,470.52692375338205A326.09687633304793,326.09687633304793 0,0,1 121.5365430066092,268.93226034921196"></path><path marker-end="url(#blue_arrow)" style="fill: none; stroke-width: 1.66667; stroke: blue; stroke-opacity: 0.4;" d="M377.8542451676783,470.52692375338205A261.46433731522825,261.46433731522825 0,0,1 147.14749011241,347.49037284447576"></path><path marker-end="url(#blue_arrow)" style="fill: none; stroke-width: 1.66667; stroke: blue; stroke-opacity: 0.4;" d="M377.8542451676783,470.52692375338205A72.7313445164466,72.7313445164466 0,0,1 446.829453963677,493.5978805328143"></path><path marker-end="url(#blue_arrow)" style="fill: none; stroke-width: 1.66667; stroke: blue; stroke-opacity: 0.4;" d="M377.8542451676783,470.52692375338205A128.77998620697196,128.77998620697196 0,0,1 505.52165195951824,487.41828517023515"></path><path d="M87.80317196849302,594.714329789206A431.27852916287026,431.27852916287026 0,0,1 505.52165195951824,487.41828517023515" style="fill: none; stroke-width: 10.3333; stroke: grey; stroke-opacity: 0.4;"></path><path d="M121.5365430066092,268.93226034921196A570.7126896439113,570.7126896439113 0,0,1 632.5045433448464,523.1461009459243" style="fill: none; stroke-width: 6.33333; stroke: grey; stroke-opacity: 0.4;"></path><path d="M568.5913161711413,584.5820108903981A88.65253317566919,88.65253317566919 0,0,1 632.5045433448464,523.1461009459243" style="fill: none; stroke-width: 6.33333; stroke: grey; stroke-opacity: 0.4;"></path><path d="M433.61384386482734,221.2391226399865A170.97778022801234,170.97778022801234 0,0,1 553.0164358161787,98.86092863877745" style="fill: none; stroke-width: 5.66667; stroke: grey; stroke-opacity: 0.4;"></path><path d="M632.5045433448464,523.1461009459243A131.91334854623182,131.91334854623182 0,0,1 505.52165195951824,487.41828517023515" style="fill: none; stroke-width: 5; stroke: grey; stroke-opacity: 0.4;"></path><path d="M87.80317196849302,594.714329789206A549.3829223401874,549.3829223401874 0,0,1 632.5045433448464,523.1461009459243" style="fill: none; stroke-width: 5; stroke: grey; stroke-opacity: 0.4;"></path><path d="M632.5045433448464,523.1461009459243A361.5319265147593,361.5319265147593 0,0,1 433.61384386482734,221.2391226399865" style="fill: none; stroke-width: 5; stroke: grey; stroke-opacity: 0.4;"></path><path d="M561.1033410816443,508.2214121438335A425.710087612178,425.710087612178 0,0,1 193.89026367678358,292.8528107238029" style="fill: none; stroke-width: 4.33333; stroke: grey; stroke-opacity: 0.4;"></path><path d="M561.1033410816443,508.2214121438335A326.7485279015882,326.7485279015882 0,0,1 553.8503818051315,181.55339248536097" style="fill: none; stroke-width: 4.33333; stroke: grey; stroke-opacity: 0.4;"></path><path d="M446.829453963677,493.5978805328143A72.7313445164466,72.7313445164466 0,0,1 377.8542451676783,470.52692375338205" style="fill: none; stroke-width: 4.33333; stroke: grey; stroke-opacity: 0.4;"></path><path d="M632.5045433448464,523.1461009459243A72.94434879049885,72.94434879049885 0,0,1 561.1033410816443,508.2214121438335" style="fill: none; stroke-width: 4.33333; stroke: grey; stroke-opacity: 0.4;"></path><path d="M568.5913161711413,584.5820108903981A76.7268584778158,76.7268584778158 0,0,1 561.1033410816443,508.2214121438335" style="fill: none; stroke-width: 3.66667; stroke: grey; stroke-opacity: 0.4;"></path><path d="M479.5297017318593,173.81243159914095A74.72272721197797,74.72272721197797 0,0,1 553.8503818051315,181.55339248536097" style="fill: none; stroke-width: 3.66667; stroke: grey; stroke-opacity: 0.4;"></path><path d="M255.2893639383195,36.74644545226094A515.4816243893739,515.4816243893739 0,0,1 505.52165195951824,487.41828517023515" style="fill: none; stroke-width: 3; stroke: grey; stroke-opacity: 0.4;"></path><path d="M568.5913161711413,584.5820108903981A115.83856067644294,115.83856067644294 0,0,1 505.52165195951824,487.41828517023515" style="fill: none; stroke-width: 3; stroke: grey; stroke-opacity: 0.4;"></path><path d="M255.2893639383195,36.74644545226094A579.8773933533548,579.8773933533548 0,0,1 349.06157076186145,608.9916416310705" style="fill: none; stroke-width: 3; stroke: grey; stroke-opacity: 0.4;"></path><path d="M433.61384386482734,221.2391226399865A272.67919860379675,272.67919860379675 0,0,1 446.829453963677,493.5978805328143" style="fill: none; stroke-width: 3; stroke: grey; stroke-opacity: 0.4;"></path><path d="M561.1033410816443,508.2214121438335A409.44035401052724,409.44035401052724 0,0,1 553.0164358161787,98.86092863877745" style="fill: none; stroke-width: 3; stroke: grey; stroke-opacity: 0.4;"></path><path d="M334.43920918364597,533.7011196397657A486.68469845696353,486.68469845696353 0,0,1 553.0164358161787,98.86092863877745" style="fill: none; stroke-width: 3; stroke: grey; stroke-opacity: 0.4;"></path><path d="M255.2893639383195,36.74644545226094A256.5875446644942,256.5875446644942 0,0,1 433.61384386482734,221.2391226399865" style="fill: none; stroke-width: 2.33333; stroke: grey; stroke-opacity: 0.4;"></path><path d="M255.2893639383195,36.74644545226094A331.8248533469334,331.8248533469334 0,0,1 553.8503818051315,181.55339248536097" style="fill: none; stroke-width: 2.33333; stroke: grey; stroke-opacity: 0.4;"></path><path d="M433.61384386482734,221.2391226399865A314.02612373728823,314.02612373728823 0,0,1 561.1033410816443,508.2214121438335" style="fill: none; stroke-width: 2.33333; stroke: grey; stroke-opacity: 0.4;"></path><path d="M433.61384386482734,221.2391226399865A126.61667439076088,126.61667439076088 0,0,1 553.8503818051315,181.55339248536097" style="fill: none; stroke-width: 2.33333; stroke: grey; stroke-opacity: 0.4;"></path><path d="M501.06919424841357,241.02601937165508A429.9155374172454,429.9155374172454 0,0,1 80.55119134724316,330.42388595005923" style="fill: none; stroke-width: 2.33333; stroke: grey; stroke-opacity: 0.4;"></path><path d="M446.829453963677,493.5978805328143A329.88671012461697,329.88671012461697 0,0,1 553.8503818051315,181.55339248536097" style="fill: none; stroke-width: 2.33333; stroke: grey; stroke-opacity: 0.4;"></path><path d="M446.829453963677,493.5978805328143A151.24245133614195,151.24245133614195 0,0,1 349.06157076186145,608.9916416310705" style="fill: none; stroke-width: 2.33333; stroke: grey; stroke-opacity: 0.4;"></path><path d="M334.43920918364597,533.7011196397657A388.03494534318077,388.03494534318077 0,0,1 479.5297017318593,173.81243159914095" style="fill: none; stroke-width: 2.33333; stroke: grey; stroke-opacity: 0.4;"></path><path d="M334.43920918364597,533.7011196397657A76.65405648356774,76.65405648356774 0,0,1 377.8542451676783,470.52692375338205" style="fill: none; stroke-width: 2.33333; stroke: grey; stroke-opacity: 0.4;"></path><path d="M505.52165195951824,487.41828517023515A198.140954902137,198.140954902137 0,0,1 349.06157076186145,608.9916416310705" style="fill: none; stroke-width: 2.33333; stroke: grey; stroke-opacity: 0.4;"></path><path d="M643.1794257668374,260.2063247512713A119.02084627970962,119.02084627970962 0,0,1 553.8503818051315,181.55339248536097" style="fill: none; stroke-width: 2.33333; stroke: grey; stroke-opacity: 0.4;"></path><path d="M255.2893639383195,36.74644545226094A341.73069516478415,341.73069516478415 0,0,1 80.55119134724316,330.42388595005923" style="fill: none; stroke-width: 2.33333; stroke: grey; stroke-opacity: 0.4;"></path><path d="M568.5913161711413,584.5820108903981A547.2592943257376,547.2592943257376 0,0,1 121.5365430066092,268.93226034921196" style="fill: none; stroke-width: 2.33333; stroke: grey; stroke-opacity: 0.4;"></path><path d="M561.1033410816443,508.2214121438335A228.09174510085072,228.09174510085072 0,0,1 334.43920918364597,533.7011196397657" style="fill: none; stroke-width: 2.33333; stroke: grey; stroke-opacity: 0.4;"></path><path d="M561.1033410816443,508.2214121438335A344.2145042058939,344.2145042058939 0,0,1 479.5297017318593,173.81243159914095" style="fill: none; stroke-width: 2.33333; stroke: grey; stroke-opacity: 0.4;"></path><path d="M147.14749011241,347.49037284447576A475.9686981438204,475.9686981438204 0,0,1 553.0164358161787,98.86092863877745" style="fill: none; stroke-width: 2.33333; stroke: grey; stroke-opacity: 0.4;"></path><path d="M334.43920918364597,533.7011196397657A76.69730216798516,76.69730216798516 0,0,1 349.06157076186145,608.9916416310705" style="fill: none; stroke-width: 2.33333; stroke: grey; stroke-opacity: 0.4;"></path><path d="M553.0164358161787,98.86092863877745A104.9667941893857,104.9667941893857 0,0,1 479.5297017318593,173.81243159914095" style="fill: none; stroke-width: 2.33333; stroke: grey; stroke-opacity: 0.4;"></path><path d="M553.0164358161787,98.86092863877745A184.82884407889406,184.82884407889406 0,0,1 643.1794257668374,260.2063247512713" style="fill: none; stroke-width: 2.33333; stroke: grey; stroke-opacity: 0.4;"></path><path d="M553.0164358161787,98.86092863877745A526.1604417189092,526.1604417189092 0,0,1 80.55119134724316,330.42388595005923" style="fill: none; stroke-width: 2.33333; stroke: grey; stroke-opacity: 0.4;"></path><path d="M479.5297017318593,173.81243159914095A185.05441618806674,185.05441618806674 0,0,1 643.1794257668374,260.2063247512713" style="fill: none; stroke-width: 2.33333; stroke: grey; stroke-opacity: 0.4;"></path><path d="M643.1794257668374,260.2063247512713A566.9929770877374,566.9929770877374 0,0,1 80.55119134724316,330.42388595005923" style="fill: none; stroke-width: 2.33333; stroke: grey; stroke-opacity: 0.4;"></path><path d="M553.8503818051315,181.55339248536097A496.1598003793891,496.1598003793891 0,0,1 80.55119134724316,330.42388595005923" style="fill: none; stroke-width: 2.33333; stroke: grey; stroke-opacity: 0.4;"></path><path d="M80.55119134724316,330.42388595005923A386.9080231250547,386.9080231250547 0,0,1 349.06157076186145,608.9916416310705" style="fill: none; stroke-width: 2.33333; stroke: grey; stroke-opacity: 0.4;"></path><path d="M255.2893639383195,36.74644545226094A304.1374990863376,304.1374990863376 0,0,1 553.0164358161787,98.86092863877745" style="fill: none; stroke-width: 2.33333; stroke: grey; stroke-opacity: 0.4;"></path><path d="M193.89026367678358,292.8528107238029A352.1674246007223,352.1674246007223 0,0,1 349.06157076186145,608.9916416310705" style="fill: none; stroke-width: 2.33333; stroke: grey; stroke-opacity: 0.4;"></path><path d="M255.2893639383195,36.74644545226094A631.0958089163807,631.0958089163807 0,0,1 568.5913161711413,584.5820108903981" style="fill: none; stroke-width: 1.66667; stroke: grey; stroke-opacity: 0.4;"></path><path d="M255.2893639383195,36.74644545226094A267.95535028536256,267.95535028536256 0,0,1 121.5365430066092,268.93226034921196" style="fill: none; stroke-width: 1.66667; stroke: grey; stroke-opacity: 0.4;"></path><path d="M255.2893639383195,36.74644545226094A319.5901583402528,319.5901583402528 0,0,1 501.06919424841357,241.02601937165508" style="fill: none; stroke-width: 1.66667; stroke: grey; stroke-opacity: 0.4;"></path><path d="M255.2893639383195,36.74644545226094A262.8132676486816,262.8132676486816 0,0,1 479.5297017318593,173.81243159914095" style="fill: none; stroke-width: 1.66667; stroke: grey; stroke-opacity: 0.4;"></path><path d="M255.2893639383195,36.74644545226094A406.29515543511764,406.29515543511764 0,0,1 634.9640580521193,181.39387881918583" style="fill: none; stroke-width: 1.66667; stroke: grey; stroke-opacity: 0.4;"></path><path d="M255.2893639383195,36.74644545226094A447.65278701428826,447.65278701428826 0,0,1 643.1794257668374,260.2063247512713" style="fill: none; stroke-width: 1.66667; stroke: grey; stroke-opacity: 0.4;"></path><path d="M87.80317196849302,594.714329789206A480.894898592295,480.894898592295 0,0,1 568.5913161711413,584.5820108903981" style="fill: none; stroke-width: 1.66667; stroke: grey; stroke-opacity: 0.4;"></path><path d="M87.80317196849302,594.714329789206A327.52388781614127,327.52388781614127 0,0,1 121.5365430066092,268.93226034921196" style="fill: none; stroke-width: 1.66667; stroke: grey; stroke-opacity: 0.4;"></path><path d="M568.5913161711413,584.5820108903981A350.12848535555395,350.12848535555395 0,0,1 501.06919424841357,241.02601937165508" style="fill: none; stroke-width: 1.66667; stroke: grey; stroke-opacity: 0.4;"></path><path d="M568.5913161711413,584.5820108903981A474.8755678809143,474.8755678809143 0,0,1 193.89026367678358,292.8528107238029" style="fill: none; stroke-width: 1.66667; stroke: grey; stroke-opacity: 0.4;"></path><path d="M568.5913161711413,584.5820108903981A152.0002074510273,152.0002074510273 0,0,1 446.829453963677,493.5978805328143" style="fill: none; stroke-width: 1.66667; stroke: grey; stroke-opacity: 0.4;"></path><path d="M568.5913161711413,584.5820108903981A239.61651508429497,239.61651508429497 0,0,1 334.43920918364597,533.7011196397657" style="fill: none; stroke-width: 1.66667; stroke: grey; stroke-opacity: 0.4;"></path><path d="M568.5913161711413,584.5820108903981A332.84076050160814,332.84076050160814 0,0,1 643.1794257668374,260.2063247512713" style="fill: none; stroke-width: 1.66667; stroke: grey; stroke-opacity: 0.4;"></path><path d="M568.5913161711413,584.5820108903981A330.0535500299494,330.0535500299494 0,0,1 570.3612146502132,254.53320639817443" style="fill: none; stroke-width: 1.66667; stroke: grey; stroke-opacity: 0.4;"></path><path d="M121.5365430066092,268.93226034921196A315.7006130743207,315.7006130743207 0,0,1 433.61384386482734,221.2391226399865" style="fill: none; stroke-width: 1.66667; stroke: grey; stroke-opacity: 0.4;"></path><path d="M121.5365430066092,268.93226034921196A500.47803961465496,500.47803961465496 0,0,1 561.1033410816443,508.2214121438335" style="fill: none; stroke-width: 1.66667; stroke: grey; stroke-opacity: 0.4;"></path><path d="M121.5365430066092,268.93226034921196A380.5572120511324,380.5572120511324 0,0,1 501.06919424841357,241.02601937165508" style="fill: none; stroke-width: 1.66667; stroke: grey; stroke-opacity: 0.4;"></path><path d="M121.5365430066092,268.93226034921196A76.20533855997861,76.20533855997861 0,0,1 193.89026367678358,292.8528107238029" style="fill: none; stroke-width: 1.66667; stroke: grey; stroke-opacity: 0.4;"></path><path d="M121.5365430066092,268.93226034921196A395.33545099245214,395.33545099245214 0,0,1 446.829453963677,493.5978805328143" style="fill: none; stroke-width: 1.66667; stroke: grey; stroke-opacity: 0.4;"></path><path d="M121.5365430066092,268.93226034921196A339.7500465273137,339.7500465273137 0,0,1 334.43920918364597,533.7011196397657" style="fill: none; stroke-width: 1.66667; stroke: grey; stroke-opacity: 0.4;"></path><path d="M121.5365430066092,268.93226034921196A463.7878348649502,463.7878348649502 0,0,1 553.0164358161787,98.86092863877745" style="fill: none; stroke-width: 1.66667; stroke: grey; stroke-opacity: 0.4;"></path><path d="M121.5365430066092,268.93226034921196A370.41447530506275,370.41447530506275 0,0,1 479.5297017318593,173.81243159914095" style="fill: none; stroke-width: 1.66667; stroke: grey; stroke-opacity: 0.4;"></path><path d="M121.5365430066092,268.93226034921196A521.7158604896545,521.7158604896545 0,0,1 643.1794257668374,260.2063247512713" style="fill: none; stroke-width: 1.66667; stroke: grey; stroke-opacity: 0.4;"></path><path d="M121.5365430066092,268.93226034921196A441.0559168244805,441.0559168244805 0,0,1 553.8503818051315,181.55339248536097" style="fill: none; stroke-width: 1.66667; stroke: grey; stroke-opacity: 0.4;"></path><path d="M121.5365430066092,268.93226034921196A449.0555852349171,449.0555852349171 0,0,1 570.3612146502132,254.53320639817443" style="fill: none; stroke-width: 1.66667; stroke: grey; stroke-opacity: 0.4;"></path><path d="M121.5365430066092,268.93226034921196A409.1552529942989,409.1552529942989 0,0,1 349.06157076186145,608.9916416310705" style="fill: none; stroke-width: 1.66667; stroke: grey; stroke-opacity: 0.4;"></path><path d="M632.5045433448464,523.1461009459243A311.23462439062513,311.23462439062513 0,0,1 501.06919424841357,241.02601937165508" style="fill: none; stroke-width: 1.66667; stroke: grey; stroke-opacity: 0.4;"></path><path d="M632.5045433448464,523.1461009459243A495.3962917201378,495.3962917201378 0,0,1 193.89026367678358,292.8528107238029" style="fill: none; stroke-width: 1.66667; stroke: grey; stroke-opacity: 0.4;"></path><path d="M632.5045433448464,523.1461009459243A188.0115319502689,188.0115319502689 0,0,1 446.829453963677,493.5978805328143" style="fill: none; stroke-width: 1.66667; stroke: grey; stroke-opacity: 0.4;"></path><path d="M632.5045433448464,523.1461009459243A298.2521615148085,298.2521615148085 0,0,1 334.43920918364597,533.7011196397657" style="fill: none; stroke-width: 1.66667; stroke: grey; stroke-opacity: 0.4;"></path><path d="M632.5045433448464,523.1461009459243A341.7610723022136,341.7610723022136 0,0,1 634.9640580521193,181.39387881918583" style="fill: none; stroke-width: 1.66667; stroke: grey; stroke-opacity: 0.4;"></path><path d="M632.5045433448464,523.1461009459243A350.5311050405356,350.5311050405356 0,0,1 553.8503818051315,181.55339248536097" style="fill: none; stroke-width: 1.66667; stroke: grey; stroke-opacity: 0.4;"></path><path d="M433.61384386482734,221.2391226399865A70.29755029616682,70.29755029616682 0,0,1 501.06919424841357,241.02601937165508" style="fill: none; stroke-width: 1.66667; stroke: grey; stroke-opacity: 0.4;"></path><path d="M433.61384386482734,221.2391226399865A213.15763171491145,213.15763171491145 0,0,1 643.1794257668374,260.2063247512713" style="fill: none; stroke-width: 1.66667; stroke: grey; stroke-opacity: 0.4;"></path><path d="M433.61384386482734,221.2391226399865A396.86408614387057,396.86408614387057 0,0,1 349.06157076186145,608.9916416310705" style="fill: none; stroke-width: 1.66667; stroke: grey; stroke-opacity: 0.4;"></path><path d="M501.06919424841357,241.02601937165508A369.5879208238799,369.5879208238799 0,0,1 147.14749011241,347.49037284447576" style="fill: none; stroke-width: 1.66667; stroke: grey; stroke-opacity: 0.4;"></path><path d="M501.06919424841357,241.02601937165508A336.7851930231394,336.7851930231394 0,0,1 334.43920918364597,533.7011196397657" style="fill: none; stroke-width: 1.66667; stroke: grey; stroke-opacity: 0.4;"></path><path d="M501.06919424841357,241.02601937165508A146.5736222513531,146.5736222513531 0,0,1 634.9640580521193,181.39387881918583" style="fill: none; stroke-width: 1.66667; stroke: grey; stroke-opacity: 0.4;"></path><path d="M501.06919424841357,241.02601937165508A143.3987517960856,143.3987517960856 0,0,1 643.1794257668374,260.2063247512713" style="fill: none; stroke-width: 1.66667; stroke: grey; stroke-opacity: 0.4;"></path><path d="M147.14749011241,347.49037284447576A375.02261515307896,375.02261515307896 0,0,1 479.5297017318593,173.81243159914095" style="fill: none; stroke-width: 1.66667; stroke: grey; stroke-opacity: 0.4;"></path><path d="M147.14749011241,347.49037284447576A515.3183960271264,515.3183960271264 0,0,1 634.9640580521193,181.39387881918583" style="fill: none; stroke-width: 1.66667; stroke: grey; stroke-opacity: 0.4;"></path><path d="M147.14749011241,347.49037284447576A503.6528429787872,503.6528429787872 0,0,1 643.1794257668374,260.2063247512713" style="fill: none; stroke-width: 1.66667; stroke: grey; stroke-opacity: 0.4;"></path><path d="M147.14749011241,347.49037284447576A439.25200461912846,439.25200461912846 0,0,1 553.8503818051315,181.55339248536097" style="fill: none; stroke-width: 1.66667; stroke: grey; stroke-opacity: 0.4;"></path><path d="M193.89026367678358,292.8528107238029A343.05201941621505,343.05201941621505 0,0,1 409.64038904585243,559.5672112138669" style="fill: none; stroke-width: 1.66667; stroke: grey; stroke-opacity: 0.4;"></path><path d="M193.89026367678358,292.8528107238029A322.91921131393553,322.91921131393553 0,0,1 446.829453963677,493.5978805328143" style="fill: none; stroke-width: 1.66667; stroke: grey; stroke-opacity: 0.4;"></path><path d="M193.89026367678358,292.8528107238029A376.7742655001664,376.7742655001664 0,0,1 553.8503818051315,181.55339248536097" style="fill: none; stroke-width: 1.66667; stroke: grey; stroke-opacity: 0.4;"></path><path d="M446.829453963677,493.5978805328143A321.4530129798312,321.4530129798312 0,0,1 479.5297017318593,173.81243159914095" style="fill: none; stroke-width: 1.66667; stroke: grey; stroke-opacity: 0.4;"></path><path d="M334.43920918364597,533.7011196397657A443.65707567725013,443.65707567725013 0,0,1 490.2205618603227,118.29316237761343" style="fill: none; stroke-width: 1.66667; stroke: grey; stroke-opacity: 0.4;"></path><path d="M334.43920918364597,533.7011196397657A325.2395414727999,325.2395414727999 0,0,1 80.55119134724316,330.42388595005923" style="fill: none; stroke-width: 1.66667; stroke: grey; stroke-opacity: 0.4;"></path><path d="M553.0164358161787,98.86092863877745A82.69666887445355,82.69666887445355 0,0,1 553.8503818051315,181.55339248536097" style="fill: none; stroke-width: 1.66667; stroke: grey; stroke-opacity: 0.4;"></path><path d="M553.0164358161787,98.86092863877745A156.6355624230986,156.6355624230986 0,0,1 570.3612146502132,254.53320639817443" style="fill: none; stroke-width: 1.66667; stroke: grey; stroke-opacity: 0.4;"></path><path d="M505.52165195951824,487.41828517023515A309.6594883184106,309.6594883184106 0,0,1 553.8503818051315,181.55339248536097" style="fill: none; stroke-width: 1.66667; stroke: grey; stroke-opacity: 0.4;"></path><path d="M479.5297017318593,173.81243159914095A121.51628377790928,121.51628377790928 0,0,1 570.3612146502132,254.53320639817443" style="fill: none; stroke-width: 1.66667; stroke: grey; stroke-opacity: 0.4;"></path><path d="M479.5297017318593,173.81243159914095A313.65169905786234,313.65169905786234 0,0,1 377.8542451676783,470.52692375338205" style="fill: none; stroke-width: 1.66667; stroke: grey; stroke-opacity: 0.4;"></path><path d="M634.9640580521193,181.39387881918583A79.2394718589538,79.2394718589538 0,0,1 643.1794257668374,260.2063247512713" style="fill: none; stroke-width: 1.66667; stroke: grey; stroke-opacity: 0.4;"></path><path d="M643.1794257668374,260.2063247512713A338.57378195097016,338.57378195097016 0,0,1 377.8542451676783,470.52692375338205" style="fill: none; stroke-width: 1.66667; stroke: grey; stroke-opacity: 0.4;"></path><path d="M553.8503818051315,181.55339248536097A338.34943754175066,338.34943754175066 0,0,1 377.8542451676783,470.52692375338205" style="fill: none; stroke-width: 1.66667; stroke: grey; stroke-opacity: 0.4;"></path><path d="M570.3612146502132,254.53320639817443A495.65436966791987,495.65436966791987 0,0,1 80.55119134724316,330.42388595005923" style="fill: none; stroke-width: 1.66667; stroke: grey; stroke-opacity: 0.4;"></path><path d="M570.3612146502132,254.53320639817443A417.8687768820069,417.8687768820069 0,0,1 349.06157076186145,608.9916416310705" style="fill: none; stroke-width: 1.66667; stroke: grey; stroke-opacity: 0.4;"></path><path d="M349.06157076186145,608.9916416310705A141.42664599143694,141.42664599143694 0,0,1 377.8542451676783,470.52692375338205" style="fill: none; stroke-width: 1.66667; stroke: grey; stroke-opacity: 0.4;"></path></g><circle r="36.338921978626836" style="fill: rgb(44, 160, 44); stroke: rgb(85, 85, 85); stroke-width: 2px;" cx="121.5365430066092" cy="268.93226034921196"></circle><circle r="33.798561000070634" style="fill: rgb(255, 127, 14); stroke: rgb(85, 85, 85); stroke-width: 2px;" cx="491.38401741229615" cy="555.891345677483"></circle><circle r="33.798561000070634" style="fill: rgb(255, 127, 14); stroke: rgb(85, 85, 85); stroke-width: 2px;" cx="568.5913161711413" cy="584.5820108903981"></circle><circle r="31.746445452260946" style="fill: rgb(255, 127, 14); stroke: rgb(85, 85, 85); stroke-width: 2px;" cx="634.9640580521193" cy="181.39387881918583"></circle><circle r="32.91758067261333" style="fill: rgb(255, 127, 14); stroke: rgb(85, 85, 85); stroke-width: 2px;" cx="643.1794257668374" cy="260.2063247512713"></circle><circle r="31.746445452260946" style="fill: rgb(44, 160, 44); stroke: rgb(85, 85, 85); stroke-width: 2px;" cx="255.2893639383195" cy="36.74644545226094"></circle><circle r="32.91758067261333" style="fill: rgb(255, 127, 14); stroke: rgb(85, 85, 85); stroke-width: 2px;" cx="409.64038904585243" cy="559.5672112138669"></circle><circle r="33.798561000070634" style="fill: rgb(255, 127, 14); stroke: rgb(85, 85, 85); stroke-width: 2px;" cx="553.0164358161787" cy="98.86092863877745"></circle><circle r="30.182491820837868" style="fill: rgb(44, 160, 44); stroke: rgb(85, 85, 85); stroke-width: 2px;" cx="632.5045433448464" cy="523.1461009459243"></circle><circle r="31.746445452260946" style="fill: rgb(255, 127, 14); stroke: rgb(85, 85, 85); stroke-width: 2px;" cx="147.14749011241" cy="347.49037284447576"></circle><circle r="25.457922621654813" style="fill: rgb(204, 51, 204); stroke: rgb(85, 85, 85); stroke-width: 2px;" cx="193.89026367678358" cy="292.8528107238029"></circle><circle r="16.944625405440593" style="fill: rgb(255, 127, 14); stroke: rgb(85, 85, 85); stroke-width: 2px;" cx="490.2205618603227" cy="118.29316237761343"></circle><circle r="25.457922621654813" style="fill: rgb(255, 127, 14); stroke: rgb(85, 85, 85); stroke-width: 2px;" cx="479.5297017318593" cy="173.81243159914095"></circle><circle r="28.111070110015703" style="fill: rgb(255, 127, 14); stroke: rgb(85, 85, 85); stroke-width: 2px;" cx="446.829453963677" cy="493.5978805328143"></circle><circle r="34.46832179295342" style="fill: rgb(255, 127, 14); stroke: rgb(85, 85, 85); stroke-width: 2px;" cx="553.8503818051315" cy="181.55339248536097"></circle><circle r="30.182491820837868" style="fill: rgb(255, 127, 14); stroke: rgb(85, 85, 85); stroke-width: 2px;" cx="349.06157076186145" cy="608.9916416310705"></circle><circle r="28.111070110015703" style="fill: rgb(255, 127, 14); stroke: rgb(85, 85, 85); stroke-width: 2px;" cx="561.1033410816443" cy="508.2214121438335"></circle><circle r="25.457922621654813" style="fill: rgb(255, 127, 14); stroke: rgb(85, 85, 85); stroke-width: 2px;" cx="570.3612146502132" cy="254.53320639817443"></circle><circle r="22.324305847321092" style="fill: rgb(255, 127, 14); stroke: rgb(85, 85, 85); stroke-width: 2px;" cx="80.55119134724316" cy="330.42388595005923"></circle><circle r="30.182491820837868" style="fill: rgb(255, 127, 14); stroke: rgb(85, 85, 85); stroke-width: 2px;" cx="377.8542451676783" cy="470.52692375338205"></circle><circle r="25.457922621654813" style="fill: rgb(44, 160, 44); stroke: rgb(85, 85, 85); stroke-width: 2px;" cx="433.61384386482734" cy="221.2391226399865"></circle><circle r="31.746445452260946" style="fill: rgb(255, 127, 14); stroke: rgb(85, 85, 85); stroke-width: 2px;" cx="334.43920918364597" cy="533.7011196397657"></circle><circle r="16.25" style="fill: rgb(44, 160, 44); stroke: rgb(85, 85, 85); stroke-width: 2px;" cx="505.52165195951824" cy="487.41828517023515"></circle><circle r="22.324305847321092" style="fill: rgb(44, 160, 44); stroke: rgb(85, 85, 85); stroke-width: 2px;" cx="87.80317196849302" cy="594.714329789206"></circle><circle r="30.182491820837868" style="fill: rgb(255, 127, 14); stroke: rgb(85, 85, 85); stroke-width: 2px;" cx="501.06919424841357" cy="241.02601937165508"></circle><g><text x="102.4107945968056" y="274.98874734564976" style="font-style: normal; font-variant: normal; font-weight: bold; font-stretch: normal; font-size: 14.5356px; line-height: normal; font-family: sans-serif; pointer-events: none;">CLB1</text><text x="473.5953010964695" y="561.5244391774947" style="font-style: normal; font-variant: normal; font-weight: bold; font-stretch: normal; font-size: 13.5194px; line-height: normal; font-family: sans-serif; pointer-events: none;">SSB2</text><text x="546.0589421710943" y="590.2151043904099" style="font-style: normal; font-variant: normal; font-weight: bold; font-stretch: normal; font-size: 13.5194px; line-height: normal; font-family: sans-serif; pointer-events: none;">CDC28</text><text x="613.7997610839453" y="186.68495306122932" style="font-style: normal; font-variant: normal; font-weight: bold; font-stretch: normal; font-size: 12.6986px; line-height: normal; font-family: sans-serif; pointer-events: none;">SPT10</text><text x="625.8543833075672" y="265.6925881967069" style="font-style: normal; font-variant: normal; font-weight: bold; font-stretch: normal; font-size: 13.167px; line-height: normal; font-family: sans-serif; pointer-events: none;">SPT3</text><text x="238.58070843712952" y="42.037519694304436" style="font-style: normal; font-variant: normal; font-weight: bold; font-stretch: normal; font-size: 12.6986px; line-height: normal; font-family: sans-serif; pointer-events: none;">BUB3</text><text x="392.3153465865823" y="565.0534746593025" style="font-style: normal; font-variant: normal; font-weight: bold; font-stretch: normal; font-size: 13.167px; line-height: normal; font-family: sans-serif; pointer-events: none;">PUF3</text><text x="530.4840618161317" y="104.49402213878922" style="font-style: normal; font-variant: normal; font-weight: bold; font-stretch: normal; font-size: 13.5194px; line-height: normal; font-family: sans-serif; pointer-events: none;">SGF73</text><text x="616.6190213338791" y="528.1765162493973" style="font-style: normal; font-variant: normal; font-weight: bold; font-stretch: normal; font-size: 12.073px; line-height: normal; font-family: sans-serif; pointer-events: none;">CLB2</text><text x="130.43883461122002" y="352.7814470865192" style="font-style: normal; font-variant: normal; font-weight: bold; font-stretch: normal; font-size: 12.6986px; line-height: normal; font-family: sans-serif; pointer-events: none;">IXR1</text><text x="180.49135703380736" y="297.09579782741207" style="font-style: normal; font-variant: normal; font-weight: bold; font-stretch: normal; font-size: 10.1832px; line-height: normal; font-family: sans-serif; pointer-events: none;">PTC1</text><text x="481.3023379627224" y="121.11726661185352" style="font-style: normal; font-variant: normal; font-weight: bold; font-stretch: normal; font-size: 6.77785px; line-height: normal; font-family: sans-serif; pointer-events: none;">SFP1</text><text x="466.1307950888831" y="178.05541870275007" style="font-style: normal; font-variant: normal; font-weight: bold; font-stretch: normal; font-size: 10.1832px; line-height: normal; font-family: sans-serif; pointer-events: none;">SIN4</text><text x="428.0887405569999" y="498.2830588844836" style="font-style: normal; font-variant: normal; font-weight: bold; font-stretch: normal; font-size: 11.2444px; line-height: normal; font-family: sans-serif; pointer-events: none;">RAD51</text><text x="535.7091598088402" y="187.29811278418654" style="font-style: normal; font-variant: normal; font-weight: bold; font-stretch: normal; font-size: 13.7873px; line-height: normal; font-family: sans-serif; pointer-events: none;">SWI6</text><text x="333.17604875089415" y="614.0220569345435" style="font-style: normal; font-variant: normal; font-weight: bold; font-stretch: normal; font-size: 12.073px; line-height: normal; font-family: sans-serif; pointer-events: none;">XRN1</text><text x="546.3080410237413" y="512.9065904955028" style="font-style: normal; font-variant: normal; font-weight: bold; font-stretch: normal; font-size: 11.2444px; line-height: normal; font-family: sans-serif; pointer-events: none;">ELM1</text><text x="553.3892662357767" y="258.77619350178355" style="font-style: normal; font-variant: normal; font-weight: bold; font-stretch: normal; font-size: 10.1832px; line-height: normal; font-family: sans-serif; pointer-events: none;">TAF12</text><text x="68.80155669075837" y="334.1446035912794" style="font-style: normal; font-variant: normal; font-weight: bold; font-stretch: normal; font-size: 8.92972px; line-height: normal; font-family: sans-serif; pointer-events: none;">UBP6</text><text x="361.968723156711" y="475.557339056855" style="font-style: normal; font-variant: normal; font-weight: bold; font-stretch: normal; font-size: 12.073px; line-height: normal; font-family: sans-serif; pointer-events: none;">YAP1</text><text x="420.21493722185113" y="225.48210974359563" style="font-style: normal; font-variant: normal; font-weight: bold; font-stretch: normal; font-size: 10.1832px; line-height: normal; font-family: sans-serif; pointer-events: none;">DCC1</text><text x="317.730553682456" y="538.9921938818092" style="font-style: normal; font-variant: normal; font-weight: bold; font-stretch: normal; font-size: 12.6986px; line-height: normal; font-family: sans-serif; pointer-events: none;">RAS2</text><text x="496.9690203805709" y="490.12661850356847" style="font-style: normal; font-variant: normal; font-weight: bold; font-stretch: normal; font-size: 6.5px; line-height: normal; font-family: sans-serif; pointer-events: none;">SIC1</text><text x="72.92030140361229" y="598.4350474304262" style="font-style: normal; font-variant: normal; font-weight: bold; font-stretch: normal; font-size: 8.92972px; line-height: normal; font-family: sans-serif; pointer-events: none;">CDC14</text><text x="485.1836722374463" y="246.05643467512806" style="font-style: normal; font-variant: normal; font-weight: bold; font-stretch: normal; font-size: 12.073px; line-height: normal; font-family: sans-serif; pointer-events: none;">HIR1</text></g></svg>