<svg width="835" height="700" title="svg_title" version="1.1" xmlns="http://www.w3.org/2000/svg"><g class="link"><path marker-end="url(#blue_arrow)" style="fill: none; stroke-width: 2.33333; stroke: blue; stroke-opacity: 0.4;" d="M456.12679006714217,524.4587045894563A133.91253095392352,133.91253095392352 0,0,1 324.13501303265974,501.8592191580354"></path><path marker-end="url(#blue_arrow)" style="fill: none; stroke-width: 2.33333; stroke: blue; stroke-opacity: 0.4;" d="M456.12679006714217,524.4587045894563A204.66168650477638,204.66168650477638 0,0,1 273.1157422126769,432.8434095444149"></path><path marker-end="url(#blue_arrow)" style="fill: none; stroke-width: 1.66667; stroke: blue; stroke-opacity: 0.4;" d="M341.9949784031135,299.32594712435974A376.40098408902224,376.40098408902224 0,0,1 626.3357492024292,52.69256154074608"></path><path marker-end="url(#blue_arrow)" style="fill: none; stroke-width: 1.66667; stroke: blue; stroke-opacity: 0.4;" d="M378.2749031037083,258.45347771333945A371.16820243536876,371.16820243536876 0,0,1 726.7801831752174,386.16371325216335"></path><path marker-end="url(#blue_arrow)" style="fill: none; stroke-width: 1.66667; stroke: blue; stroke-opacity: 0.4;" d="M378.2749031037083,258.45347771333945A322.29138677817355,322.29138677817355 0,0,1 626.3357492024292,52.69256154074608"></path><path marker-end="url(#blue_arrow)" style="fill: none; stroke-width: 1.66667; stroke: blue; stroke-opacity: 0.4;" d="M378.2749031037083,258.45347771333945A249.35413103685968,249.35413103685968 0,0,1 324.13501303265974,501.8592191580354"></path><path marker-end="url(#blue_arrow)" style="fill: none; stroke-width: 1.66667; stroke: blue; stroke-opacity: 0.4;" d="M256.6091390561935,362.47717202711056A470.76731297232106,470.76731297232106 0,0,1 726.7801831752174,386.16371325216335"></path><path marker-end="url(#blue_arrow)" style="fill: none; stroke-width: 1.66667; stroke: blue; stroke-opacity: 0.4;" d="M256.6091390561935,362.47717202711056A256.99282082613314,256.99282082613314 0,0,1 456.12679006714217,524.4587045894563"></path><path marker-end="url(#blue_arrow)" style="fill: none; stroke-width: 1.66667; stroke: blue; stroke-opacity: 0.4;" d="M327.83477881136054,365.59143014325696A67.7615340160333,67.7615340160333 0,0,1 341.9949784031135,299.32594712435974"></path><path marker-end="url(#blue_arrow)" style="fill: none; stroke-width: 1.66667; stroke: blue; stroke-opacity: 0.4;" d="M327.83477881136054,365.59143014325696A118.41768022344787,118.41768022344787 0,0,1 378.2749031037083,258.45347771333945"></path><path marker-end="url(#blue_arrow)" style="fill: none; stroke-width: 1.66667; stroke: blue; stroke-opacity: 0.4;" d="M327.83477881136054,365.59143014325696A71.29369090001454,71.29369090001454 0,0,1 256.6091390561935,362.47717202711056"></path><path marker-end="url(#blue_arrow)" style="fill: none; stroke-width: 1.66667; stroke: blue; stroke-opacity: 0.4;" d="M327.83477881136054,365.59143014325696A71.12743980327058,71.12743980327058 0,0,1 344.7285698286961,434.6834884280589"></path><path marker-end="url(#blue_arrow)" style="fill: none; stroke-width: 1.66667; stroke: blue; stroke-opacity: 0.4;" d="M327.83477881136054,365.59143014325696A119.57988641084381,119.57988641084381 0,0,1 310.88720145451913,247.21859180707366"></path><path marker-end="url(#blue_arrow)" style="fill: none; stroke-width: 1.66667; stroke: blue; stroke-opacity: 0.4;" d="M327.83477881136054,365.59143014325696A179.47145095323776,179.47145095323776 0,0,1 390.9188333543839,533.6104879006235"></path><path marker-end="url(#blue_arrow)" style="fill: none; stroke-width: 1.66667; stroke: blue; stroke-opacity: 0.4;" d="M327.83477881136054,365.59143014325696A144.59316021247707,144.59316021247707 0,0,1 468.85381262935147,333.64124890321716"></path><path marker-end="url(#blue_arrow)" style="fill: none; stroke-width: 1.66667; stroke: blue; stroke-opacity: 0.4;" d="M327.83477881136054,365.59143014325696A83.85580050823894,83.85580050823894 0,0,1 403.93408309151755,400.8148764106744"></path><path marker-end="url(#blue_arrow)" style="fill: none; stroke-width: 1.66667; stroke: blue; stroke-opacity: 0.4;" d="M327.83477881136054,365.59143014325696A156.08453524614765,156.08453524614765 0,0,1 455.5797858188371,455.2775234223472"></path><path marker-end="url(#blue_arrow)" style="fill: none; stroke-width: 1.66667; stroke: blue; stroke-opacity: 0.4;" d="M327.83477881136054,365.59143014325696A186.48269593776857,186.48269593776857 0,0,1 403.70843332091556,195.24183538124137"></path><path marker-end="url(#blue_arrow)" style="fill: none; stroke-width: 1.66667; stroke: blue; stroke-opacity: 0.4;" d="M327.83477881136054,365.59143014325696A75.05487330140566,75.05487330140566 0,0,1 279.7299868563438,307.9792526348984"></path><path marker-end="url(#blue_arrow)" style="fill: none; stroke-width: 1.66667; stroke: blue; stroke-opacity: 0.4;" d="M327.83477881136054,365.59143014325696A147.41027259470968,147.41027259470968 0,0,1 232.6968081607855,252.9923404180867"></path><path marker-end="url(#blue_arrow)" style="fill: none; stroke-width: 1.66667; stroke: blue; stroke-opacity: 0.4;" d="M327.83477881136054,365.59143014325696A123.58654387574116,123.58654387574116 0,0,1 391.5788122179871,471.4702855970508"></path><path marker-end="url(#blue_arrow)" style="fill: none; stroke-width: 1.66667; stroke: blue; stroke-opacity: 0.4;" d="M327.83477881136054,365.59143014325696A136.31800537637503,136.31800537637503 0,0,1 324.13501303265974,501.8592191580354"></path><path marker-end="url(#blue_arrow)" style="fill: none; stroke-width: 1.66667; stroke: blue; stroke-opacity: 0.4;" d="M327.83477881136054,365.59143014325696A204.20002703725973,204.20002703725973 0,0,1 456.12679006714217,524.4587045894563"></path><path marker-end="url(#blue_arrow)" style="fill: none; stroke-width: 1.66667; stroke: blue; stroke-opacity: 0.4;" d="M327.83477881136054,365.59143014325696A86.70064417097403,86.70064417097403 0,0,1 273.1157422126769,432.8434095444149"></path><path marker-end="url(#blue_arrow)" style="fill: none; stroke-width: 1.66667; stroke: blue; stroke-opacity: 0.4;" d="M727.6264849283682,301.6474996042146A84.52045075627025,84.52045075627025 0,0,1 726.7801831752174,386.16371325216335"></path><path marker-end="url(#blue_arrow)" style="fill: none; stroke-width: 1.66667; stroke: blue; stroke-opacity: 0.4;" d="M727.6264849283682,301.6474996042146A404.8731091746273,404.8731091746273 0,0,1 327.83477881136054,365.59143014325696"></path><path marker-end="url(#blue_arrow)" style="fill: none; stroke-width: 1.66667; stroke: blue; stroke-opacity: 0.4;" d="M727.6264849283682,301.6474996042146A268.7719745994502,268.7719745994502 0,0,1 626.3357492024292,52.69256154074608"></path><path marker-end="url(#blue_arrow)" style="fill: none; stroke-width: 1.66667; stroke: blue; stroke-opacity: 0.4;" d="M727.6264849283682,301.6474996042146A338.54237493936205,338.54237493936205 0,0,1 403.93408309151755,400.8148764106744"></path><path marker-end="url(#blue_arrow)" style="fill: none; stroke-width: 1.66667; stroke: blue; stroke-opacity: 0.4;" d="M727.6264849283682,301.6474996042146A157.45817623008324,157.45817623008324 0,0,1 706.3934520651068,457.66748414828385"></path><path marker-end="url(#blue_arrow)" style="fill: none; stroke-width: 1.66667; stroke: blue; stroke-opacity: 0.4;" d="M727.6264849283682,301.6474996042146A450.43323649489173,450.43323649489173 0,0,1 324.13501303265974,501.8592191580354"></path><path marker-end="url(#blue_arrow)" style="fill: none; stroke-width: 1.66667; stroke: blue; stroke-opacity: 0.4;" d="M727.6264849283682,301.6474996042146A330.61120811909854,330.61120811909854 0,0,1 397.76572427230366,323.9106870079171"></path><path marker-end="url(#blue_arrow)" style="fill: none; stroke-width: 1.66667; stroke: blue; stroke-opacity: 0.4;" d="M727.6264849283682,301.6474996042146A278.6480683640604,278.6480683640604 0,0,1 452.2678038152091,258.958593098617"></path><path marker-end="url(#blue_arrow)" style="fill: none; stroke-width: 1.66667; stroke: blue; stroke-opacity: 0.4;" d="M344.7285698286961,434.6834884280589A258.6572916471359,258.6572916471359 0,0,1 332.2048595417044,176.32956218949946"></path><path marker-end="url(#blue_arrow)" style="fill: none; stroke-width: 1.66667; stroke: blue; stroke-opacity: 0.4;" d="M471.4181176610675,395.1478158779851A255.52005518871562,255.52005518871562 0,0,1 726.7801831752174,386.16371325216335"></path><path marker-end="url(#blue_arrow)" style="fill: none; stroke-width: 1.66667; stroke: blue; stroke-opacity: 0.4;" d="M471.4181176610675,395.1478158779851A272.73620331938173,272.73620331938173 0,0,1 727.6264849283682,301.6474996042146"></path><path marker-end="url(#blue_arrow)" style="fill: none; stroke-width: 1.66667; stroke: blue; stroke-opacity: 0.4;" d="M471.4181176610675,395.1478158779851A375.8657656472164,375.8657656472164 0,0,1 626.3357492024292,52.69256154074608"></path><path marker-end="url(#blue_arrow)" style="fill: none; stroke-width: 1.66667; stroke: blue; stroke-opacity: 0.4;" d="M471.4181176610675,395.1478158779851A243.15039933941765,243.15039933941765 0,0,1 706.3934520651068,457.66748414828385"></path><path marker-end="url(#blue_arrow)" style="fill: none; stroke-width: 1.66667; stroke: blue; stroke-opacity: 0.4;" d="M310.88720145451913,247.21859180707366A370.6051304656233,370.6051304656233 0,0,1 626.3357492024292,52.69256154074608"></path><path marker-end="url(#blue_arrow)" style="fill: none; stroke-width: 1.66667; stroke: blue; stroke-opacity: 0.4;" d="M310.88720145451913,247.21859180707366A180.06200572474546,180.06200572474546 0,0,1 468.85381262935147,333.64124890321716"></path><path marker-end="url(#blue_arrow)" style="fill: none; stroke-width: 1.66667; stroke: blue; stroke-opacity: 0.4;" d="M310.88720145451913,247.21859180707366A179.58157151110998,179.58157151110998 0,0,1 403.93408309151755,400.8148764106744"></path><path marker-end="url(#blue_arrow)" style="fill: none; stroke-width: 1.66667; stroke: blue; stroke-opacity: 0.4;" d="M310.88720145451913,247.21859180707366A253.4254584585265,253.4254584585265 0,0,1 455.5797858188371,455.2775234223472"></path><path marker-end="url(#blue_arrow)" style="fill: none; stroke-width: 1.66667; stroke: blue; stroke-opacity: 0.4;" d="M310.88720145451913,247.21859180707366A254.98500663627513,254.98500663627513 0,0,1 324.13501303265974,501.8592191580354"></path><path marker-end="url(#blue_arrow)" style="fill: none; stroke-width: 1.66667; stroke: blue; stroke-opacity: 0.4;" d="M390.9188333543839,533.6104879006235A133.43189707378616,133.43189707378616 0,0,1 403.93408309151755,400.8148764106744"></path><path marker-end="url(#blue_arrow)" style="fill: none; stroke-width: 1.66667; stroke: blue; stroke-opacity: 0.4;" d="M390.9188333543839,533.6104879006235A324.486632805735,324.486632805735 0,0,1 706.3934520651068,457.66748414828385"></path><path marker-end="url(#blue_arrow)" style="fill: none; stroke-width: 1.66667; stroke: blue; stroke-opacity: 0.4;" d="M468.85381262935147,333.64124890321716A30,20 -45,1,1 469.85381262935147,334.64124890321716"></path><path marker-end="url(#blue_arrow)" style="fill: none; stroke-width: 1.66667; stroke: blue; stroke-opacity: 0.4;" d="M468.85381262935147,333.64124890321716A221.90271849023918,221.90271849023918 0,0,1 324.13501303265974,501.8592191580354"></path><path marker-end="url(#blue_arrow)" style="fill: none; stroke-width: 1.66667; stroke: blue; stroke-opacity: 0.4;" d="M403.93408309151755,400.8148764106744A323.17837322622887,323.17837322622887 0,0,1 726.7801831752174,386.16371325216335"></path><path marker-end="url(#blue_arrow)" style="fill: none; stroke-width: 1.66667; stroke: blue; stroke-opacity: 0.4;" d="M403.93408309151755,400.8148764106744A413.1000450245763,413.1000450245763 0,0,1 626.3357492024292,52.69256154074608"></path><path marker-end="url(#blue_arrow)" style="fill: none; stroke-width: 1.66667; stroke: blue; stroke-opacity: 0.4;" d="M403.93408309151755,400.8148764106744A128.75500294553476,128.75500294553476 0,0,1 324.13501303265974,501.8592191580354"></path><path marker-end="url(#blue_arrow)" style="fill: none; stroke-width: 1.66667; stroke: blue; stroke-opacity: 0.4;" d="M455.5797858188371,455.2775234223472A279.86849462291894,279.86849462291894 0,0,1 726.7801831752174,386.16371325216335"></path><path marker-end="url(#blue_arrow)" style="fill: none; stroke-width: 1.66667; stroke: blue; stroke-opacity: 0.4;" d="M455.5797858188371,455.2775234223472A139.45458999409814,139.45458999409814 0,0,1 324.13501303265974,501.8592191580354"></path><path marker-end="url(#blue_arrow)" style="fill: none; stroke-width: 1.66667; stroke: blue; stroke-opacity: 0.4;" d="M455.5797858188371,455.2775234223472A143.52599563159976,143.52599563159976 0,0,1 397.76572427230366,323.9106870079171"></path><path marker-end="url(#blue_arrow)" style="fill: none; stroke-width: 1.66667; stroke: blue; stroke-opacity: 0.4;" d="M403.70843332091556,195.24183538124137A375.2685958132919,375.2685958132919 0,0,1 726.7801831752174,386.16371325216335"></path><path marker-end="url(#blue_arrow)" style="fill: none; stroke-width: 1.66667; stroke: blue; stroke-opacity: 0.4;" d="M403.70843332091556,195.24183538124137A264.3543403257449,264.3543403257449 0,0,1 626.3357492024292,52.69256154074608"></path><path marker-end="url(#blue_arrow)" style="fill: none; stroke-width: 1.66667; stroke: blue; stroke-opacity: 0.4;" d="M332.2048595417044,176.32956218949946A446.90050008103634,446.90050008103634 0,0,1 726.7801831752174,386.16371325216335"></path><path marker-end="url(#blue_arrow)" style="fill: none; stroke-width: 1.66667; stroke: blue; stroke-opacity: 0.4;" d="M332.2048595417044,176.32956218949946A414.8045892481296,414.8045892481296 0,0,1 727.6264849283682,301.6474996042146"></path><path marker-end="url(#blue_arrow)" style="fill: none; stroke-width: 1.66667; stroke: blue; stroke-opacity: 0.4;" d="M332.2048595417044,176.32956218949946A235.66658187371138,235.66658187371138 0,0,1 403.93408309151755,400.8148764106744"></path><path marker-end="url(#blue_arrow)" style="fill: none; stroke-width: 1.66667; stroke: blue; stroke-opacity: 0.4;" d="M332.2048595417044,176.32956218949946A73.96239004033178,73.96239004033178 0,0,1 403.70843332091556,195.24183538124137"></path><path marker-end="url(#blue_arrow)" style="fill: none; stroke-width: 1.66667; stroke: blue; stroke-opacity: 0.4;" d="M332.2048595417044,176.32956218949946A125.61462436895296,125.61462436895296 0,0,1 232.6968081607855,252.9923404180867"></path><path marker-end="url(#blue_arrow)" style="fill: none; stroke-width: 1.66667; stroke: blue; stroke-opacity: 0.4;" d="M332.2048595417044,176.32956218949946A145.74864437312132,145.74864437312132 0,0,1 452.2678038152091,258.958593098617"></path><path marker-end="url(#blue_arrow)" style="fill: none; stroke-width: 1.66667; stroke: blue; stroke-opacity: 0.4;" d="M279.7299868563438,307.9792526348984A453.8355295817595,453.8355295817595 0,0,1 726.7801831752174,386.16371325216335"></path><path marker-end="url(#blue_arrow)" style="fill: none; stroke-width: 1.66667; stroke: blue; stroke-opacity: 0.4;" d="M279.7299868563438,307.9792526348984A430.4728204443483,430.4728204443483 0,0,1 626.3357492024292,52.69256154074608"></path><path marker-end="url(#blue_arrow)" style="fill: none; stroke-width: 1.66667; stroke: blue; stroke-opacity: 0.4;" d="M279.7299868563438,307.9792526348984A198.9000949439995,198.9000949439995 0,0,1 324.13501303265974,501.8592191580354"></path><path marker-end="url(#blue_arrow)" style="fill: none; stroke-width: 1.66667; stroke: blue; stroke-opacity: 0.4;" d="M232.6968081607855,252.9923404180867A511.7157375029269,511.7157375029269 0,0,1 726.7801831752174,386.16371325216335"></path><path marker-end="url(#blue_arrow)" style="fill: none; stroke-width: 1.66667; stroke: blue; stroke-opacity: 0.4;" d="M232.6968081607855,252.9923404180867A441.6691265219906,441.6691265219906 0,0,1 626.3357492024292,52.69256154074608"></path><path marker-end="url(#blue_arrow)" style="fill: none; stroke-width: 1.66667; stroke: blue; stroke-opacity: 0.4;" d="M232.6968081607855,252.9923404180867A322.1502040242943,322.1502040242943 0,0,1 390.9188333543839,533.6104879006235"></path><path marker-end="url(#blue_arrow)" style="fill: none; stroke-width: 1.66667; stroke: blue; stroke-opacity: 0.4;" d="M232.6968081607855,252.9923404180867A249.5483464169002,249.5483464169002 0,0,1 468.85381262935147,333.64124890321716"></path><path marker-end="url(#blue_arrow)" style="fill: none; stroke-width: 1.66667; stroke: blue; stroke-opacity: 0.4;" d="M232.6968081607855,252.9923404180867A226.2160614832267,226.2160614832267 0,0,1 403.93408309151755,400.8148764106744"></path><path marker-end="url(#blue_arrow)" style="fill: none; stroke-width: 1.66667; stroke: blue; stroke-opacity: 0.4;" d="M232.6968081607855,252.9923404180867A265.13330353608006,265.13330353608006 0,0,1 324.13501303265974,501.8592191580354"></path><path marker-end="url(#blue_arrow)" style="fill: none; stroke-width: 1.66667; stroke: blue; stroke-opacity: 0.4;" d="M232.6968081607855,252.9923404180867A179.6584508150583,179.6584508150583 0,0,1 397.76572427230366,323.9106870079171"></path><path marker-end="url(#blue_arrow)" style="fill: none; stroke-width: 1.66667; stroke: blue; stroke-opacity: 0.4;" d="M391.5788122179871,471.4702855970508A30,20 -45,1,1 392.5788122179871,472.4702855970508"></path><path marker-end="url(#blue_arrow)" style="fill: none; stroke-width: 1.66667; stroke: blue; stroke-opacity: 0.4;" d="M391.5788122179871,471.4702855970508A73.97400443077755,73.97400443077755 0,0,1 324.13501303265974,501.8592191580354"></path><path marker-end="url(#blue_arrow)" style="fill: none; stroke-width: 1.66667; stroke: blue; stroke-opacity: 0.4;" d="M706.3934520651068,457.66748414828385A250.8250527522454,250.8250527522454 0,0,1 455.5797858188371,455.2775234223472"></path><path marker-end="url(#blue_arrow)" style="fill: none; stroke-width: 1.66667; stroke: blue; stroke-opacity: 0.4;" d="M706.3934520651068,457.66748414828385A433.98825852193846,433.98825852193846 0,0,1 273.1157422126769,432.8434095444149"></path><path marker-end="url(#blue_arrow)" style="fill: none; stroke-width: 1.66667; stroke: blue; stroke-opacity: 0.4;" d="M456.12679006714217,524.4587045894563A303.93875012886434,303.93875012886434 0,0,1 726.7801831752174,386.16371325216335"></path><path marker-end="url(#blue_arrow)" style="fill: none; stroke-width: 1.66667; stroke: blue; stroke-opacity: 0.4;" d="M456.12679006714217,524.4587045894563A208.8672338031861,208.8672338031861 0,0,1 397.76572427230366,323.9106870079171"></path><path marker-end="url(#blue_arrow)" style="fill: none; stroke-width: 1.66667; stroke: blue; stroke-opacity: 0.4;" d="M273.1157422126769,432.8434095444149A456.05966609621515,456.05966609621515 0,0,1 726.7801831752174,386.16371325216335"></path><path marker-end="url(#blue_arrow)" style="fill: none; stroke-width: 1.66667; stroke: blue; stroke-opacity: 0.4;" d="M273.1157422126769,432.8434095444149A71.63646396535579,71.63646396535579 0,0,1 344.7285698286961,434.6834884280589"></path><path marker-end="url(#blue_arrow)" style="fill: none; stroke-width: 1.66667; stroke: blue; stroke-opacity: 0.4;" d="M273.1157422126769,432.8434095444149A189.4287625818194,189.4287625818194 0,0,1 310.88720145451913,247.21859180707366"></path><path marker-end="url(#blue_arrow)" style="fill: none; stroke-width: 1.66667; stroke: blue; stroke-opacity: 0.4;" d="M273.1157422126769,432.8434095444149A518.9210350099032,518.9210350099032 0,0,1 626.3357492024292,52.69256154074608"></path><path marker-end="url(#blue_arrow)" style="fill: none; stroke-width: 1.66667; stroke: blue; stroke-opacity: 0.4;" d="M273.1157422126769,432.8434095444149A271.12535664468913,271.12535664468913 0,0,1 403.70843332091556,195.24183538124137"></path><path marker-end="url(#blue_arrow)" style="fill: none; stroke-width: 1.66667; stroke: blue; stroke-opacity: 0.4;" d="M273.1157422126769,432.8434095444149A125.03921749967343,125.03921749967343 0,0,1 279.7299868563438,307.9792526348984"></path><path marker-end="url(#blue_arrow)" style="fill: none; stroke-width: 1.66667; stroke: blue; stroke-opacity: 0.4;" d="M273.1157422126769,432.8434095444149A184.33691246132562,184.33691246132562 0,0,1 232.6968081607855,252.9923404180867"></path><path marker-end="url(#blue_arrow)" style="fill: none; stroke-width: 1.66667; stroke: blue; stroke-opacity: 0.4;" d="M273.1157422126769,432.8434095444149A433.98825852193846,433.98825852193846 0,0,1 706.3934520651068,457.66748414828385"></path><path marker-end="url(#blue_arrow)" style="fill: none; stroke-width: 1.66667; stroke: blue; stroke-opacity: 0.4;" d="M273.1157422126769,432.8434095444149A30,20 -45,1,1 274.1157422126769,433.8434095444149"></path><path marker-end="url(#blue_arrow)" style="fill: none; stroke-width: 1.66667; stroke: blue; stroke-opacity: 0.4;" d="M273.1157422126769,432.8434095444149A249.66255339322782,249.66255339322782 0,0,1 452.2678038152091,258.958593098617"></path><path marker-end="url(#blue_arrow)" style="fill: none; stroke-width: 1.66667; stroke: blue; stroke-opacity: 0.4;" d="M397.76572427230366,323.9106870079171A334.85213668684264,334.85213668684264 0,0,1 726.7801831752174,386.16371325216335"></path><path marker-end="url(#blue_arrow)" style="fill: none; stroke-width: 1.66667; stroke: blue; stroke-opacity: 0.4;" d="M397.76572427230366,323.9106870079171A128.806013717388,128.806013717388 0,0,1 403.70843332091556,195.24183538124137"></path><path marker-end="url(#blue_arrow)" style="fill: none; stroke-width: 1.66667; stroke: blue; stroke-opacity: 0.4;" d="M397.76572427230366,323.9106870079171A84.78945204271422,84.78945204271422 0,0,1 452.2678038152091,258.958593098617"></path><path marker-end="url(#blue_arrow)" style="fill: none; stroke-width: 1.66667; stroke: blue; stroke-opacity: 0.4;" d="M452.2678038152091,258.958593098617A73.9946247862266,73.9946247862266 0,0,1 378.2749031037083,258.45347771333945"></path><path marker-end="url(#blue_arrow)" style="fill: none; stroke-width: 1.66667; stroke: blue; stroke-opacity: 0.4;" d="M452.2678038152091,258.958593098617A221.35584310936002,221.35584310936002 0,0,1 256.6091390561935,362.47717202711056"></path><path marker-end="url(#blue_arrow)" style="fill: none; stroke-width: 1.66667; stroke: blue; stroke-opacity: 0.4;" d="M452.2678038152091,258.958593098617A206.019236201257,206.019236201257 0,0,1 344.7285698286961,434.6834884280589"></path><path marker-end="url(#blue_arrow)" style="fill: none; stroke-width: 1.66667; stroke: blue; stroke-opacity: 0.4;" d="M452.2678038152091,258.958593098617A269.8987317235129,269.8987317235129 0,0,1 626.3357492024292,52.69256154074608"></path><path marker-end="url(#blue_arrow)" style="fill: none; stroke-width: 1.66667; stroke: blue; stroke-opacity: 0.4;" d="M452.2678038152091,258.958593098617A281.4202542372096,281.4202542372096 0,0,1 390.9188333543839,533.6104879006235"></path><path marker-end="url(#blue_arrow)" style="fill: none; stroke-width: 1.66667; stroke: blue; stroke-opacity: 0.4;" d="M452.2678038152091,258.958593098617A80.11140790684439,80.11140790684439 0,0,1 403.70843332091556,195.24183538124137"></path><path marker-end="url(#blue_arrow)" style="fill: none; stroke-width: 1.66667; stroke: blue; stroke-opacity: 0.4;" d="M452.2678038152091,258.958593098617A221.00763142850198,221.00763142850198 0,0,1 391.5788122179871,471.4702855970508"></path><path marker-end="url(#blue_arrow)" style="fill: none; stroke-width: 1.66667; stroke: blue; stroke-opacity: 0.4;" d="M452.2678038152091,258.958593098617A274.6247006621618,274.6247006621618 0,0,1 324.13501303265974,501.8592191580354"></path></g><circle r="36.50795906298991" style="fill: rgb(255, 225, 25); stroke: rgb(85, 85, 85); stroke-width: 2px;" cx="327.83477881136054" cy="365.59143014325696"></circle><circle r="33.93682846344298" style="fill: rgb(255, 225, 25); stroke: rgb(85, 85, 85); stroke-width: 2px;" cx="727.6264849283682" cy="301.6474996042146"></circle><circle r="35.59627963139755" style="fill: rgb(0, 130, 200); stroke: rgb(85, 85, 85); stroke-width: 2px;" cx="273.1157422126769" cy="432.8434095444149"></circle><circle r="35.19043975353839" style="fill: rgb(248, 248, 255); stroke: rgb(85, 85, 85); stroke-width: 2px;" cx="452.2678038152091" cy="258.958593098617"></circle><circle r="33.93682846344298" style="fill: rgb(255, 225, 25); stroke: rgb(85, 85, 85); stroke-width: 2px;" cx="232.6968081607855" cy="252.9923404180867"></circle><circle r="27.101214678670573" style="fill: rgb(248, 248, 255); stroke: rgb(85, 85, 85); stroke-width: 2px;" cx="468.85381262935147" cy="333.64124890321716"></circle><circle r="29.699040435005685" style="fill: rgb(248, 248, 255); stroke: rgb(85, 85, 85); stroke-width: 2px;" cx="332.2048595417044" cy="176.32956218949946"></circle><circle r="27.101214678670573" style="fill: rgb(255, 225, 25); stroke: rgb(85, 85, 85); stroke-width: 2px;" cx="456.12679006714217" cy="524.4587045894563"></circle><circle r="29.699040435005685" style="fill: rgb(255, 225, 25); stroke: rgb(85, 85, 85); stroke-width: 2px;" cx="310.88720145451913" cy="247.21859180707366"></circle><circle r="29.699040435005685" style="fill: rgb(0, 130, 200); stroke: rgb(85, 85, 85); stroke-width: 2px;" cx="397.76572427230366" cy="323.9106870079171"></circle><circle r="20.072975358569096" style="fill: rgb(255, 225, 25); stroke: rgb(85, 85, 85); stroke-width: 2px;" cx="471.4181176610675" cy="395.1478158779851"></circle><circle r="20.072975358569096" style="fill: rgb(255, 225, 25); stroke: rgb(85, 85, 85); stroke-width: 2px;" cx="256.6091390561935" cy="362.47717202711056"></circle><circle r="27.101214678670573" style="fill: rgb(255, 225, 25); stroke: rgb(85, 85, 85); stroke-width: 2px;" cx="455.5797858188371" cy="455.2775234223472"></circle><circle r="23.756985648083166" style="fill: rgb(255, 225, 25); stroke: rgb(85, 85, 85); stroke-width: 2px;" cx="391.5788122179871" cy="471.4702855970508"></circle><circle r="20.072975358569096" style="fill: rgb(0, 130, 200); stroke: rgb(85, 85, 85); stroke-width: 2px;" cx="344.7285698286961" cy="434.6834884280589"></circle><circle r="23.756985648083166" style="fill: rgb(248, 248, 255); stroke: rgb(85, 85, 85); stroke-width: 2px;" cx="706.3934520651068" cy="457.66748414828385"></circle><circle r="23.756985648083166" style="fill: rgb(255, 225, 25); stroke: rgb(85, 85, 85); stroke-width: 2px;" cx="390.9188333543839" cy="533.6104879006235"></circle><circle r="23.756985648083166" style="fill: rgb(255, 225, 25); stroke: rgb(85, 85, 85); stroke-width: 2px;" cx="279.7299868563438" cy="307.9792526348984"></circle><circle r="35.59627963139755" style="fill: rgb(248, 248, 255); stroke: rgb(85, 85, 85); stroke-width: 2px;" cx="726.7801831752174" cy="386.16371325216335"></circle><circle r="29.699040435005685" style="fill: rgb(0, 130, 200); stroke: rgb(85, 85, 85); stroke-width: 2px;" cx="403.70843332091556" cy="195.24183538124137"></circle><circle r="23.756985648083166" style="fill: rgb(240, 50, 230); stroke: rgb(85, 85, 85); stroke-width: 2px;" cx="378.2749031037083" cy="258.45347771333945"></circle><circle r="34.65529989073922" style="fill: rgb(0, 130, 200); stroke: rgb(85, 85, 85); stroke-width: 2px;" cx="626.3357492024292" cy="52.69256154074608"></circle><circle r="32.95515433633528" style="fill: rgb(0, 130, 200); stroke: rgb(85, 85, 85); stroke-width: 2px;" cx="403.93408309151755" cy="400.8148764106744"></circle><circle r="35.19043975353839" style="fill: rgb(0, 130, 200); stroke: rgb(85, 85, 85); stroke-width: 2px;" cx="324.13501303265974" cy="501.8592191580354"></circle><circle r="16.25" style="fill: rgb(255, 225, 25); stroke: rgb(85, 85, 85); stroke-width: 2px;" cx="341.9949784031135" cy="299.32594712435974"></circle><g><text x="308.62006351505005" y="371.67608998708863" style="font-style: normal; font-variant: normal; font-weight: bold; font-stretch: normal; font-size: 14.6032px; line-height: normal; font-family: sans-serif; pointer-events: none;">FKH1</text><text x="709.7649962633982" y="307.3036376814551" style="font-style: normal; font-variant: normal; font-weight: bold; font-stretch: normal; font-size: 13.5747px; line-height: normal; font-family: sans-serif; pointer-events: none;">FKH2</text><text x="254.38085819615185" y="438.7761228163145" style="font-style: normal; font-variant: normal; font-weight: bold; font-stretch: normal; font-size: 14.2385px; line-height: normal; font-family: sans-serif; pointer-events: none;">XBP1</text><text x="433.74651973439944" y="264.82366639087337" style="font-style: normal; font-variant: normal; font-weight: bold; font-stretch: normal; font-size: 14.0762px; line-height: normal; font-family: sans-serif; pointer-events: none;">YAP6</text><text x="214.83531949581553" y="258.6484784953272" style="font-style: normal; font-variant: normal; font-weight: bold; font-stretch: normal; font-size: 13.5747px; line-height: normal; font-family: sans-serif; pointer-events: none;">SPT3</text><text x="454.59001543005115" y="338.1581180163289" style="font-style: normal; font-variant: normal; font-weight: bold; font-stretch: normal; font-size: 10.8405px; line-height: normal; font-family: sans-serif; pointer-events: none;">IXR1</text><text x="316.57378562854353" y="181.27940226200042" style="font-style: normal; font-variant: normal; font-weight: bold; font-stretch: normal; font-size: 11.8796px; line-height: normal; font-family: sans-serif; pointer-events: none;">RAP1</text><text x="441.86299286784185" y="528.975573702568" style="font-style: normal; font-variant: normal; font-weight: bold; font-stretch: normal; font-size: 10.8405px; line-height: normal; font-family: sans-serif; pointer-events: none;">UME6</text><text x="295.25612754135824" y="252.1684318795746" style="font-style: normal; font-variant: normal; font-weight: bold; font-stretch: normal; font-size: 11.8796px; line-height: normal; font-family: sans-serif; pointer-events: none;">HSF1</text><text x="382.13465035914277" y="328.860527080418" style="font-style: normal; font-variant: normal; font-weight: bold; font-stretch: normal; font-size: 11.8796px; line-height: normal; font-family: sans-serif; pointer-events: none;">YAP5</text><text x="460.85339378813643" y="398.49331177107996" style="font-style: normal; font-variant: normal; font-weight: bold; font-stretch: normal; font-size: 8.02919px; line-height: normal; font-family: sans-serif; pointer-events: none;">HFI1</text><text x="246.0444151832624" y="365.8226679202054" style="font-style: normal; font-variant: normal; font-weight: bold; font-stretch: normal; font-size: 8.02919px; line-height: normal; font-family: sans-serif; pointer-events: none;">FHL1</text><text x="441.31598861953677" y="459.79439253545894" style="font-style: normal; font-variant: normal; font-weight: bold; font-stretch: normal; font-size: 10.8405px; line-height: normal; font-family: sans-serif; pointer-events: none;">NCB2</text><text x="375.74082178593164" y="475.42978320506467" style="font-style: normal; font-variant: normal; font-weight: bold; font-stretch: normal; font-size: 9.50279px; line-height: normal; font-family: sans-serif; pointer-events: none;">STE12</text><text x="334.163845955765" y="438.02898432115376" style="font-style: normal; font-variant: normal; font-weight: bold; font-stretch: normal; font-size: 8.02919px; line-height: normal; font-family: sans-serif; pointer-events: none;">GLN3</text><text x="693.8897754082209" y="461.6269817562977" style="font-style: normal; font-variant: normal; font-weight: bold; font-stretch: normal; font-size: 9.50279px; line-height: normal; font-family: sans-serif; pointer-events: none;">SWI5</text><text x="378.415156697498" y="537.5699855086374" style="font-style: normal; font-variant: normal; font-weight: bold; font-stretch: normal; font-size: 9.50279px; line-height: normal; font-family: sans-serif; pointer-events: none;">INO2</text><text x="267.22631019945794" y="311.93875024291225" style="font-style: normal; font-variant: normal; font-weight: bold; font-stretch: normal; font-size: 9.50279px; line-height: normal; font-family: sans-serif; pointer-events: none;">RGM1</text><text x="708.0452991586924" y="392.09642652406296" style="font-style: normal; font-variant: normal; font-weight: bold; font-stretch: normal; font-size: 14.2385px; line-height: normal; font-family: sans-serif; pointer-events: none;">CIP1</text><text x="388.07735940775467" y="200.19167545374233" style="font-style: normal; font-variant: normal; font-weight: bold; font-stretch: normal; font-size: 11.8796px; line-height: normal; font-family: sans-serif; pointer-events: none;">PHO4</text><text x="365.7712264468224" y="262.4129753213533" style="font-style: normal; font-variant: normal; font-weight: bold; font-stretch: normal; font-size: 9.50279px; line-height: normal; font-family: sans-serif; pointer-events: none;">CUP2</text><text x="603.2322159419364" y="58.46844485586928" style="font-style: normal; font-variant: normal; font-weight: bold; font-stretch: normal; font-size: 13.8621px; line-height: normal; font-family: sans-serif; pointer-events: none;">HSP30</text><text x="386.58926501976214" y="406.307402133397" style="font-style: normal; font-variant: normal; font-weight: bold; font-stretch: normal; font-size: 13.1821px; line-height: normal; font-family: sans-serif; pointer-events: none;">MBF1</text><text x="305.6137289518501" y="507.7242924502918" style="font-style: normal; font-variant: normal; font-weight: bold; font-stretch: normal; font-size: 14.0762px; line-height: normal; font-family: sans-serif; pointer-events: none;">TSL1</text><text x="333.4423468241662" y="302.03428045769306" style="font-style: normal; font-variant: normal; font-weight: bold; font-stretch: normal; font-size: 6.5px; line-height: normal; font-family: sans-serif; pointer-events: none;">CHA4</text></g></svg>