<svg xmlns="http://www.w3.org/2000/svg" xmlns:xlink="http://www.w3.org/1999/xlink" viewBox="0 0 114 164" version="1.1" x="0px" y="0px"><title>Fill 75</title><desc>Created with Sketch.</desc><g stroke="none" stroke-width="1" fill="none" fill-rule="evenodd"><g transform="translate(-5283.000000, -1732.000000)" fill="#000000"><path d="M5288.1266,1805.3339 C5283.7266,1805.3339 5282.0866,1808.4099 5284.4826,1812.1689 L5335.6656,1892.4839 C5338.0616,1896.2429 5341.9816,1896.2429 5344.3776,1892.4839 L5395.5606,1812.1689 C5397.9566,1808.4099 5396.3166,1805.3339 5391.9166,1805.3339 L5367.8516,1805.3339 C5363.4516,1805.3339 5359.8516,1801.6669 5359.8516,1797.1859 L5359.8516,1740.5209 C5359.8516,1736.0389 5356.2516,1732.3719 5351.8516,1732.3719 L5328.1916,1732.3719 C5323.7916,1732.3719 5320.1916,1736.0389 5320.1916,1740.5209 L5320.1916,1797.1859 C5320.1916,1801.6669 5316.5916,1805.3339 5312.1916,1805.3339 L5288.1266,1805.3339 Z"></path></g></g></svg>