<svg fill="#0A5D19" xmlns="http://www.w3.org/2000/svg" xmlns:xlink="http://www.w3.org/1999/xlink" xml:space="preserve" version="1.1" style="shape-rendering:geometricPrecision;text-rendering:geometricPrecision;image-rendering:optimizeQuality;" viewBox="0 0 213 213" x="0px" y="0px" fill-rule="evenodd" clip-rule="evenodd"><defs><style type="text/css">
   
    .fil1 {fill:#0A5D19}
    .fil0 {fill:#0A5D19;fill-rule:nonzero}
   
  </style></defs><g><polygon class="fil0" points="124,35 199,35 201,35 201,38 201,175 201,177 199,177 125,177 125,173 197,173 197,40 124,40 "></polygon><polygon class="fil1" points="124,53 141,53 141,99 125,99 "></polygon><polygon class="fil1" points="125,108 141,108 141,157 125,157 "></polygon><path class="fil1" d="M152 53l0 48 32 0 0 -48c0,0 -32,0 -32,0z"></path><path class="fil0" d="M17 36l0 146 106 20 -1 -190 -105 24zm-4 148l-1 -150 0 -1 2 -1 110 -25 2 -1 0 3 1 195 0 3 -2 -1 -110 -20 -2 0 0 -2z"></path><path class="fil1" d="M152 108l0 49 32 0 0 -49c0,0 -32,0 -32,0z"></path><path class="fil0" d="M37 76c-2,-4 0,-9 4,-11 4,-2 9,-1 11,4 2,3 7,13 13,25 7,-12 12,-22 14,-25 2,-5 7,-6 11,-4 4,2 6,7 4,11 0,1 -9,17 -20,35 11,20 20,39 16,41 -4,2 -14,-11 -25,-27 -10,16 -20,29 -25,27 -3,-2 6,-21 16,-41 -10,-18 -19,-34 -19,-35z"></path></g></svg>