<svg fill="#F38F19" xmlns="http://www.w3.org/2000/svg" xmlns:xlink="http://www.w3.org/1999/xlink" version="1.1" x="0px" y="0px" viewBox="0 0 50 50" enable-background="new 0 0 50 50" xml:space="preserve"><path d="M19.631,10.817c0.037,0.023,0.062,0.057,0.101,0.076l14.713,7.131c-0.058-0.829,0.289-1.504,0.824-1.979l-14.603-7.08  c-0.021-0.01-0.042-0.008-0.063-0.017C20.583,9.744,20.199,10.385,19.631,10.817z"></path><path d="M18.065,11.781c-0.563,0.464-1.312,0.718-2.043,0.685l5.867,12.592c0.49-0.535,1.203-0.861,1.933-0.92L18.065,11.781z"></path><path d="M42.459,37.762c0.532-0.15,1.102-0.15,1.625,0.008c0.188,0.015,0.375,0.046,0.557,0.099l-1.827-12.162  c-0.647,0.344-1.425,0.453-2.124,0.267L42.459,37.762z"></path><path d="M25.289,28.944L40.127,40.35c0.095-0.318,0.258-0.594,0.461-0.839c0.119-0.401,0.333-0.75,0.621-1.03L26.578,27.234  C26.434,27.997,25.934,28.587,25.289,28.944z"></path><path d="M12.434,26.432c0.176,0.61,0.143,1.158-0.029,1.627l9.096-0.255c-0.046-0.109-0.097-0.21-0.133-0.331  c-0.201-0.695-0.124-1.302,0.115-1.808l-9.254,0.257C12.31,26.078,12.381,26.246,12.434,26.432z"></path><path d="M9.941,22.863l5.505-10.491c-0.696-0.187-1.303-0.671-1.629-1.5L8,21.953C8.733,21.958,9.45,22.241,9.941,22.863z"></path><path d="M9.9,31.921l12.594,9.319c0.178-0.749,0.697-1.323,1.355-1.66L11.43,30.392C11.179,31.111,10.594,31.639,9.9,31.921z"></path><path d="M27.676,41.106c0.23,0.797,0.103,1.486-0.23,2.029l12.649,0.205c-0.101-0.18-0.185-0.376-0.249-0.599  c-0.166-0.577-0.141-1.095,0.01-1.545l-12.223-0.2C27.645,41.035,27.663,41.066,27.676,41.106z"></path><path d="M22.189,6.693c-0.871-3.012-4.029-4.754-7.041-3.884c-3.013,0.871-4.754,4.029-3.884,7.041  c0.87,3.012,4.028,4.755,7.041,3.884C21.318,12.863,23.06,9.705,22.189,6.693z"></path><path d="M48.228,17.622c-1.208-4.182-5.594-6.6-9.774-5.392c-4.181,1.208-6.599,5.593-5.391,9.774c1.208,4.18,5.593,6.6,9.774,5.392  C47.018,26.188,49.437,21.803,48.228,17.622z"></path><path d="M13.641,25.527c-1.065-3.685-4.93-5.816-8.615-4.751c-3.685,1.064-5.817,4.929-4.752,8.614  c1.065,3.686,4.93,5.816,8.614,4.751C12.573,33.076,14.705,29.212,13.641,25.527z"></path><path d="M27.629,25.523c-0.593-2.056-2.749-3.245-4.804-2.651c-2.056,0.594-3.245,2.75-2.651,4.804  c0.594,2.056,2.75,3.243,4.804,2.651C27.034,29.733,28.224,27.578,27.629,25.523z"></path><path d="M29.052,40.568c-0.655-2.268-3.032-3.578-5.301-2.924c-2.268,0.656-3.579,3.033-2.924,5.301  c0.655,2.271,3.033,3.581,5.302,2.925C28.396,45.216,29.707,42.838,29.052,40.568z"></path><path d="M49.771,39.979c-0.893-3.083-4.124-4.865-7.206-3.976c-3.085,0.89-4.868,4.123-3.978,7.207  c0.891,3.081,4.126,4.866,7.208,3.974C48.876,46.294,50.661,43.063,49.771,39.979z"></path></svg>