<svg fill="#B36AE2" xmlns="http://www.w3.org/2000/svg" xmlns:xlink="http://www.w3.org/1999/xlink" viewBox="0 0 60 60" version="1.1" x="0px" y="0px"><title>11 -JSON File- (Solid)</title><desc>Created with Sketch.</desc><g stroke="none" stroke-width="1" fill="none" fill-rule="evenodd"><g transform="translate(-120.000000, -460.000000)" fill="#B36AE2"><g transform="translate(120.000000, 460.000000)"><path d="M58,46 L47,46 L6,46 L6,24 L47,24 L58,24 L58,46 Z M59,22 L48,22 L48,14 L35,14 C34.448,14 34,13.552 34,13 L34,0 L1,0 C0.448,0 0,0.448 0,1 L0,59 C0,59.552 0.448,60 1,60 L47,60 C47.552,60 48,59.552 48,59 L48,48 L59,48 C59.552,48 60,47.552 60,47 L60,23 C60,22.448 59.552,22 59,22 L59,22 Z"></path><path d="M24,28 C25.654,28 27,29.346 27,31 C27,31.552 27.448,32 28,32 C28.552,32 29,31.552 29,31 C29,28.243 26.757,26 24,26 C21.243,26 19,28.243 19,31 C19,33.757 21.243,36 24,36 C25.654,36 27,37.346 27,39 C27,40.654 25.654,42 24,42 C22.346,42 21,40.654 21,39 C21,38.448 20.552,38 20,38 C19.448,38 19,38.448 19,39 C19,41.757 21.243,44 24,44 C26.757,44 29,41.757 29,39 C29,36.243 26.757,34 24,34 C22.346,34 21,32.654 21,31 C21,29.346 22.346,28 24,28"></path><path d="M15,27 C14.448,27 14,27.448 14,28 L14,40 C14,41.103 13.103,42 12,42 C10.897,42 10,41.103 10,40 C10,39.448 9.552,39 9,39 C8.448,39 8,39.448 8,40 C8,42.206 9.794,44 12,44 C14.206,44 16,42.206 16,40 L16,28 C16,27.448 15.552,27 15,27"></path><path d="M39,40 C39,41.103 38.103,42 37,42 L36,42 C34.897,42 34,41.103 34,40 L34,30 C34,28.897 34.897,28 36,28 L37,28 C38.103,28 39,28.897 39,30 L39,40 Z M37,26 L36,26 C33.794,26 32,27.794 32,30 L32,40 C32,42.206 33.794,44 36,44 L37,44 C39.206,44 41,42.206 41,40 L41,30 C41,27.794 39.206,26 37,26 L37,26 Z"></path><path d="M44.7241,26.0386 C44.2951,26.1616 44.0001,26.5536 44.0001,26.9996 L44.0001,42.9996 C44.0001,43.5526 44.4481,43.9996 45.0001,43.9996 C45.5521,43.9996 46.0001,43.5526 46.0001,42.9996 L46.0001,30.4866 L54.1521,43.5296 C54.3381,43.8276 54.6621,43.9996 55.0001,43.9996 C55.0921,43.9996 55.1841,43.9876 55.2761,43.9616 C55.7041,43.8386 56.0001,43.4466 56.0001,42.9996 L56.0001,26.9996 C56.0001,26.4476 55.5521,25.9996 55.0001,25.9996 C54.4481,25.9996 54.0001,26.4476 54.0001,26.9996 L54.0001,39.5136 L45.8481,26.4706 C45.6121,26.0916 45.1531,25.9176 44.7241,26.0386"></path><polygon points="36 0.5859 36 11.9999 47.414 11.9999"></polygon></g></g></g></svg>