<svg fill="#B36AE2" xmlns="http://www.w3.org/2000/svg" xmlns:xlink="http://www.w3.org/1999/xlink" version="1.1" x="0px" y="0px" viewBox="0 0 100 100" enable-background="new 0 0 100 100" xml:space="preserve"><path d="M86.185,5H13.815c-2.032,0-3.685,1.653-3.685,3.685v82.631c0,2.031,1.652,3.685,3.685,3.685h72.369  c2.032,0,3.685-1.653,3.685-3.685V8.685C89.869,6.653,88.217,5,86.185,5z M57.769,11.508h3.96v9.954h5.575v3.568l-9.535,0.017  V11.508z M49.854,11.409c3.403,0,5.779,2.716,5.779,6.603c0,2.103-0.669,3.919-1.809,5.045c0.449,0.112,0.901,0.213,1.325,0.31  l0.734,0.166l-1.151,3.361l-0.611-0.194c-1.52-0.483-2.819-0.987-4.348-1.691c-0.143-0.062-0.324-0.101-0.526-0.114  c-2.656-0.191-5.334-2.318-5.334-6.637C43.913,14.225,46.357,11.409,49.854,11.409z M36.54,19.869  c-2.25-0.881-3.391-2.3-3.391-4.216c0-2.554,1.959-4.337,4.764-4.337c1.285,0,2.721,0.387,3.477,0.77l0.482,0.244l-0.913,3.305  l-0.731-0.396c-0.356-0.193-1.269-0.5-2.199-0.5c-0.772,0-0.833,0.521-0.833,0.68c0,0.267,0,0.459,1.528,1.111  c2.193,0.913,3.216,2.263,3.216,4.247c0,2.051-1.319,4.445-5.037,4.445c-1.383,0-3.129-0.486-3.832-0.924l-0.374-0.233l0.561-3.414  l0.828,0.478c0.552,0.317,1.837,0.672,2.799,0.672c0.663,0,1.06-0.309,1.06-0.824C37.943,20.747,37.943,20.435,36.54,19.869z   M84.734,89.866H15.269l-0.012-57.521h69.479L84.734,89.866z"></path><path d="M49.774,21.466c1.449,0,1.963-1.804,1.963-3.349c0-1.581-0.61-3.28-1.947-3.28c-1.359,0-1.979,1.728-1.979,3.332  c-0.009,1.23,0.313,2.264,0.881,2.836C48.995,21.312,49.359,21.466,49.774,21.466z"></path><path d="M50,84.472c9.053,0,18.416-2.814,18.416-7.523V45.264c0-4.709-9.363-7.523-18.416-7.523s-18.416,2.814-18.416,7.523v31.685  C31.584,81.657,40.947,84.472,50,84.472z M33.646,48.809c3.255,2.54,9.884,3.979,16.354,3.979s13.1-1.438,16.354-3.979v7.017  c0,2.281-6.222,5.462-16.354,5.462s-16.354-3.181-16.354-5.462V48.809z M33.646,59.371c3.255,2.54,9.884,3.978,16.354,3.978  s13.1-1.438,16.354-3.978v7.016c0,2.281-6.222,5.462-16.354,5.462s-16.354-3.181-16.354-5.462V59.371z M33.646,69.933  C36.9,72.472,43.529,73.91,50,73.91s13.1-1.438,16.354-3.978v7.016c0,2.28-6.222,5.461-16.354,5.461s-16.354-3.181-16.354-5.461  V69.933z"></path></svg>