<svg fill="#51A7F9" xmlns="http://www.w3.org/2000/svg" xmlns:xlink="http://www.w3.org/1999/xlink" viewBox="0 0 100 100" version="1.1" x="0px" y="0px"><title>10</title><desc>Created with Sketch.</desc><g stroke="none" stroke-width="1" fill="none" fill-rule="evenodd"><g fill="#51A7F9"><path d="M68.9739292,1.14187135 L68.9739292,19.3695517 L87.1788319,19.3695517 L68.9739292,1.14187135 Z M11.6804195,97.8045224 C11.6804195,98.8811306 12.5522425,99.7538402 13.6273221,99.7538402 L86.3725611,99.7538402 C87.4476407,99.7538402 88.3194637,98.8811306 88.3194637,97.8045224 L88.3194637,84.371384 L11.6804195,84.371384 L11.6804195,97.8045224 Z M88.3193858,42.7617934 L88.3193858,23.2682261 L86.3724832,23.2682261 L73.9551381,23.2682261 L67.027085,23.2682261 C65.9518106,23.2682261 65.0801823,22.3955166 65.0801823,21.3189084 L65.0801823,1.94931774 C65.0801823,1.94346979 65.0807664,1.93762183 65.0807664,1.93157895 L65.0807664,0 L13.6272442,0 C12.5521646,0 11.6803416,0.872709552 11.6803416,1.94931774 L11.6803416,42.7617934 L88.3193858,42.7617934 Z M69.6635221,68.5254386 C69.6635221,69.1753411 69.6148496,69.6724172 69.5175044,70.0166667 C69.4201593,70.3611111 69.2449381,70.6307018 68.9918407,70.8256335 C68.7387434,71.0205653 68.3590973,71.1895712 67.8529027,71.3324561 C67.346708,71.4624756 66.7852212,71.5632554 66.1688319,71.6346004 C65.5522478,71.7059454 64.9779115,71.7418129 64.445823,71.7418129 C62.9531327,71.7418129 61.6584425,71.4591618 60.5617522,70.8938596 C59.4646726,70.3285575 58.6245841,69.5164717 58.0405133,68.4572125 C57.4564425,67.3981481 57.1644071,66.1408382 57.1644071,64.6852827 C57.1644071,63.255848 57.4564425,62.0115984 58.0405133,60.9523392 C58.6245841,59.8932749 59.4549381,59.0780702 60.5325487,58.5059454 C61.6097699,57.9342105 62.8688319,57.6482456 64.3095398,57.6482456 C65.2179646,57.6482456 66.0325487,57.7554581 66.7529027,57.969883 C67.4732566,58.184308 68.1449381,58.5125731 68.7679469,58.9542885 C68.988531,59.1102339 69.1475929,59.2792398 69.2449381,59.4611111 C69.3422832,59.6433723 69.3909558,59.8770955 69.3909558,60.1628655 C69.3909558,60.5657895 69.2805664,60.9069201 69.0599823,61.1862573 C68.8392035,61.4659844 68.5732566,61.6053606 68.2617522,61.6053606 C68.053823,61.6053606 67.875292,61.5761209 67.726354,61.5176413 C67.5770265,61.4591618 67.385646,61.358577 67.1520177,61.2154971 C66.6717168,60.955653 66.2204248,60.767154 65.7989204,60.6501949 C65.3768319,60.5332359 64.9195044,60.4747563 64.426354,60.4747563 C63.1931858,60.4747563 62.2750265,60.8192008 61.6714867,61.5078947 C61.0679469,62.1969786 60.766177,63.255848 60.766177,64.6852827 C60.766177,66.1538986 61.0807965,67.2422027 61.7104248,67.9503899 C62.3398584,68.6589669 63.3035752,69.012768 64.6015752,69.012768 C65.2245841,69.012768 65.8407788,68.9478558 66.4511327,68.8178363 L66.4511327,66.26423 L65.0493628,66.26423 C64.6210442,66.26423 64.2900708,66.1570175 64.0564425,65.9425926 C63.8228142,65.7281676 63.706,65.4260234 63.706,65.0361598 C63.706,64.6462963 63.8228142,64.344152 64.0564425,64.1297271 C64.2900708,63.9153021 64.6210442,63.8080897 65.0493628,63.8080897 L68.2617522,63.8080897 C68.6900708,63.8080897 69.0307788,63.9283626 69.2838761,64.1687135 C69.5369735,64.4092593 69.6635221,64.7310916 69.6635221,65.1336257 L69.6635221,68.5254386 Z M56.4245841,59.9874269 L51.2847611,70.6112086 C51.1157699,70.9620858 50.8628673,71.2318713 50.525469,71.4201754 C50.1878761,71.6084795 49.8245841,71.7028265 49.4352035,71.7028265 C49.045823,71.7028265 48.6821416,71.6084795 48.3449381,71.4201754 C48.0073451,71.2318713 47.7542478,70.9620858 47.585646,70.6112086 L42.445823,59.9874269 C42.3416637,59.7796296 42.2898761,59.5521442 42.2898761,59.3051657 C42.2898761,58.8636452 42.4845664,58.4897661 42.8739469,58.184308 C43.2633274,57.8790448 43.6982655,57.7262183 44.1785664,57.7262183 C44.4900708,57.7262183 44.7787965,57.804191 45.0449381,57.9601365 C45.3106903,58.1160819 45.5153097,58.35 45.6582124,58.6618908 L49.4934159,66.9659844 L53.3095398,58.6618908 C53.4520531,58.35 53.6533628,58.1160819 53.9130796,57.9601365 C54.1726018,57.804191 54.4580177,57.7262183 54.7697168,57.7262183 C55.2367788,57.7262183 55.6584779,57.875731 56.0352035,58.1745614 C56.4115398,58.4737817 56.5996106,58.8503899 56.5996106,59.3051657 C56.5996106,59.5262183 56.5413982,59.7535088 56.4245841,59.9874269 L56.4245841,59.9874269 Z M41.0245841,69.6852827 C40.5444779,70.3416179 39.8726018,70.8484405 39.0097345,71.2057505 C38.1462832,71.5632554 37.1436283,71.7418129 36.0017699,71.7418129 C34.9630973,71.7418129 33.9993805,71.6279727 33.1104248,71.4006823 C32.221469,71.1733918 31.4913805,70.8581871 30.9201593,70.4552632 C30.6993805,70.2866472 30.540708,70.1110136 30.4433628,69.9289474 C30.3460177,69.747076 30.2973451,69.5131579 30.2973451,69.227193 C30.2973451,68.8373294 30.4139646,68.4995127 30.6477876,68.2135478 C30.8814159,67.9279727 31.1537876,67.7846979 31.4654867,67.7846979 C31.6338938,67.7846979 31.7962655,67.8108187 31.9522124,67.8626706 C32.1079646,67.9147173 32.3026549,68.0121832 32.5362832,68.1550682 C33.068177,68.4540936 33.5971504,68.6685185 34.1228142,68.7983431 C34.6484779,68.9283626 35.2422832,68.9932749 35.9044248,68.9932749 C36.6699469,68.9932749 37.250708,68.8796296 37.6469027,68.6521442 C38.0425133,68.4248538 38.240708,68.0901559 38.240708,67.6482456 C38.240708,67.3494152 38.0555575,67.0926901 37.685646,66.8782651 C37.3159292,66.6638402 36.6115398,66.452729 35.5732566,66.2447368 C34.2884956,65.9718324 33.2823363,65.647076 32.5555575,65.270078 C31.8285841,64.8932749 31.319469,64.4482456 31.0274336,63.9347953 C30.7353982,63.42154 30.5893805,62.8010721 30.5893805,62.0731969 C30.5893805,61.2416179 30.8356637,60.4878168 31.3292035,59.8119883 C31.8221593,59.1363548 32.5002655,58.6067251 33.3637168,58.2232943 C34.2265841,57.8402534 35.1967257,57.6482456 36.2741416,57.6482456 C37.2215044,57.6482456 38.065292,57.7523392 38.805115,57.9601365 C39.5451327,58.1681287 40.2197345,58.4932749 40.8298938,58.9347953 C41.0637168,59.1038012 41.2290088,59.2825536 41.326354,59.4708577 C41.4236991,59.6593567 41.4723717,59.889961 41.4723717,60.1628655 C41.4723717,60.552729 41.3586726,60.8907407 41.1316637,61.1765107 C40.9044602,61.4624756 40.6352035,61.6053606 40.3238938,61.6053606 C40.1550973,61.6053606 39.9991504,61.5827485 39.8564425,61.5371345 C39.7135398,61.4917154 39.5124248,61.3909357 39.2530973,61.2349903 C39.1878761,61.1960039 39.0029204,61.0954191 38.6980354,60.932846 C38.3929558,60.7704678 38.0362832,60.6404483 37.6272389,60.5429825 C37.2185841,60.4455166 36.7737168,60.3967836 36.2938053,60.3967836 C35.6316637,60.3967836 35.0993805,60.5234893 34.6971504,60.7769006 C34.2947257,61.0303119 34.0938053,61.3650097 34.0938053,61.7807992 C34.0938053,62.0277778 34.1648673,62.2291423 34.3077699,62.3850877 C34.4504779,62.5410331 34.7166195,62.6938596 35.106,62.8431774 C35.4953805,62.9926901 36.0728319,63.1453216 36.8387434,63.3012671 C38.0849558,63.5741715 39.0646372,63.9026316 39.7785664,64.2856725 C40.4923009,64.6691033 40.9984956,65.1141326 41.2973451,65.6209552 C41.5956106,66.1277778 41.7451327,66.7256335 41.7451327,67.4143275 C41.7451327,68.2720273 41.5046903,69.0291423 41.0245841,69.6852827 L41.0245841,69.6852827 Z M92.0529027,46.6991228 L7.94690265,46.6991228 C6.87162832,46.6991228 6,47.5718324 6,48.6484405 L6,78.5234893 C6,79.6000975 6.87162832,80.472807 7.94690265,80.472807 L92.0529027,80.472807 C93.1279823,80.472807 93.9998053,79.6000975 93.9998053,78.5234893 L93.9998053,48.6484405 C93.9998053,47.5718324 93.1279823,46.6991228 92.0529027,46.6991228 L92.0529027,46.6991228 Z"></path></g></g></svg>