<svg fill="#51A7F9" xmlns="http://www.w3.org/2000/svg" xmlns:xlink="http://www.w3.org/1999/xlink" version="1.1" x="0px" y="0px" viewBox="0 0 168.292 195" enable-background="new 0 0 168.292 195" xml:space="preserve"><polygon points="98.561,156.685 98.561,129.244 81.257,129.244 81.257,156.685 62.143,156.685 90.236,189.838 118.328,156.685 "></polygon><path d="M145.341,60.118V45.374c0-0.773-0.324-1.558-0.866-2.109L108.553,6.886c-0.468-0.585-1.415-0.891-2.134-0.891H37.722  c-1.657,0-3,1.343-3,3v51.123h-9.425v59.57h9.425v25.232c0,1.658,1.343,3,3,3h38.535v-6H40.722v-22.232h98.619v22.232h-35.78v6  h38.78c1.657,0,3-1.342,3-3v-25.232h9.108v-59.57H145.341z M109.419,16.298l25.738,26.076h-25.738V16.298z M59.865,103.627  c-3.079,0-6.119-0.801-7.639-1.641l1.24-5.039c1.64,0.84,4.16,1.679,6.759,1.679c2.799,0,4.279-1.159,4.279-2.919  c0-1.68-1.28-2.64-4.519-3.799c-4.479-1.56-7.399-4.04-7.399-7.959c0-4.599,3.839-8.119,10.199-8.119c3.039,0,5.279,0.64,6.878,1.36  l-1.359,4.919c-1.08-0.52-3-1.28-5.639-1.28s-3.919,1.2-3.919,2.6c0,1.72,1.52,2.48,4.999,3.8c4.759,1.759,6.999,4.239,6.999,8.039  C70.744,99.787,67.264,103.627,59.865,103.627z M90.344,103.227h-7.119l-8.639-26.956h6.679l3.279,11.398  c0.92,3.2,1.76,6.279,2.4,9.639h0.12c0.68-3.24,1.52-6.439,2.439-9.519l3.439-11.518h6.479L90.344,103.227z M126.502,101.986  c-1.88,0.641-5.439,1.52-8.999,1.52c-4.919,0-8.479-1.239-10.958-3.639c-2.479-2.32-3.839-5.839-3.799-9.798  c0.04-8.958,6.559-14.078,15.397-14.078c3.479,0,6.158,0.68,7.479,1.32l-1.28,4.879c-1.479-0.64-3.319-1.16-6.278-1.16  c-5.079,0-8.919,2.879-8.919,8.719c0,5.559,3.479,8.839,8.479,8.839c1.4,0,2.52-0.16,3-0.4v-5.639h-4.159v-4.759h10.038V101.986z   M139.341,60.118H40.722V11.995h62.697v33.378c0,1.657,1.343,3,3,3h32.922V60.118z"></path></svg>