<svg width="835" height="700" title="svg_title" version="1.1" xmlns="http://www.w3.org/2000/svg"><g class="link"><path d="M224.5165641567736,447.9992584905322A415.9057970913923,415.9057970913923 0,0,1 514.0415505801586,149.41440574216338" style="fill: none; stroke-width: 21; stroke: rgb(143, 0, 0); stroke-opacity: 0.4;"></path><path d="M520.1215649419894,318.3025313631601A293.1086236697139,293.1086236697139 0,0,1 232.84947303649668,376.503995964973" style="fill: none; stroke-width: 16.3333; stroke: rgb(143, 0, 0); stroke-opacity: 0.4;"></path><path d="M520.1215649419894,318.3025313631601A324.50906976283994,324.50906976283994 0,0,1 195.6859987251837,311.3960321106861" style="fill: none; stroke-width: 13.6667; stroke: rgb(143, 0, 0); stroke-opacity: 0.4;"></path><path d="M367.12055193648234,439.83028038531944A90.07276763625143,90.07276763625143 0,0,1 312.14775363543816,368.47837139469146" style="fill: none; stroke-width: 13.6667; stroke: rgb(143, 0, 0); stroke-opacity: 0.4;"></path><path d="M520.1215649419894,318.3025313631601A70.30616649496127,70.30616649496127 0,0,1 589.2846799876882,305.67634570031424" style="fill: none; stroke-width: 11; stroke: rgb(143, 0, 0); stroke-opacity: 0.4;"></path><path d="M589.2846799876882,305.67634570031424A393.6402376589766,393.6402376589766 0,0,1 195.6859987251837,311.3960321106861" style="fill: none; stroke-width: 9; stroke: rgb(143, 0, 0); stroke-opacity: 0.4;"></path><path d="M376.0736404921186,314.34835926645974A30,20 -45,1,1 377.0736404921186,315.34835926645974" style="fill: none; stroke-width: 8.33333; stroke: rgb(143, 0, 0); stroke-opacity: 0.4;"></path><path d="M444.6709676534534,452.9203665047041A135.1946526722694,135.1946526722694 0,0,1 444.68069020797947,317.72571418203455" style="fill: none; stroke-width: 7.66667; stroke: rgb(143, 0, 0); stroke-opacity: 0.4;"></path><path d="M589.2846799876882,305.67634570031424A363.4042003009205,363.4042003009205 0,0,1 232.84947303649668,376.503995964973" style="fill: none; stroke-width: 7; stroke: rgb(143, 0, 0); stroke-opacity: 0.4;"></path><path d="M589.2846799876882,305.67634570031424A99.54063344602497,99.54063344602497 0,0,1 533.1841975477621,223.45059804884286" style="fill: none; stroke-width: 6.33333; stroke: rgb(143, 0, 0); stroke-opacity: 0.4;"></path><path d="M371.17570312789417,372.6127755480714A220.21831772244502,220.21831772244502 0,0,1 533.1841975477621,223.45059804884286" style="fill: none; stroke-width: 6.33333; stroke: rgb(143, 0, 0); stroke-opacity: 0.4;"></path><path d="M654.6114691109036,379.1134372063534A30,20 -45,1,1 655.6114691109036,380.1134372063534" style="fill: none; stroke-width: 6.33333; stroke: rgb(143, 0, 0); stroke-opacity: 0.4;"></path><path d="M589.2846799876882,305.67634570031424A228.14909911632319,228.14909911632319 0,0,1 371.17570312789417,372.6127755480714" style="fill: none; stroke-width: 5.66667; stroke: rgb(143, 0, 0); stroke-opacity: 0.4;"></path><path d="M195.6859987251837,311.3960321106861A185.8605015285102,185.8605015285102 0,0,1 371.17570312789417,372.6127755480714" style="fill: none; stroke-width: 5.66667; stroke: rgb(143, 0, 0); stroke-opacity: 0.4;"></path><path d="M195.6859987251837,311.3960321106861A348.7684526742788,348.7684526742788 0,0,1 533.1841975477621,223.45059804884286" style="fill: none; stroke-width: 5.66667; stroke: rgb(143, 0, 0); stroke-opacity: 0.4;"></path><path d="M232.84947303649668,376.503995964973A337.08498833518377,337.08498833518377 0,0,1 533.1841975477621,223.45059804884286" style="fill: none; stroke-width: 5; stroke: rgb(143, 0, 0); stroke-opacity: 0.4;"></path><path d="M444.6709676534534,452.9203665047041A206.38296309950684,206.38296309950684 0,0,1 589.2846799876882,305.67634570031424" style="fill: none; stroke-width: 5; stroke: rgb(143, 0, 0); stroke-opacity: 0.4;"></path><path d="M232.84947303649668,376.503995964973A138.38095073972846,138.38095073972846 0,0,1 371.17570312789417,372.6127755480714" style="fill: none; stroke-width: 4.33333; stroke: rgb(143, 0, 0); stroke-opacity: 0.4;"></path><path d="M195.6859987251837,311.3960321106861A74.96779828792323,74.96779828792323 0,0,1 232.84947303649668,376.503995964973" style="fill: none; stroke-width: 4.33333; stroke: rgb(143, 0, 0); stroke-opacity: 0.4;"></path><path d="M583.2839185878255,438.00181439184917A30,20 -45,1,1 584.2839185878255,439.00181439184917" style="fill: none; stroke-width: 3.66667; stroke: rgb(143, 0, 0); stroke-opacity: 0.4;"></path><path d="M585.2295287962763,372.8938505375623A30,20 -45,1,1 586.2295287962763,373.8938505375623" style="fill: none; stroke-width: 3.66667; stroke: rgb(143, 0, 0); stroke-opacity: 0.4;"></path><path d="M583.2839185878255,438.00181439184917A350.6196881891414,350.6196881891414 0,0,1 431.7931555511175,121.79821785884523" style="fill: none; stroke-width: 3.66667; stroke: rgb(143, 0, 0); stroke-opacity: 0.4;"></path><path d="M514.0415505801586,149.41440574216338A303.8177957422121,303.8177957422121 0,0,1 257.7204165720707,312.52396790963525" style="fill: none; stroke-width: 3.66667; stroke: rgb(143, 0, 0); stroke-opacity: 0.4;"></path><path d="M533.1841975477621,223.45059804884286A129.3084232885458,129.3084232885458 0,0,1 444.68069020797947,317.72571418203455" style="fill: none; stroke-width: 3.66667; stroke: rgb(143, 0, 0); stroke-opacity: 0.4;"></path><path d="M589.2846799876882,305.67634570031424A215.72531625259379,215.72531625259379 0,0,1 380.82791486646846,250.14987320765314" style="fill: none; stroke-width: 3.66667; stroke: rgb(143, 0, 0); stroke-opacity: 0.4;"></path><path d="M533.1841975477621,223.45059804884286A30,20 -45,1,1 534.1841975477621,224.45059804884286" style="fill: none; stroke-width: 3.66667; stroke: rgb(143, 0, 0); stroke-opacity: 0.4;"></path><path d="M397.1183930557683,190.96133290454404A223.80218049414682,223.80218049414682 0,0,1 589.2846799876882,305.67634570031424" style="fill: none; stroke-width: 3; stroke: rgb(143, 0, 0); stroke-opacity: 0.4;"></path><path d="M397.1183930557683,190.96133290454404A234.69027729888182,234.69027729888182 0,0,1 195.6859987251837,311.3960321106861" style="fill: none; stroke-width: 3; stroke: rgb(143, 0, 0); stroke-opacity: 0.4;"></path><path d="M297.9574368907836,429.45193109559824A30,20 -45,1,1 298.9574368907836,430.45193109559824" style="fill: none; stroke-width: 3; stroke: rgb(143, 0, 0); stroke-opacity: 0.4;"></path><path d="M367.12055193648234,439.83028038531944A190.17504743151673,190.17504743151673 0,0,1 380.82791486646846,250.14987320765314" style="fill: none; stroke-width: 3; stroke: rgb(143, 0, 0); stroke-opacity: 0.4;"></path><path d="M444.6709676534534,452.9203665047041A286.39597060343084,286.39597060343084 0,0,1 195.6859987251837,311.3960321106861" style="fill: none; stroke-width: 3; stroke: rgb(143, 0, 0); stroke-opacity: 0.4;"></path><path d="M444.6709676534534,452.9203665047041A108.86166943851151,108.86166943851151 0,0,1 371.17570312789417,372.6127755480714" style="fill: none; stroke-width: 3; stroke: rgb(143, 0, 0); stroke-opacity: 0.4;"></path><path d="M175.60654294183837,374.80365437971744A156.5012701394284,156.5012701394284 0,0,1 317.8092242105069,309.45042190223535" style="fill: none; stroke-width: 3; stroke: rgb(143, 0, 0); stroke-opacity: 0.4;"></path><path d="M224.5165641567736,447.9992584905322A139.48494604506718,139.48494604506718 0,0,1 257.7204165720707,312.52396790963525" style="fill: none; stroke-width: 3; stroke: rgb(143, 0, 0); stroke-opacity: 0.4;"></path><path d="M514.0415505801586,149.41440574216338A30,20 -45,1,1 515.0415505801586,150.41440574216338" style="fill: none; stroke-width: 3; stroke: rgb(143, 0, 0); stroke-opacity: 0.4;"></path><path d="M376.0736404921186,314.34835926645974A215.0310518023298,215.0310518023298 0,0,1 514.0415505801586,149.41440574216338" style="fill: none; stroke-width: 3; stroke: rgb(143, 0, 0); stroke-opacity: 0.4;"></path><path d="M195.6859987251837,311.3960321106861A195.00928463240433,195.00928463240433 0,0,1 380.82791486646846,250.14987320765314" style="fill: none; stroke-width: 3; stroke: rgb(143, 0, 0); stroke-opacity: 0.4;"></path><path d="M232.84947303649668,376.503995964973A194.5841298364237,194.5841298364237 0,0,1 380.82791486646846,250.14987320765314" style="fill: none; stroke-width: 3; stroke: rgb(143, 0, 0); stroke-opacity: 0.4;"></path><path d="M376.0736404921186,314.34835926645974A118.36728439941443,118.36728439941443 0,0,1 257.7204165720707,312.52396790963525" style="fill: none; stroke-width: 3; stroke: rgb(143, 0, 0); stroke-opacity: 0.4;"></path><path d="M371.17570312789417,372.6127755480714A30,20 -45,1,1 372.17570312789417,373.6127755480714" style="fill: none; stroke-width: 3; stroke: rgb(143, 0, 0); stroke-opacity: 0.4;"></path><path d="M514.0415505801586,149.41440574216338A253.21661158153177,253.21661158153177 0,0,1 317.8092242105069,309.45042190223535" style="fill: none; stroke-width: 3; stroke: rgb(143, 0, 0); stroke-opacity: 0.4;"></path><path d="M397.1183930557683,190.96133290454404A30,20 -45,1,1 398.1183930557683,191.96133290454404" style="fill: none; stroke-width: 2.33333; stroke: rgb(143, 0, 0); stroke-opacity: 0.4;"></path><path d="M397.1183930557683,190.96133290454404A183.49460421268122,183.49460421268122 0,0,1 371.17570312789417,372.6127755480714" style="fill: none; stroke-width: 2.33333; stroke: rgb(143, 0, 0); stroke-opacity: 0.4;"></path><path d="M520.1215649419894,318.3025313631601A195.39269117114972,195.39269117114972 0,0,1 367.12055193648234,439.83028038531944" style="fill: none; stroke-width: 2.33333; stroke: rgb(143, 0, 0); stroke-opacity: 0.4;"></path><path d="M444.6709676534534,452.9203665047041A233.7983261020021,233.7983261020021 0,0,1 257.7204165720707,312.52396790963525" style="fill: none; stroke-width: 2.33333; stroke: rgb(143, 0, 0); stroke-opacity: 0.4;"></path><path d="M297.9574368907836,429.45193109559824A316.5311329243747,316.5311329243747 0,0,1 589.2846799876882,305.67634570031424" style="fill: none; stroke-width: 2.33333; stroke: rgb(143, 0, 0); stroke-opacity: 0.4;"></path><path d="M589.2846799876882,305.67634570031424A419.41409832644206,419.41409832644206 0,0,1 175.60654294183837,374.80365437971744" style="fill: none; stroke-width: 2.33333; stroke: rgb(143, 0, 0); stroke-opacity: 0.4;"></path><path d="M195.6859987251837,311.3960321106861A66.51098485489052,66.51098485489052 0,0,1 175.60654294183837,374.80365437971744" style="fill: none; stroke-width: 2.33333; stroke: rgb(143, 0, 0); stroke-opacity: 0.4;"></path><path d="M232.84947303649668,376.503995964973A30,20 -45,1,1 233.84947303649668,377.503995964973" style="fill: none; stroke-width: 2.33333; stroke: rgb(143, 0, 0); stroke-opacity: 0.4;"></path><path d="M585.2295287962763,372.8938505375623A69.66015288637477,69.66015288637477 0,0,1 654.6114691109036,379.1134372063534" style="fill: none; stroke-width: 2.33333; stroke: rgb(143, 0, 0); stroke-opacity: 0.4;"></path><path d="M257.7204165720707,312.52396790963525A187.03262304287,187.03262304287 0,0,1 444.68069020797947,317.72571418203455" style="fill: none; stroke-width: 2.33333; stroke: rgb(143, 0, 0); stroke-opacity: 0.4;"></path><path d="M444.68069020797947,317.72571418203455A30,20 -45,1,1 445.68069020797947,318.72571418203455" style="fill: none; stroke-width: 2.33333; stroke: rgb(143, 0, 0); stroke-opacity: 0.4;"></path><path d="M444.6709676534534,452.9203665047041A225.18394096433008,225.18394096433008 0,0,1 232.84947303649668,376.503995964973" style="fill: none; stroke-width: 2.33333; stroke: rgb(143, 0, 0); stroke-opacity: 0.4;"></path><path d="M380.82791486646846,250.14987320765314A30,20 -45,1,1 381.82791486646846,251.14987320765314" style="fill: none; stroke-width: 2.33333; stroke: rgb(143, 0, 0); stroke-opacity: 0.4;"></path><path d="M175.60654294183837,374.80365437971744A30,20 -45,1,1 176.60654294183837,375.80365437971744" style="fill: none; stroke-width: 2.33333; stroke: rgb(143, 0, 0); stroke-opacity: 0.4;"></path><path marker-end="url(#blue_arrow)" style="fill: none; stroke-width: 2.33333; stroke: blue; stroke-opacity: 0.4;" d="M642.9799060262883,495.4218019193445A351.2727260475286,351.2727260475286 0,0,1 297.9574368907836,429.45193109559824"></path><path marker-end="url(#blue_arrow)" style="fill: none; stroke-width: 2.33333; stroke: blue; stroke-opacity: 0.4;" d="M642.9799060262883,495.4218019193445A426.4698018617116,426.4698018617116 0,0,1 257.7204165720707,312.52396790963525"></path><path d="M371.17570312789417,372.6127755480714A122.84269469970565,122.84269469970565 0,0,1 380.82791486646846,250.14987320765314" style="fill: none; stroke-width: 2.33333; stroke: rgb(143, 0, 0); stroke-opacity: 0.4;"></path><path d="M397.1183930557683,190.96133290454404A258.28406968506766,258.28406968506766 0,0,1 297.9574368907836,429.45193109559824" style="fill: none; stroke-width: 1.66667; stroke: rgb(143, 0, 0); stroke-opacity: 0.4;"></path><path d="M397.1183930557683,190.96133290454404A247.81113352683275,247.81113352683275 0,0,1 232.84947303649668,376.503995964973" style="fill: none; stroke-width: 1.66667; stroke: rgb(143, 0, 0); stroke-opacity: 0.4;"></path><path d="M520.1215649419894,318.3025313631601A154.32029733444904,154.32029733444904 0,0,1 444.6709676534534,452.9203665047041" style="fill: none; stroke-width: 1.66667; stroke: rgb(143, 0, 0); stroke-opacity: 0.4;"></path><path d="M520.1215649419894,318.3025313631601A248.41716698657098,248.41716698657098 0,0,1 297.9574368907836,429.45193109559824" style="fill: none; stroke-width: 1.66667; stroke: rgb(143, 0, 0); stroke-opacity: 0.4;"></path><path d="M520.1215649419894,318.3025313631601A215.5583632716225,215.5583632716225 0,0,1 642.9799060262883,495.4218019193445" style="fill: none; stroke-width: 1.66667; stroke: rgb(143, 0, 0); stroke-opacity: 0.4;"></path><path d="M583.2839185878255,438.00181439184917A65.13702753683464,65.13702753683464 0,0,1 585.2295287962763,372.8938505375623" style="fill: none; stroke-width: 1.66667; stroke: rgb(143, 0, 0); stroke-opacity: 0.4;"></path><path d="M583.2839185878255,438.00181439184917A92.49573196187745,92.49573196187745 0,0,1 654.6114691109036,379.1134372063534" style="fill: none; stroke-width: 1.66667; stroke: rgb(143, 0, 0); stroke-opacity: 0.4;"></path><path d="M367.12055193648234,439.83028038531944A259.52683480561547,259.52683480561547 0,0,1 589.2846799876882,305.67634570031424" style="fill: none; stroke-width: 1.66667; stroke: rgb(143, 0, 0); stroke-opacity: 0.4;"></path><path d="M367.12055193648234,439.83028038531944A214.20822151501966,214.20822151501966 0,0,1 195.6859987251837,311.3960321106861" style="fill: none; stroke-width: 1.66667; stroke: rgb(143, 0, 0); stroke-opacity: 0.4;"></path><path d="M367.12055193648234,439.83028038531944A148.45518154464258,148.45518154464258 0,0,1 232.84947303649668,376.503995964973" style="fill: none; stroke-width: 1.66667; stroke: rgb(143, 0, 0); stroke-opacity: 0.4;"></path><path d="M367.12055193648234,439.83028038531944A125.80091542737196,125.80091542737196 0,0,1 376.0736404921186,314.34835926645974" style="fill: none; stroke-width: 1.66667; stroke: rgb(143, 0, 0); stroke-opacity: 0.4;"></path><path d="M367.12055193648234,439.83028038531944A228.14909911632319,228.14909911632319 0,0,1 585.2295287962763,372.8938505375623" style="fill: none; stroke-width: 1.66667; stroke: rgb(143, 0, 0); stroke-opacity: 0.4;"></path><path d="M367.12055193648234,439.83028038531944A208.47962438902198,208.47962438902198 0,0,1 159.1024779541325,425.9654081514577" style="fill: none; stroke-width: 1.66667; stroke: rgb(143, 0, 0); stroke-opacity: 0.4;"></path><path d="M367.12055193648234,439.83028038531944A142.837773484323,142.837773484323 0,0,1 224.5165641567736,447.9992584905322" style="fill: none; stroke-width: 1.66667; stroke: rgb(143, 0, 0); stroke-opacity: 0.4;"></path><path d="M367.12055193648234,439.83028038531944A325.46452969133895,325.46452969133895 0,0,1 514.0415505801586,149.41440574216338" style="fill: none; stroke-width: 1.66667; stroke: rgb(143, 0, 0); stroke-opacity: 0.4;"></path><path d="M367.12055193648234,439.83028038531944A167.85495766854234,167.85495766854234 0,0,1 257.7204165720707,312.52396790963525" style="fill: none; stroke-width: 1.66667; stroke: rgb(143, 0, 0); stroke-opacity: 0.4;"></path><path d="M367.12055193648234,439.83028038531944A139.3933805464506,139.3933805464506 0,0,1 317.8092242105069,309.45042190223535" style="fill: none; stroke-width: 1.66667; stroke: rgb(143, 0, 0); stroke-opacity: 0.4;"></path><path d="M518.1759547335387,383.410495217447A330.4328292146919,330.4328292146919 0,0,1 195.6859987251837,311.3960321106861" style="fill: none; stroke-width: 1.66667; stroke: rgb(143, 0, 0); stroke-opacity: 0.4;"></path><path d="M518.1759547335387,383.410495217447A285.4100574428604,285.4100574428604 0,0,1 232.84947303649668,376.503995964973" style="fill: none; stroke-width: 1.66667; stroke: rgb(143, 0, 0); stroke-opacity: 0.4;"></path><path d="M518.1759547335387,383.410495217447A191.37104648761127,191.37104648761127 0,0,1 380.82791486646846,250.14987320765314" style="fill: none; stroke-width: 1.66667; stroke: rgb(143, 0, 0); stroke-opacity: 0.4;"></path><path d="M444.6709676534534,452.9203665047041A30,20 -45,1,1 445.6709676534534,453.9203665047041" style="fill: none; stroke-width: 1.66667; stroke: rgb(143, 0, 0); stroke-opacity: 0.4;"></path><path d="M444.6709676534534,452.9203665047041A245.94911364245513,245.94911364245513 0,0,1 533.1841975477621,223.45059804884286" style="fill: none; stroke-width: 1.66667; stroke: rgb(143, 0, 0); stroke-opacity: 0.4;"></path><path d="M444.6709676534534,452.9203665047041A347.3538368265924,347.3538368265924 0,0,1 126.52288367948489,313.50557309364723" style="fill: none; stroke-width: 1.66667; stroke: rgb(143, 0, 0); stroke-opacity: 0.4;"></path><path d="M444.6709676534534,452.9203665047041A161.7434770504823,161.7434770504823 0,0,1 585.2295287962763,372.8938505375623" style="fill: none; stroke-width: 1.66667; stroke: rgb(143, 0, 0); stroke-opacity: 0.4;"></path><path d="M444.6709676534534,452.9203665047041A280.17474075763926,280.17474075763926 0,0,1 175.60654294183837,374.80365437971744" style="fill: none; stroke-width: 1.66667; stroke: rgb(143, 0, 0); stroke-opacity: 0.4;"></path><path d="M444.6709676534534,452.9203665047041A311.3328540228027,311.3328540228027 0,0,1 514.0415505801586,149.41440574216338" style="fill: none; stroke-width: 1.66667; stroke: rgb(143, 0, 0); stroke-opacity: 0.4;"></path><path d="M297.9574368907836,429.45193109559824A156.19424557132666,156.19424557132666 0,0,1 195.6859987251837,311.3960321106861" style="fill: none; stroke-width: 1.66667; stroke: rgb(143, 0, 0); stroke-opacity: 0.4;"></path><path d="M297.9574368907836,429.45193109559824A83.91978784439358,83.91978784439358 0,0,1 232.84947303649668,376.503995964973" style="fill: none; stroke-width: 1.66667; stroke: rgb(143, 0, 0); stroke-opacity: 0.4;"></path><path d="M297.9574368907836,429.45193109559824A139.1077766083222,139.1077766083222 0,0,1 376.0736404921186,314.34835926645974" style="fill: none; stroke-width: 1.66667; stroke: rgb(143, 0, 0); stroke-opacity: 0.4;"></path><path d="M297.9574368907836,429.45193109559824A92.69090631838895,92.69090631838895 0,0,1 371.17570312789417,372.6127755480714" style="fill: none; stroke-width: 1.66667; stroke: rgb(143, 0, 0); stroke-opacity: 0.4;"></path><path d="M297.9574368907836,429.45193109559824A312.6790337490118,312.6790337490118 0,0,1 533.1841975477621,223.45059804884286" style="fill: none; stroke-width: 1.66667; stroke: rgb(143, 0, 0); stroke-opacity: 0.4;"></path><path d="M297.9574368907836,429.45193109559824A206.96222836226468,206.96222836226468 0,0,1 126.52288367948489,313.50557309364723" style="fill: none; stroke-width: 1.66667; stroke: rgb(143, 0, 0); stroke-opacity: 0.4;"></path><path d="M297.9574368907836,429.45193109559824A292.78673341558215,292.78673341558215 0,0,1 585.2295287962763,372.8938505375623" style="fill: none; stroke-width: 1.66667; stroke: rgb(143, 0, 0); stroke-opacity: 0.4;"></path><path d="M297.9574368907836,429.45193109559824A360.1889263510303,360.1889263510303 0,0,1 654.6114691109036,379.1134372063534" style="fill: none; stroke-width: 1.66667; stroke: rgb(143, 0, 0); stroke-opacity: 0.4;"></path><path d="M297.9574368907836,429.45193109559824A197.526565511504,197.526565511504 0,0,1 380.82791486646846,250.14987320765314" style="fill: none; stroke-width: 1.66667; stroke: rgb(143, 0, 0); stroke-opacity: 0.4;"></path><path d="M297.9574368907836,429.45193109559824A353.71366922271807,353.71366922271807 0,0,1 514.0415505801586,149.41440574216338" style="fill: none; stroke-width: 1.66667; stroke: rgb(143, 0, 0); stroke-opacity: 0.4;"></path><path d="M297.9574368907836,429.45193109559824A62.60303564455694,62.60303564455694 0,0,1 312.14775363543816,368.47837139469146" style="fill: none; stroke-width: 1.66667; stroke: rgb(143, 0, 0); stroke-opacity: 0.4;"></path><path d="M297.9574368907836,429.45193109559824A123.65745581624438,123.65745581624438 0,0,1 257.7204165720707,312.52396790963525" style="fill: none; stroke-width: 1.66667; stroke: rgb(143, 0, 0); stroke-opacity: 0.4;"></path><path d="M297.9574368907836,429.45193109559824A121.63246140924834,121.63246140924834 0,0,1 317.8092242105069,309.45042190223535" style="fill: none; stroke-width: 1.66667; stroke: rgb(143, 0, 0); stroke-opacity: 0.4;"></path><path d="M589.2846799876882,305.67634570031424A242.1048247512605,242.1048247512605 0,0,1 431.7931555511175,121.79821785884523" style="fill: none; stroke-width: 1.66667; stroke: rgb(143, 0, 0); stroke-opacity: 0.4;"></path><path d="M589.2846799876882,305.67634570031424A67.33971493651181,67.33971493651181 0,0,1 585.2295287962763,372.8938505375623" style="fill: none; stroke-width: 1.66667; stroke: rgb(143, 0, 0); stroke-opacity: 0.4;"></path><path d="M589.2846799876882,305.67634570031424A98.28832985667948,98.28832985667948 0,0,1 654.6114691109036,379.1134372063534" style="fill: none; stroke-width: 1.66667; stroke: rgb(143, 0, 0); stroke-opacity: 0.4;"></path><path d="M589.2846799876882,305.67634570031424A391.5502392183249,391.5502392183249 0,0,1 224.5165641567736,447.9992584905322" style="fill: none; stroke-width: 1.66667; stroke: rgb(143, 0, 0); stroke-opacity: 0.4;"></path><path d="M589.2846799876882,305.67634570031424A147.52584917351186,147.52584917351186 0,0,1 642.9799060262883,443.08340110515655" style="fill: none; stroke-width: 1.66667; stroke: rgb(143, 0, 0); stroke-opacity: 0.4;"></path><path d="M589.2846799876882,305.67634570031424A331.63496604589596,331.63496604589596 0,0,1 257.7204165720707,312.52396790963525" style="fill: none; stroke-width: 1.66667; stroke: rgb(143, 0, 0); stroke-opacity: 0.4;"></path><path d="M589.2846799876882,305.67634570031424A271.50168828316004,271.50168828316004 0,0,1 317.8092242105069,309.45042190223535" style="fill: none; stroke-width: 1.66667; stroke: rgb(143, 0, 0); stroke-opacity: 0.4;"></path><path d="M195.6859987251837,311.3960321106861A69.1952790729495,69.1952790729495 0,0,1 126.52288367948489,313.50557309364723" style="fill: none; stroke-width: 1.66667; stroke: rgb(143, 0, 0); stroke-opacity: 0.4;"></path><path d="M195.6859987251837,311.3960321106861A394.36803051402796,394.36803051402796 0,0,1 585.2295287962763,372.8938505375623" style="fill: none; stroke-width: 1.66667; stroke: rgb(143, 0, 0); stroke-opacity: 0.4;"></path><path d="M195.6859987251837,311.3960321106861A466.27610131913787,466.27610131913787 0,0,1 642.9799060262883,443.08340110515655" style="fill: none; stroke-width: 1.66667; stroke: rgb(143, 0, 0); stroke-opacity: 0.4;"></path><path d="M195.6859987251837,311.3960321106861A249.0751317609548,249.0751317609548 0,0,1 444.68069020797947,317.72571418203455" style="fill: none; stroke-width: 1.66667; stroke: rgb(143, 0, 0); stroke-opacity: 0.4;"></path><path d="M232.84947303649668,376.503995964973A352.39854830471774,352.39854830471774 0,0,1 585.2295287962763,372.8938505375623" style="fill: none; stroke-width: 1.66667; stroke: rgb(143, 0, 0); stroke-opacity: 0.4;"></path><path d="M232.84947303649668,376.503995964973A57.268177964105746,57.268177964105746 0,0,1 175.60654294183837,374.80365437971744" style="fill: none; stroke-width: 1.66667; stroke: rgb(143, 0, 0); stroke-opacity: 0.4;"></path><path d="M232.84947303649668,376.503995964973A219.8348265805635,219.8348265805635 0,0,1 444.68069020797947,317.72571418203455" style="fill: none; stroke-width: 1.66667; stroke: rgb(143, 0, 0); stroke-opacity: 0.4;"></path><path d="M376.0736404921186,314.34835926645974A181.51068875608814,181.51068875608814 0,0,1 533.1841975477621,223.45059804884286" style="fill: none; stroke-width: 1.66667; stroke: rgb(143, 0, 0); stroke-opacity: 0.4;"></path><path d="M376.0736404921186,314.34835926645974A217.19521210302045,217.19521210302045 0,0,1 585.2295287962763,372.8938505375623" style="fill: none; stroke-width: 1.66667; stroke: rgb(143, 0, 0); stroke-opacity: 0.4;"></path><path d="M376.0736404921186,314.34835926645974A285.96824525151067,285.96824525151067 0,0,1 654.6114691109036,379.1134372063534" style="fill: none; stroke-width: 1.66667; stroke: rgb(143, 0, 0); stroke-opacity: 0.4;"></path><path d="M376.0736404921186,314.34835926645974A243.99764542896972,243.99764542896972 0,0,1 159.1024779541325,425.9654081514577" style="fill: none; stroke-width: 1.66667; stroke: rgb(143, 0, 0); stroke-opacity: 0.4;"></path><path d="M376.0736404921186,314.34835926645974A209.3845741869841,209.3845741869841 0,0,1 175.60654294183837,374.80365437971744" style="fill: none; stroke-width: 1.66667; stroke: rgb(143, 0, 0); stroke-opacity: 0.4;"></path><path d="M376.0736404921186,314.34835926645974A202.0695678490969,202.0695678490969 0,0,1 224.5165641567736,447.9992584905322" style="fill: none; stroke-width: 1.66667; stroke: rgb(143, 0, 0); stroke-opacity: 0.4;"></path><path d="M371.17570312789417,372.6127755480714A251.69160384495194,251.69160384495194 0,0,1 126.52288367948489,313.50557309364723" style="fill: none; stroke-width: 1.66667; stroke: rgb(143, 0, 0); stroke-opacity: 0.4;"></path><path d="M371.17570312789417,372.6127755480714A214.0540102086851,214.0540102086851 0,0,1 585.2295287962763,372.8938505375623" style="fill: none; stroke-width: 1.66667; stroke: rgb(143, 0, 0); stroke-opacity: 0.4;"></path><path d="M371.17570312789417,372.6127755480714A195.58143154689841,195.58143154689841 0,0,1 175.60654294183837,374.80365437971744" style="fill: none; stroke-width: 1.66667; stroke: rgb(143, 0, 0); stroke-opacity: 0.4;"></path><path d="M371.17570312789417,372.6127755480714A82.68895930002746,82.68895930002746 0,0,1 317.8092242105069,309.45042190223535" style="fill: none; stroke-width: 1.66667; stroke: rgb(143, 0, 0); stroke-opacity: 0.4;"></path><path d="M533.1841975477621,223.45059804884286A158.24664994613542,158.24664994613542 0,0,1 585.2295287962763,372.8938505375623" style="fill: none; stroke-width: 1.66667; stroke: rgb(143, 0, 0); stroke-opacity: 0.4;"></path><path d="M533.1841975477621,223.45059804884286A154.67801448967504,154.67801448967504 0,0,1 380.82791486646846,250.14987320765314" style="fill: none; stroke-width: 1.66667; stroke: rgb(143, 0, 0); stroke-opacity: 0.4;"></path><path d="M533.1841975477621,223.45059804884286A245.54768534578977,245.54768534578977 0,0,1 642.9799060262883,443.08340110515655" style="fill: none; stroke-width: 1.66667; stroke: rgb(143, 0, 0); stroke-opacity: 0.4;"></path><path d="M533.1841975477621,223.45059804884286A289.50709809567917,289.50709809567917 0,0,1 257.7204165720707,312.52396790963525" style="fill: none; stroke-width: 1.66667; stroke: rgb(143, 0, 0); stroke-opacity: 0.4;"></path><path d="M431.7931555511175,121.79821785884523A30,20 -45,1,1 432.7931555511175,122.79821785884523" style="fill: none; stroke-width: 1.66667; stroke: rgb(143, 0, 0); stroke-opacity: 0.4;"></path><path d="M431.7931555511175,121.79821785884523A294.264740301914,294.264740301914 0,0,1 585.2295287962763,372.8938505375623" style="fill: none; stroke-width: 1.66667; stroke: rgb(143, 0, 0); stroke-opacity: 0.4;"></path><path d="M431.7931555511175,121.79821785884523A340.3808498806644,340.3808498806644 0,0,1 654.6114691109036,379.1134372063534" style="fill: none; stroke-width: 1.66667; stroke: rgb(143, 0, 0); stroke-opacity: 0.4;"></path><path d="M126.52288367948489,313.50557309364723A30,20 -45,1,1 127.52288367948489,314.50557309364723" style="fill: none; stroke-width: 1.66667; stroke: rgb(143, 0, 0); stroke-opacity: 0.4;"></path><path d="M126.52288367948489,313.50557309364723A462.5351378782562,462.5351378782562 0,0,1 585.2295287962763,372.8938505375623" style="fill: none; stroke-width: 1.66667; stroke: rgb(143, 0, 0); stroke-opacity: 0.4;"></path><path d="M126.52288367948489,313.50557309364723A532.1484246865607,532.1484246865607 0,0,1 654.6114691109036,379.1134372063534" style="fill: none; stroke-width: 1.66667; stroke: rgb(143, 0, 0); stroke-opacity: 0.4;"></path><path d="M126.52288367948489,313.50557309364723A584.8985859889771,584.8985859889771 0,0,1 696.5958791029203,444.36097336760054" style="fill: none; stroke-width: 1.66667; stroke: rgb(143, 0, 0); stroke-opacity: 0.4;"></path><path d="M126.52288367948489,313.50557309364723A131.20120497098497,131.20120497098497 0,0,1 257.7204165720707,312.52396790963525" style="fill: none; stroke-width: 1.66667; stroke: rgb(143, 0, 0); stroke-opacity: 0.4;"></path><path d="M585.2295287962763,372.8938505375623A429.4192050747009,429.4192050747009 0,0,1 159.1024779541325,425.9654081514577" style="fill: none; stroke-width: 1.66667; stroke: rgb(143, 0, 0); stroke-opacity: 0.4;"></path><path d="M585.2295287962763,372.8938505375623A368.44899940534674,368.44899940534674 0,0,1 224.5165641567736,447.9992584905322" style="fill: none; stroke-width: 1.66667; stroke: rgb(143, 0, 0); stroke-opacity: 0.4;"></path><path d="M585.2295287962763,372.8938505375623A234.54379226182516,234.54379226182516 0,0,1 514.0415505801586,149.41440574216338" style="fill: none; stroke-width: 1.66667; stroke: rgb(143, 0, 0); stroke-opacity: 0.4;"></path><path d="M585.2295287962763,372.8938505375623A273.11746993016703,273.11746993016703 0,0,1 312.14775363543816,368.47837139469146" style="fill: none; stroke-width: 1.66667; stroke: rgb(143, 0, 0); stroke-opacity: 0.4;"></path><path d="M585.2295287962763,372.8938505375623A150.98840782477714,150.98840782477714 0,0,1 444.68069020797947,317.72571418203455" style="fill: none; stroke-width: 1.66667; stroke: rgb(143, 0, 0); stroke-opacity: 0.4;"></path><path d="M654.6114691109036,379.1134372063534A269.2982492541072,269.2982492541072 0,0,1 514.0415505801586,149.41440574216338" style="fill: none; stroke-width: 1.66667; stroke: rgb(143, 0, 0); stroke-opacity: 0.4;"></path><path d="M654.6114691109036,379.1134372063534A402.4383990210194,402.4383990210194 0,0,1 257.7204165720707,312.52396790963525" style="fill: none; stroke-width: 1.66667; stroke: rgb(143, 0, 0); stroke-opacity: 0.4;"></path><path d="M159.1024779541325,425.9654081514577A69.02530865190893,69.02530865190893 0,0,1 224.5165641567736,447.9992584905322" style="fill: none; stroke-width: 1.66667; stroke: rgb(143, 0, 0); stroke-opacity: 0.4;"></path><path d="M159.1024779541325,425.9654081514577A449.958000495834,449.958000495834 0,0,1 514.0415505801586,149.41440574216338" style="fill: none; stroke-width: 1.66667; stroke: rgb(143, 0, 0); stroke-opacity: 0.4;"></path><path d="M159.1024779541325,425.9654081514577A150.3145308391388,150.3145308391388 0,0,1 257.7204165720707,312.52396790963525" style="fill: none; stroke-width: 1.66667; stroke: rgb(143, 0, 0); stroke-opacity: 0.4;"></path><path d="M380.82791486646846,250.14987320765314A240.1132579744822,240.1132579744822 0,0,1 175.60654294183837,374.80365437971744" style="fill: none; stroke-width: 1.66667; stroke: rgb(143, 0, 0); stroke-opacity: 0.4;"></path><path d="M380.82791486646846,250.14987320765314A325.49502708341794,325.49502708341794 0,0,1 642.9799060262883,443.08340110515655" style="fill: none; stroke-width: 1.66667; stroke: rgb(143, 0, 0); stroke-opacity: 0.4;"></path><path d="M380.82791486646846,250.14987320765314A138.0071875888969,138.0071875888969 0,0,1 257.7204165720707,312.52396790963525" style="fill: none; stroke-width: 1.66667; stroke: rgb(143, 0, 0); stroke-opacity: 0.4;"></path><path d="M175.60654294183837,374.80365437971744A406.6184548155077,406.6184548155077 0,0,1 514.0415505801586,149.41440574216338" style="fill: none; stroke-width: 1.66667; stroke: rgb(143, 0, 0); stroke-opacity: 0.4;"></path><path d="M175.60654294183837,374.80365437971744A472.33461056094455,472.33461056094455 0,0,1 642.9799060262883,443.08340110515655" style="fill: none; stroke-width: 1.66667; stroke: rgb(143, 0, 0); stroke-opacity: 0.4;"></path><path d="M175.60654294183837,374.80365437971744A103.06040747723397,103.06040747723397 0,0,1 257.7204165720707,312.52396790963525" style="fill: none; stroke-width: 1.66667; stroke: rgb(143, 0, 0); stroke-opacity: 0.4;"></path><path d="M224.5165641567736,447.9992584905322A30,20 -45,1,1 225.5165641567736,448.9992584905322" style="fill: none; stroke-width: 1.66667; stroke: rgb(143, 0, 0); stroke-opacity: 0.4;"></path><path marker-end="url(#blue_arrow)" style="fill: none; stroke-width: 1.66667; stroke: blue; stroke-opacity: 0.4;" d="M642.9799060262883,495.4218019193445A215.5583632716225,215.5583632716225 0,0,1 520.1215649419894,318.3025313631601"></path><path marker-end="url(#blue_arrow)" style="fill: none; stroke-width: 1.66667; stroke: blue; stroke-opacity: 0.4;" d="M642.9799060262883,495.4218019193445A281.40504705017804,281.40504705017804 0,0,1 367.12055193648234,439.83028038531944"></path><path marker-end="url(#blue_arrow)" style="fill: none; stroke-width: 1.66667; stroke: blue; stroke-opacity: 0.4;" d="M642.9799060262883,495.4218019193445A167.697820759095,167.697820759095 0,0,1 518.1759547335387,383.410495217447"></path><path marker-end="url(#blue_arrow)" style="fill: none; stroke-width: 1.66667; stroke: blue; stroke-opacity: 0.4;" d="M642.9799060262883,495.4218019193445A202.81224581091172,202.81224581091172 0,0,1 444.6709676534534,452.9203665047041"></path><path marker-end="url(#blue_arrow)" style="fill: none; stroke-width: 1.66667; stroke: blue; stroke-opacity: 0.4;" d="M642.9799060262883,495.4218019193445A322.53146546587396,322.53146546587396 0,0,1 376.0736404921186,314.34835926645974"></path><path marker-end="url(#blue_arrow)" style="fill: none; stroke-width: 1.66667; stroke: blue; stroke-opacity: 0.4;" d="M642.9799060262883,495.4218019193445A298.26092883831,298.26092883831 0,0,1 371.17570312789417,372.6127755480714"></path><path marker-end="url(#blue_arrow)" style="fill: none; stroke-width: 1.66667; stroke: blue; stroke-opacity: 0.4;" d="M642.9799060262883,495.4218019193445A293.29751675571936,293.29751675571936 0,0,1 533.1841975477621,223.45059804884286"></path><path marker-end="url(#blue_arrow)" style="fill: none; stroke-width: 1.66667; stroke: blue; stroke-opacity: 0.4;" d="M642.9799060262883,495.4218019193445A488.83694217291315,488.83694217291315 0,0,1 159.1024779541325,425.9654081514577"></path><path marker-end="url(#blue_arrow)" style="fill: none; stroke-width: 1.66667; stroke: blue; stroke-opacity: 0.4;" d="M642.9799060262883,495.4218019193445A421.14185984518315,421.14185984518315 0,0,1 224.5165641567736,447.9992584905322"></path><path marker-end="url(#blue_arrow)" style="fill: none; stroke-width: 1.66667; stroke: blue; stroke-opacity: 0.4;" d="M642.9799060262883,495.4218019193445A30,20 -45,1,1 643.9799060262883,496.4218019193445"></path><path d="M642.9799060262883,495.4218019193445A426.4698018617116,426.4698018617116 0,0,1 257.7204165720707,312.52396790963525" style="fill: none; stroke-width: 1.66667; stroke: rgb(143, 0, 0); stroke-opacity: 0.4;"></path><path marker-end="url(#blue_arrow)" style="fill: none; stroke-width: 1.66667; stroke: blue; stroke-opacity: 0.4;" d="M642.9799060262883,443.08340110515655A345.2916465583577,345.2916465583577 0,0,1 297.9574368907836,429.45193109559824"></path><path marker-end="url(#blue_arrow)" style="fill: none; stroke-width: 1.66667; stroke: blue; stroke-opacity: 0.4;" d="M642.9799060262883,443.08340110515655A147.52584917351186,147.52584917351186 0,0,1 589.2846799876882,305.67634570031424"></path><path marker-end="url(#blue_arrow)" style="fill: none; stroke-width: 1.66667; stroke: blue; stroke-opacity: 0.4;" d="M642.9799060262883,443.08340110515655A466.27610131913787,466.27610131913787 0,0,1 195.6859987251837,311.3960321106861"></path><path marker-end="url(#blue_arrow)" style="fill: none; stroke-width: 1.66667; stroke: blue; stroke-opacity: 0.4;" d="M642.9799060262883,443.08340110515655A415.4994455510316,415.4994455510316 0,0,1 232.84947303649668,376.503995964973"></path><path marker-end="url(#blue_arrow)" style="fill: none; stroke-width: 1.66667; stroke: blue; stroke-opacity: 0.4;" d="M642.9799060262883,443.08340110515655A280.7910856484556,280.7910856484556 0,0,1 371.17570312789417,372.6127755480714"></path><path marker-end="url(#blue_arrow)" style="fill: none; stroke-width: 1.66667; stroke: blue; stroke-opacity: 0.4;" d="M642.9799060262883,443.08340110515655A245.54768534578977,245.54768534578977 0,0,1 533.1841975477621,223.45059804884286"></path><path marker-end="url(#blue_arrow)" style="fill: none; stroke-width: 1.66667; stroke: blue; stroke-opacity: 0.4;" d="M642.9799060262883,443.08340110515655A65.01883989280002,65.01883989280002 0,0,1 654.6114691109036,379.1134372063534"></path><path marker-end="url(#blue_arrow)" style="fill: none; stroke-width: 1.66667; stroke: blue; stroke-opacity: 0.4;" d="M642.9799060262883,443.08340110515655A30,20 -45,1,1 643.9799060262883,444.08340110515655"></path><path d="M642.9799060262883,443.08340110515655A234.59993321582957,234.59993321582957 0,0,1 444.68069020797947,317.72571418203455" style="fill: none; stroke-width: 1.66667; stroke: rgb(143, 0, 0); stroke-opacity: 0.4;"></path><path d="M257.7204165720707,312.52396790963525A30,20 -45,1,1 258.7204165720707,313.52396790963525" style="fill: none; stroke-width: 1.66667; stroke: rgb(143, 0, 0); stroke-opacity: 0.4;"></path><path d="M257.7204165720707,312.52396790963525A60.16736231935545,60.16736231935545 0,0,1 317.8092242105069,309.45042190223535" style="fill: none; stroke-width: 1.66667; stroke: rgb(143, 0, 0); stroke-opacity: 0.4;"></path><path d="M317.8092242105069,309.45042190223535A30,20 -45,1,1 318.8092242105069,310.45042190223535" style="fill: none; stroke-width: 1.66667; stroke: rgb(143, 0, 0); stroke-opacity: 0.4;"></path><path d="M583.2839185878255,438.00181439184917A220.3229594993578,220.3229594993578 0,0,1 533.1841975477621,223.45059804884286" style="fill: none; stroke-width: 8.33333; stroke: grey; stroke-opacity: 0.4;"></path><path d="M520.1215649419894,318.3025313631601A95.74717554088515,95.74717554088515 0,0,1 533.1841975477621,223.45059804884286" style="fill: none; stroke-width: 7; stroke: grey; stroke-opacity: 0.4;"></path><path d="M533.1841975477621,223.45059804884286A143.57349962809005,143.57349962809005 0,0,1 431.7931555511175,121.79821785884523" style="fill: none; stroke-width: 7; stroke: grey; stroke-opacity: 0.4;"></path><path d="M520.1215649419894,318.3025313631601A324.50906976283994,324.50906976283994 0,0,1 195.6859987251837,311.3960321106861" style="fill: none; stroke-width: 6.33333; stroke: grey; stroke-opacity: 0.4;"></path><path d="M520.1215649419894,318.3025313631601A293.1086236697139,293.1086236697139 0,0,1 232.84947303649668,376.503995964973" style="fill: none; stroke-width: 6.33333; stroke: grey; stroke-opacity: 0.4;"></path><path d="M431.7931555511175,121.79821785884523A386.4850634232237,386.4850634232237 0,0,1 224.5165641567736,447.9992584905322" style="fill: none; stroke-width: 6.33333; stroke: grey; stroke-opacity: 0.4;"></path><path d="M583.2839185878255,438.00181439184917A358.9066222486878,358.9066222486878 0,0,1 224.5165641567736,447.9992584905322" style="fill: none; stroke-width: 6.33333; stroke: grey; stroke-opacity: 0.4;"></path><path d="M533.1841975477621,223.45059804884286A231.91021720234303,231.91021720234303 0,0,1 317.8092242105069,309.45042190223535" style="fill: none; stroke-width: 5.66667; stroke: grey; stroke-opacity: 0.4;"></path><path d="M432.59873693749597,386.3230413433693A191.42849231738762,191.42849231738762 0,0,1 533.1841975477621,223.45059804884286" style="fill: none; stroke-width: 5.66667; stroke: grey; stroke-opacity: 0.4;"></path><path d="M518.1759547335387,383.410495217447A188.5434437966704,188.5434437966704 0,0,1 696.5958791029203,444.36097336760054" style="fill: none; stroke-width: 5.66667; stroke: grey; stroke-opacity: 0.4;"></path><path d="M432.59873693749597,386.3230413433693A270.30148468915326,270.30148468915326 0,0,1 696.5958791029203,444.36097336760054" style="fill: none; stroke-width: 5.66667; stroke: grey; stroke-opacity: 0.4;"></path><path d="M520.1215649419894,318.3025313631601A75.44307985954059,75.44307985954059 0,0,1 444.68069020797947,317.72571418203455" style="fill: none; stroke-width: 5; stroke: grey; stroke-opacity: 0.4;"></path><path d="M520.1215649419894,318.3025313631601A70.30616649496127,70.30616649496127 0,0,1 589.2846799876882,305.67634570031424" style="fill: none; stroke-width: 5; stroke: grey; stroke-opacity: 0.4;"></path><path d="M589.2846799876882,305.67634570031424A393.6402376589766,393.6402376589766 0,0,1 195.6859987251837,311.3960321106861" style="fill: none; stroke-width: 4.33333; stroke: grey; stroke-opacity: 0.4;"></path><path d="M583.2839185878255,438.00181439184917A183.51347416197297,183.51347416197297 0,0,1 444.68069020797947,317.72571418203455" style="fill: none; stroke-width: 4.33333; stroke: grey; stroke-opacity: 0.4;"></path><path d="M431.7931555511175,121.79821785884523A196.35089091981524,196.35089091981524 0,0,1 444.68069020797947,317.72571418203455" style="fill: none; stroke-width: 4.33333; stroke: grey; stroke-opacity: 0.4;"></path><path d="M520.1215649419894,318.3025313631601A216.87303741857315,216.87303741857315 0,0,1 696.5958791029203,444.36097336760054" style="fill: none; stroke-width: 4.33333; stroke: grey; stroke-opacity: 0.4;"></path><path d="M126.52288367948489,313.50557309364723A191.32931904163388,191.32931904163388 0,0,1 317.8092242105069,309.45042190223535" style="fill: none; stroke-width: 4.33333; stroke: grey; stroke-opacity: 0.4;"></path><path d="M520.1215649419894,318.3025313631601A110.84689982075223,110.84689982075223 0,0,1 432.59873693749597,386.3230413433693" style="fill: none; stroke-width: 4.33333; stroke: grey; stroke-opacity: 0.4;"></path><path d="M583.2839185878255,438.00181439184917A159.3007205030445,159.3007205030445 0,0,1 432.59873693749597,386.3230413433693" style="fill: none; stroke-width: 4.33333; stroke: grey; stroke-opacity: 0.4;"></path><path d="M518.1759547335387,383.410495217447A85.62676643811183,85.62676643811183 0,0,1 432.59873693749597,386.3230413433693" style="fill: none; stroke-width: 4.33333; stroke: grey; stroke-opacity: 0.4;"></path><path d="M371.17570312789417,372.6127755480714A280.7910856484556,280.7910856484556 0,0,1 642.9799060262883,443.08340110515655" style="fill: none; stroke-width: 3.66667; stroke: grey; stroke-opacity: 0.4;"></path><path d="M518.1759547335387,383.410495217447A160.66242888292555,160.66242888292555 0,0,1 533.1841975477621,223.45059804884286" style="fill: none; stroke-width: 3.66667; stroke: grey; stroke-opacity: 0.4;"></path><path d="M195.6859987251837,311.3960321106861A185.8605015285102,185.8605015285102 0,0,1 371.17570312789417,372.6127755480714" style="fill: none; stroke-width: 3.66667; stroke: grey; stroke-opacity: 0.4;"></path><path d="M583.2839185878255,438.00181439184917A350.6196881891414,350.6196881891414 0,0,1 431.7931555511175,121.79821785884523" style="fill: none; stroke-width: 3.66667; stroke: grey; stroke-opacity: 0.4;"></path><path d="M533.1841975477621,223.45059804884286A416.51329237779896,416.51329237779896 0,0,1 126.52288367948489,313.50557309364723" style="fill: none; stroke-width: 3.66667; stroke: grey; stroke-opacity: 0.4;"></path><path d="M232.84947303649668,376.503995964973A138.38095073972846,138.38095073972846 0,0,1 371.17570312789417,372.6127755480714" style="fill: none; stroke-width: 3.66667; stroke: grey; stroke-opacity: 0.4;"></path><path d="M371.17570312789417,372.6127755480714A251.69160384495194,251.69160384495194 0,0,1 126.52288367948489,313.50557309364723" style="fill: none; stroke-width: 3.66667; stroke: grey; stroke-opacity: 0.4;"></path><path d="M520.1215649419894,318.3025313631601A322.80575818405015,322.80575818405015 0,0,1 224.5165641567736,447.9992584905322" style="fill: none; stroke-width: 3.66667; stroke: grey; stroke-opacity: 0.4;"></path><path d="M583.2839185878255,438.00181439184917A294.9614786133089,294.9614786133089 0,0,1 317.8092242105069,309.45042190223535" style="fill: none; stroke-width: 3.66667; stroke: grey; stroke-opacity: 0.4;"></path><path d="M518.1759547335387,383.410495217447A105.35202327635702,105.35202327635702 0,0,1 589.2846799876882,305.67634570031424" style="fill: none; stroke-width: 3.66667; stroke: grey; stroke-opacity: 0.4;"></path><path d="M518.1759547335387,383.410495217447A147.39628462814525,147.39628462814525 0,0,1 371.17570312789417,372.6127755480714" style="fill: none; stroke-width: 3.66667; stroke: grey; stroke-opacity: 0.4;"></path><path d="M518.1759547335387,383.410495217447A300.6784761419808,300.6784761419808 0,0,1 224.5165641567736,447.9992584905322" style="fill: none; stroke-width: 3.66667; stroke: grey; stroke-opacity: 0.4;"></path><path d="M696.5958791029203,444.36097336760054A472.09333475347745,472.09333475347745 0,0,1 224.5165641567736,447.9992584905322" style="fill: none; stroke-width: 3.66667; stroke: grey; stroke-opacity: 0.4;"></path><path d="M224.5165641567736,447.9992584905322A415.9057970913923,415.9057970913923 0,0,1 514.0415505801586,149.41440574216338" style="fill: none; stroke-width: 3.66667; stroke: grey; stroke-opacity: 0.4;"></path><path d="M583.2839185878255,438.00181439184917A113.49026080969806,113.49026080969806 0,0,1 696.5958791029203,444.36097336760054" style="fill: none; stroke-width: 3.66667; stroke: grey; stroke-opacity: 0.4;"></path><path d="M431.7931555511175,121.79821785884523A417.3334561736616,417.3334561736616 0,0,1 696.5958791029203,444.36097336760054" style="fill: none; stroke-width: 3.66667; stroke: grey; stroke-opacity: 0.4;"></path><path d="M397.1183930557683,190.96133290454404A177.0467766409428,177.0467766409428 0,0,1 520.1215649419894,318.3025313631601" style="fill: none; stroke-width: 3; stroke: grey; stroke-opacity: 0.4;"></path><path d="M589.2846799876882,305.67634570031424A228.14909911632319,228.14909911632319 0,0,1 371.17570312789417,372.6127755480714" style="fill: none; stroke-width: 3; stroke: grey; stroke-opacity: 0.4;"></path><path d="M589.2846799876882,305.67634570031424A147.52584917351186,147.52584917351186 0,0,1 642.9799060262883,443.08340110515655" style="fill: none; stroke-width: 3; stroke: grey; stroke-opacity: 0.4;"></path><path d="M195.6859987251837,311.3960321106861A466.27610131913787,466.27610131913787 0,0,1 642.9799060262883,443.08340110515655" style="fill: none; stroke-width: 3; stroke: grey; stroke-opacity: 0.4;"></path><path d="M397.1183930557683,190.96133290454404A139.89086997252548,139.89086997252548 0,0,1 533.1841975477621,223.45059804884286" style="fill: none; stroke-width: 3; stroke: grey; stroke-opacity: 0.4;"></path><path d="M520.1215649419894,318.3025313631601A154.32029733444904,154.32029733444904 0,0,1 444.6709676534534,452.9203665047041" style="fill: none; stroke-width: 3; stroke: grey; stroke-opacity: 0.4;"></path><path d="M367.12055193648234,439.83028038531944A90.07276763625143,90.07276763625143 0,0,1 312.14775363543816,368.47837139469146" style="fill: none; stroke-width: 3; stroke: grey; stroke-opacity: 0.4;"></path><path d="M518.1759547335387,383.410495217447A330.4328292146919,330.4328292146919 0,0,1 195.6859987251837,311.3960321106861" style="fill: none; stroke-width: 3; stroke: grey; stroke-opacity: 0.4;"></path><path d="M518.1759547335387,383.410495217447A397.84271540799415,397.84271540799415 0,0,1 126.52288367948489,313.50557309364723" style="fill: none; stroke-width: 3; stroke: grey; stroke-opacity: 0.4;"></path><path d="M518.1759547335387,383.410495217447A98.56999729812314,98.56999729812314 0,0,1 444.68069020797947,317.72571418203455" style="fill: none; stroke-width: 3; stroke: grey; stroke-opacity: 0.4;"></path><path d="M432.59873693749597,386.3230413433693A138.15220538174913,138.15220538174913 0,0,1 317.8092242105069,309.45042190223535" style="fill: none; stroke-width: 3; stroke: grey; stroke-opacity: 0.4;"></path><path d="M371.17570312789417,372.6127755480714A220.21831772244502,220.21831772244502 0,0,1 533.1841975477621,223.45059804884286" style="fill: none; stroke-width: 3; stroke: grey; stroke-opacity: 0.4;"></path><path d="M431.7931555511175,121.79821785884523A340.3808498806644,340.3808498806644 0,0,1 654.6114691109036,379.1134372063534" style="fill: none; stroke-width: 3; stroke: grey; stroke-opacity: 0.4;"></path><path d="M224.5165641567736,447.9992584905322A118.33341393687188,118.33341393687188 0,0,1 312.14775363543816,368.47837139469146" style="fill: none; stroke-width: 3; stroke: grey; stroke-opacity: 0.4;"></path><path d="M397.1183930557683,190.96133290454404A309.33251104613396,309.33251104613396 0,0,1 583.2839185878255,438.00181439184917" style="fill: none; stroke-width: 3; stroke: grey; stroke-opacity: 0.4;"></path><path d="M195.6859987251837,311.3960321106861A74.96779828792323,74.96779828792323 0,0,1 232.84947303649668,376.503995964973" style="fill: none; stroke-width: 3; stroke: grey; stroke-opacity: 0.4;"></path><path d="M232.84947303649668,376.503995964973A123.58861148410477,123.58861148410477 0,0,1 126.52288367948489,313.50557309364723" style="fill: none; stroke-width: 3; stroke: grey; stroke-opacity: 0.4;"></path><path d="M432.59873693749597,386.3230413433693A62.934572935336604,62.934572935336604 0,0,1 371.17570312789417,372.6127755480714" style="fill: none; stroke-width: 3; stroke: grey; stroke-opacity: 0.4;"></path><path d="M432.59873693749597,386.3230413433693A264.52605013663344,264.52605013663344 0,0,1 431.7931555511175,121.79821785884523" style="fill: none; stroke-width: 3; stroke: grey; stroke-opacity: 0.4;"></path><path d="M589.2846799876882,305.67634570031424A391.5502392183249,391.5502392183249 0,0,1 224.5165641567736,447.9992584905322" style="fill: none; stroke-width: 3; stroke: grey; stroke-opacity: 0.4;"></path><path d="M520.1215649419894,318.3025313631601A135.3417942679344,135.3417942679344 0,0,1 583.2839185878255,438.00181439184917" style="fill: none; stroke-width: 3; stroke: grey; stroke-opacity: 0.4;"></path><path d="M444.6709676534534,452.9203665047041A135.1946526722694,135.1946526722694 0,0,1 444.68069020797947,317.72571418203455" style="fill: none; stroke-width: 3; stroke: grey; stroke-opacity: 0.4;"></path><path d="M397.1183930557683,190.96133290454404A198.5574272750889,198.5574272750889 0,0,1 432.59873693749597,386.3230413433693" style="fill: none; stroke-width: 2.33333; stroke: grey; stroke-opacity: 0.4;"></path><path d="M397.1183930557683,190.96133290454404A392.298537386935,392.298537386935 0,0,1 696.5958791029203,444.36097336760054" style="fill: none; stroke-width: 2.33333; stroke: grey; stroke-opacity: 0.4;"></path><path d="M397.1183930557683,190.96133290454404A196.8052553104521,196.8052553104521 0,0,1 312.14775363543816,368.47837139469146" style="fill: none; stroke-width: 2.33333; stroke: grey; stroke-opacity: 0.4;"></path><path d="M397.1183930557683,190.96133290454404A142.58193600322937,142.58193600322937 0,0,1 317.8092242105069,309.45042190223535" style="fill: none; stroke-width: 2.33333; stroke: grey; stroke-opacity: 0.4;"></path><path d="M397.1183930557683,190.96133290454404A135.3934284633498,135.3934284633498 0,0,1 444.68069020797947,317.72571418203455" style="fill: none; stroke-width: 2.33333; stroke: grey; stroke-opacity: 0.4;"></path><path d="M520.1215649419894,318.3025313631601A195.39269117114972,195.39269117114972 0,0,1 367.12055193648234,439.83028038531944" style="fill: none; stroke-width: 2.33333; stroke: grey; stroke-opacity: 0.4;"></path><path d="M520.1215649419894,318.3025313631601A158.53855169947857,158.53855169947857 0,0,1 371.17570312789417,372.6127755480714" style="fill: none; stroke-width: 2.33333; stroke: grey; stroke-opacity: 0.4;"></path><path d="M583.2839185878255,438.00181439184917A473.4236549940428,473.4236549940428 0,0,1 126.52288367948489,313.50557309364723" style="fill: none; stroke-width: 2.33333; stroke: grey; stroke-opacity: 0.4;"></path><path d="M583.2839185878255,438.00181439184917A92.49573196187745,92.49573196187745 0,0,1 654.6114691109036,379.1134372063534" style="fill: none; stroke-width: 2.33333; stroke: grey; stroke-opacity: 0.4;"></path><path d="M444.6709676534534,452.9203665047041A286.39597060343084,286.39597060343084 0,0,1 195.6859987251837,311.3960321106861" style="fill: none; stroke-width: 2.33333; stroke: grey; stroke-opacity: 0.4;"></path><path d="M444.6709676534534,452.9203665047041A225.18394096433008,225.18394096433008 0,0,1 232.84947303649668,376.503995964973" style="fill: none; stroke-width: 2.33333; stroke: grey; stroke-opacity: 0.4;"></path><path d="M444.6709676534534,452.9203665047041A245.94911364245513,245.94911364245513 0,0,1 533.1841975477621,223.45059804884286" style="fill: none; stroke-width: 2.33333; stroke: grey; stroke-opacity: 0.4;"></path><path d="M432.59873693749597,386.3230413433693A69.65319008135481,69.65319008135481 0,0,1 444.68069020797947,317.72571418203455" style="fill: none; stroke-width: 2.33333; stroke: grey; stroke-opacity: 0.4;"></path><path d="M589.2846799876882,305.67634570031424A363.4042003009205,363.4042003009205 0,0,1 232.84947303649668,376.503995964973" style="fill: none; stroke-width: 2.33333; stroke: grey; stroke-opacity: 0.4;"></path><path d="M376.0736404921186,314.34835926645974A285.96824525151067,285.96824525151067 0,0,1 654.6114691109036,379.1134372063534" style="fill: none; stroke-width: 2.33333; stroke: grey; stroke-opacity: 0.4;"></path><path d="M376.0736404921186,314.34835926645974A58.46992385030791,58.46992385030791 0,0,1 317.8092242105069,309.45042190223535" style="fill: none; stroke-width: 2.33333; stroke: grey; stroke-opacity: 0.4;"></path><path d="M533.1841975477621,223.45059804884286A197.4221410426042,197.4221410426042 0,0,1 654.6114691109036,379.1134372063534" style="fill: none; stroke-width: 2.33333; stroke: grey; stroke-opacity: 0.4;"></path><path d="M431.7931555511175,121.79821785884523A274.1644038675209,274.1644038675209 0,0,1 312.14775363543816,368.47837139469146" style="fill: none; stroke-width: 2.33333; stroke: grey; stroke-opacity: 0.4;"></path><path d="M431.7931555511175,121.79821785884523A219.55793378104818,219.55793378104818 0,0,1 317.8092242105069,309.45042190223535" style="fill: none; stroke-width: 2.33333; stroke: grey; stroke-opacity: 0.4;"></path><path d="M126.52288367948489,313.50557309364723A532.1484246865607,532.1484246865607 0,0,1 654.6114691109036,379.1134372063534" style="fill: none; stroke-width: 2.33333; stroke: grey; stroke-opacity: 0.4;"></path><path d="M654.6114691109036,379.1134372063534A77.58821854825,77.58821854825 0,0,1 696.5958791029203,444.36097336760054" style="fill: none; stroke-width: 2.33333; stroke: grey; stroke-opacity: 0.4;"></path><path d="M317.8092242105069,309.45042190223535A127.14106082090058,127.14106082090058 0,0,1 444.68069020797947,317.72571418203455" style="fill: none; stroke-width: 2.33333; stroke: grey; stroke-opacity: 0.4;"></path><path d="M397.1183930557683,190.96133290454404A250.67034825045994,250.67034825045994 0,0,1 367.12055193648234,439.83028038531944" style="fill: none; stroke-width: 2.33333; stroke: grey; stroke-opacity: 0.4;"></path><path d="M397.1183930557683,190.96133290454404A227.35789696930533,227.35789696930533 0,0,1 518.1759547335387,383.410495217447" style="fill: none; stroke-width: 2.33333; stroke: grey; stroke-opacity: 0.4;"></path><path d="M397.1183930557683,190.96133290454404A77.36844083302599,77.36844083302599 0,0,1 431.7931555511175,121.79821785884523" style="fill: none; stroke-width: 2.33333; stroke: grey; stroke-opacity: 0.4;"></path><path d="M520.1215649419894,318.3025313631601A147.59912124681995,147.59912124681995 0,0,1 654.6114691109036,379.1134372063534" style="fill: none; stroke-width: 2.33333; stroke: grey; stroke-opacity: 0.4;"></path><path d="M583.2839185878255,438.00181439184917A216.1710997564945,216.1710997564945 0,0,1 367.12055193648234,439.83028038531944" style="fill: none; stroke-width: 2.33333; stroke: grey; stroke-opacity: 0.4;"></path><path d="M583.2839185878255,438.00181439184917A139.41346191770228,139.41346191770228 0,0,1 444.6709676534534,452.9203665047041" style="fill: none; stroke-width: 2.33333; stroke: grey; stroke-opacity: 0.4;"></path><path d="M583.2839185878255,438.00181439184917A407.7513600086113,407.7513600086113 0,0,1 195.6859987251837,311.3960321106861" style="fill: none; stroke-width: 2.33333; stroke: grey; stroke-opacity: 0.4;"></path><path d="M367.12055193648234,439.83028038531944A324.54111981864315,324.54111981864315 0,0,1 431.7931555511175,121.79821785884523" style="fill: none; stroke-width: 2.33333; stroke: grey; stroke-opacity: 0.4;"></path><path d="M444.6709676534534,452.9203665047041A331.37247225500386,331.37247225500386 0,0,1 431.7931555511175,121.79821785884523" style="fill: none; stroke-width: 2.33333; stroke: grey; stroke-opacity: 0.4;"></path><path d="M432.59873693749597,386.3230413433693A217.03028910898678,217.03028910898678 0,0,1 224.5165641567736,447.9992584905322" style="fill: none; stroke-width: 2.33333; stroke: grey; stroke-opacity: 0.4;"></path><path d="M589.2846799876882,305.67634570031424A145.10513823093365,145.10513823093365 0,0,1 444.68069020797947,317.72571418203455" style="fill: none; stroke-width: 2.33333; stroke: grey; stroke-opacity: 0.4;"></path><path d="M195.6859987251837,311.3960321106861A249.0751317609548,249.0751317609548 0,0,1 444.68069020797947,317.72571418203455" style="fill: none; stroke-width: 2.33333; stroke: grey; stroke-opacity: 0.4;"></path><path d="M533.1841975477621,223.45059804884286A264.367480184422,264.367480184422 0,0,1 312.14775363543816,368.47837139469146" style="fill: none; stroke-width: 2.33333; stroke: grey; stroke-opacity: 0.4;"></path><path d="M533.1841975477621,223.45059804884286A129.3084232885458,129.3084232885458 0,0,1 444.68069020797947,317.72571418203455" style="fill: none; stroke-width: 2.33333; stroke: grey; stroke-opacity: 0.4;"></path><path d="M126.52288367948489,313.50557309364723A318.18579390951584,318.18579390951584 0,0,1 444.68069020797947,317.72571418203455" style="fill: none; stroke-width: 2.33333; stroke: grey; stroke-opacity: 0.4;"></path><path d="M312.14775363543816,368.47837139469146A59.29882857490795,59.29882857490795 0,0,1 317.8092242105069,309.45042190223535" style="fill: none; stroke-width: 2.33333; stroke: grey; stroke-opacity: 0.4;"></path><path d="M432.59873693749597,386.3230413433693A121.76564221491157,121.76564221491157 0,0,1 312.14775363543816,368.47837139469146" style="fill: none; stroke-width: 2.33333; stroke: grey; stroke-opacity: 0.4;"></path><path d="M585.2295287962763,372.8938505375623A69.66015288637477,69.66015288637477 0,0,1 654.6114691109036,379.1134372063534" style="fill: none; stroke-width: 2.33333; stroke: grey; stroke-opacity: 0.4;"></path><path d="M520.1215649419894,318.3025313631601A65.1370275368347,65.1370275368347 0,0,1 518.1759547335387,383.410495217447" style="fill: none; stroke-width: 2.33333; stroke: grey; stroke-opacity: 0.4;"></path><path d="M520.1215649419894,318.3025313631601A215.4433873000597,215.4433873000597 0,0,1 431.7931555511175,121.79821785884523" style="fill: none; stroke-width: 2.33333; stroke: grey; stroke-opacity: 0.4;"></path><path d="M232.84947303649668,376.503995964973A323.1928560675904,323.1928560675904 0,0,1 431.7931555511175,121.79821785884523" style="fill: none; stroke-width: 2.33333; stroke: grey; stroke-opacity: 0.4;"></path><path d="M696.5958791029203,444.36097336760054A391.8654494308472,391.8654494308472 0,0,1 312.14775363543816,368.47837139469146" style="fill: none; stroke-width: 2.33333; stroke: grey; stroke-opacity: 0.4;"></path><path d="M397.1183930557683,190.96133290454404A266.2400845770565,266.2400845770565 0,0,1 444.6709676534534,452.9203665047041" style="fill: none; stroke-width: 1.66667; stroke: grey; stroke-opacity: 0.4;"></path><path d="M397.1183930557683,190.96133290454404A183.49460421268122,183.49460421268122 0,0,1 371.17570312789417,372.6127755480714" style="fill: none; stroke-width: 1.66667; stroke: grey; stroke-opacity: 0.4;"></path><path d="M397.1183930557683,190.96133290454404A297.050535259802,297.050535259802 0,0,1 126.52288367948489,313.50557309364723" style="fill: none; stroke-width: 1.66667; stroke: grey; stroke-opacity: 0.4;"></path><path d="M397.1183930557683,190.96133290454404A309.61247799277385,309.61247799277385 0,0,1 224.5165641567736,447.9992584905322" style="fill: none; stroke-width: 1.66667; stroke: grey; stroke-opacity: 0.4;"></path><path d="M520.1215649419894,318.3025313631601A393.62791148522746,393.62791148522746 0,0,1 126.52288367948489,313.50557309364723" style="fill: none; stroke-width: 1.66667; stroke: grey; stroke-opacity: 0.4;"></path><path d="M520.1215649419894,318.3025313631601A213.94092902538029,213.94092902538029 0,0,1 312.14775363543816,368.47837139469146" style="fill: none; stroke-width: 1.66667; stroke: grey; stroke-opacity: 0.4;"></path><path d="M520.1215649419894,318.3025313631601A175.11264211231298,175.11264211231298 0,0,1 642.9799060262883,443.08340110515655" style="fill: none; stroke-width: 1.66667; stroke: grey; stroke-opacity: 0.4;"></path><path d="M583.2839185878255,438.00181439184917A84.96622320929986,84.96622320929986 0,0,1 518.1759547335387,383.410495217447" style="fill: none; stroke-width: 1.66667; stroke: grey; stroke-opacity: 0.4;"></path><path d="M583.2839185878255,438.00181439184917A285.45455270846867,285.45455270846867 0,0,1 297.9574368907836,429.45193109559824" style="fill: none; stroke-width: 1.66667; stroke: grey; stroke-opacity: 0.4;"></path><path d="M583.2839185878255,438.00181439184917A296.77802809246157,296.77802809246157 0,0,1 514.0415505801586,149.41440574216338" style="fill: none; stroke-width: 1.66667; stroke: grey; stroke-opacity: 0.4;"></path><path d="M583.2839185878255,438.00181439184917A279.90771527642323,279.90771527642323 0,0,1 312.14775363543816,368.47837139469146" style="fill: none; stroke-width: 1.66667; stroke: grey; stroke-opacity: 0.4;"></path><path d="M367.12055193648234,439.83028038531944A161.24802905018657,161.24802905018657 0,0,1 518.1759547335387,383.410495217447" style="fill: none; stroke-width: 1.66667; stroke: grey; stroke-opacity: 0.4;"></path><path d="M367.12055193648234,439.83028038531944A125.80091542737196,125.80091542737196 0,0,1 376.0736404921186,314.34835926645974" style="fill: none; stroke-width: 1.66667; stroke: grey; stroke-opacity: 0.4;"></path><path d="M367.12055193648234,439.83028038531944A272.7586869775979,272.7586869775979 0,0,1 533.1841975477621,223.45059804884286" style="fill: none; stroke-width: 1.66667; stroke: grey; stroke-opacity: 0.4;"></path><path d="M367.12055193648234,439.83028038531944A293.8325416004992,293.8325416004992 0,0,1 654.6114691109036,379.1134372063534" style="fill: none; stroke-width: 1.66667; stroke: grey; stroke-opacity: 0.4;"></path><path d="M367.12055193648234,439.83028038531944A329.50647700816296,329.50647700816296 0,0,1 696.5958791029203,444.36097336760054" style="fill: none; stroke-width: 1.66667; stroke: grey; stroke-opacity: 0.4;"></path><path d="M367.12055193648234,439.83028038531944A142.837773484323,142.837773484323 0,0,1 224.5165641567736,447.9992584905322" style="fill: none; stroke-width: 1.66667; stroke: grey; stroke-opacity: 0.4;"></path><path d="M367.12055193648234,439.83028038531944A139.3933805464506,139.3933805464506 0,0,1 317.8092242105069,309.45042190223535" style="fill: none; stroke-width: 1.66667; stroke: grey; stroke-opacity: 0.4;"></path><path d="M367.12055193648234,439.83028038531944A144.65510753646458,144.65510753646458 0,0,1 444.68069020797947,317.72571418203455" style="fill: none; stroke-width: 1.66667; stroke: grey; stroke-opacity: 0.4;"></path><path d="M518.1759547335387,383.410495217447A101.16622624183701,101.16622624183701 0,0,1 444.6709676534534,452.9203665047041" style="fill: none; stroke-width: 1.66667; stroke: grey; stroke-opacity: 0.4;"></path><path d="M518.1759547335387,383.410495217447A275.5049394463636,275.5049394463636 0,0,1 431.7931555511175,121.79821785884523" style="fill: none; stroke-width: 1.66667; stroke: grey; stroke-opacity: 0.4;"></path><path d="M518.1759547335387,383.410495217447A191.37104648761127,191.37104648761127 0,0,1 380.82791486646846,250.14987320765314" style="fill: none; stroke-width: 1.66667; stroke: grey; stroke-opacity: 0.4;"></path><path d="M518.1759547335387,383.410495217447A234.0326113759115,234.0326113759115 0,0,1 514.0415505801586,149.41440574216338" style="fill: none; stroke-width: 1.66667; stroke: grey; stroke-opacity: 0.4;"></path><path d="M518.1759547335387,383.410495217447A213.58117694516227,213.58117694516227 0,0,1 317.8092242105069,309.45042190223535" style="fill: none; stroke-width: 1.66667; stroke: grey; stroke-opacity: 0.4;"></path><path d="M444.6709676534534,452.9203665047041A67.68266006226305,67.68266006226305 0,0,1 432.59873693749597,386.3230413433693" style="fill: none; stroke-width: 1.66667; stroke: grey; stroke-opacity: 0.4;"></path><path d="M444.6709676534534,452.9203665047041A347.3538368265924,347.3538368265924 0,0,1 126.52288367948489,313.50557309364723" style="fill: none; stroke-width: 1.66667; stroke: grey; stroke-opacity: 0.4;"></path><path d="M444.6709676534534,452.9203665047041A222.53646210151135,222.53646210151135 0,0,1 654.6114691109036,379.1134372063534" style="fill: none; stroke-width: 1.66667; stroke: grey; stroke-opacity: 0.4;"></path><path d="M444.6709676534534,452.9203665047041A252.07027635105504,252.07027635105504 0,0,1 696.5958791029203,444.36097336760054" style="fill: none; stroke-width: 1.66667; stroke: grey; stroke-opacity: 0.4;"></path><path d="M444.6709676534534,452.9203665047041A220.209397354123,220.209397354123 0,0,1 224.5165641567736,447.9992584905322" style="fill: none; stroke-width: 1.66667; stroke: grey; stroke-opacity: 0.4;"></path><path d="M444.6709676534534,452.9203665047041A157.13959651158603,157.13959651158603 0,0,1 312.14775363543816,368.47837139469146" style="fill: none; stroke-width: 1.66667; stroke: grey; stroke-opacity: 0.4;"></path><path d="M432.59873693749597,386.3230413433693A91.51743761836549,91.51743761836549 0,0,1 376.0736404921186,314.34835926645974" style="fill: none; stroke-width: 1.66667; stroke: grey; stroke-opacity: 0.4;"></path><path d="M432.59873693749597,386.3230413433693A314.6185176208146,314.6185176208146 0,0,1 126.52288367948489,313.50557309364723" style="fill: none; stroke-width: 1.66667; stroke: grey; stroke-opacity: 0.4;"></path><path d="M432.59873693749597,386.3230413433693A222.12976306410113,222.12976306410113 0,0,1 654.6114691109036,379.1134372063534" style="fill: none; stroke-width: 1.66667; stroke: grey; stroke-opacity: 0.4;"></path><path d="M297.9574368907836,429.45193109559824A139.1077766083222,139.1077766083222 0,0,1 376.0736404921186,314.34835926645974" style="fill: none; stroke-width: 1.66667; stroke: grey; stroke-opacity: 0.4;"></path><path d="M589.2846799876882,305.67634570031424A99.54063344602497,99.54063344602497 0,0,1 533.1841975477621,223.45059804884286" style="fill: none; stroke-width: 1.66667; stroke: grey; stroke-opacity: 0.4;"></path><path d="M589.2846799876882,305.67634570031424A173.43391364586967,173.43391364586967 0,0,1 514.0415505801586,149.41440574216338" style="fill: none; stroke-width: 1.66667; stroke: grey; stroke-opacity: 0.4;"></path><path d="M589.2846799876882,305.67634570031424A197.19664159184936,197.19664159184936 0,0,1 642.9799060262883,495.4218019193445" style="fill: none; stroke-width: 1.66667; stroke: grey; stroke-opacity: 0.4;"></path><path d="M195.6859987251837,311.3960321106861A302.81004057577354,302.81004057577354 0,0,1 431.7931555511175,121.79821785884523" style="fill: none; stroke-width: 1.66667; stroke: grey; stroke-opacity: 0.4;"></path><path d="M195.6859987251837,311.3960321106861A69.1952790729495,69.1952790729495 0,0,1 126.52288367948489,313.50557309364723" style="fill: none; stroke-width: 1.66667; stroke: grey; stroke-opacity: 0.4;"></path><path d="M195.6859987251837,311.3960321106861A463.89463709084305,463.89463709084305 0,0,1 654.6114691109036,379.1134372063534" style="fill: none; stroke-width: 1.66667; stroke: grey; stroke-opacity: 0.4;"></path><path d="M195.6859987251837,311.3960321106861A518.2570634959962,518.2570634959962 0,0,1 696.5958791029203,444.36097336760054" style="fill: none; stroke-width: 1.66667; stroke: grey; stroke-opacity: 0.4;"></path><path d="M195.6859987251837,311.3960321106861A139.612474229521,139.612474229521 0,0,1 224.5165641567736,447.9992584905322" style="fill: none; stroke-width: 1.66667; stroke: grey; stroke-opacity: 0.4;"></path><path d="M232.84947303649668,376.503995964973A468.6846472008071,468.6846472008071 0,0,1 696.5958791029203,444.36097336760054" style="fill: none; stroke-width: 1.66667; stroke: grey; stroke-opacity: 0.4;"></path><path d="M232.84947303649668,376.503995964973A415.4994455510316,415.4994455510316 0,0,1 642.9799060262883,443.08340110515655" style="fill: none; stroke-width: 1.66667; stroke: grey; stroke-opacity: 0.4;"></path><path d="M232.84947303649668,376.503995964973A219.8348265805635,219.8348265805635 0,0,1 444.68069020797947,317.72571418203455" style="fill: none; stroke-width: 1.66667; stroke: grey; stroke-opacity: 0.4;"></path><path d="M376.0736404921186,314.34835926645974A202.0695678490969,202.0695678490969 0,0,1 224.5165641567736,447.9992584905322" style="fill: none; stroke-width: 1.66667; stroke: grey; stroke-opacity: 0.4;"></path><path d="M376.0736404921186,314.34835926645974A83.76501192870221,83.76501192870221 0,0,1 312.14775363543816,368.47837139469146" style="fill: none; stroke-width: 1.66667; stroke: grey; stroke-opacity: 0.4;"></path><path d="M371.17570312789417,372.6127755480714A91.73643022835913,91.73643022835913 0,0,1 444.68069020797947,317.72571418203455" style="fill: none; stroke-width: 1.66667; stroke: grey; stroke-opacity: 0.4;"></path><path d="M533.1841975477621,223.45059804884286A154.67801448967504,154.67801448967504 0,0,1 380.82791486646846,250.14987320765314" style="fill: none; stroke-width: 1.66667; stroke: grey; stroke-opacity: 0.4;"></path><path d="M533.1841975477621,223.45059804884286A274.7813159444412,274.7813159444412 0,0,1 696.5958791029203,444.36097336760054" style="fill: none; stroke-width: 1.66667; stroke: grey; stroke-opacity: 0.4;"></path><path d="M533.1841975477621,223.45059804884286A381.7038234146349,381.7038234146349 0,0,1 224.5165641567736,447.9992584905322" style="fill: none; stroke-width: 1.66667; stroke: grey; stroke-opacity: 0.4;"></path><path d="M431.7931555511175,121.79821785884523A360.47420010273004,360.47420010273004 0,0,1 126.52288367948489,313.50557309364723" style="fill: none; stroke-width: 1.66667; stroke: grey; stroke-opacity: 0.4;"></path><path d="M431.7931555511175,121.79821785884523A86.76089163937822,86.76089163937822 0,0,1 514.0415505801586,149.41440574216338" style="fill: none; stroke-width: 1.66667; stroke: grey; stroke-opacity: 0.4;"></path><path d="M126.52288367948489,313.50557309364723A584.8985859889771,584.8985859889771 0,0,1 696.5958791029203,444.36097336760054" style="fill: none; stroke-width: 1.66667; stroke: grey; stroke-opacity: 0.4;"></path><path d="M126.52288367948489,313.50557309364723A193.59390718514842,193.59390718514842 0,0,1 312.14775363543816,368.47837139469146" style="fill: none; stroke-width: 1.66667; stroke: grey; stroke-opacity: 0.4;"></path><path d="M126.52288367948489,313.50557309364723A532.4643363113692,532.4643363113692 0,0,1 642.9799060262883,443.08340110515655" style="fill: none; stroke-width: 1.66667; stroke: grey; stroke-opacity: 0.4;"></path><path d="M654.6114691109036,379.1134372063534A435.57649574041295,435.57649574041295 0,0,1 224.5165641567736,447.9992584905322" style="fill: none; stroke-width: 1.66667; stroke: grey; stroke-opacity: 0.4;"></path><path d="M654.6114691109036,379.1134372063534A342.6288094163696,342.6288094163696 0,0,1 312.14775363543816,368.47837139469146" style="fill: none; stroke-width: 1.66667; stroke: grey; stroke-opacity: 0.4;"></path><path d="M654.6114691109036,379.1134372063534A343.93122549604095,343.93122549604095 0,0,1 317.8092242105069,309.45042190223535" style="fill: none; stroke-width: 1.66667; stroke: grey; stroke-opacity: 0.4;"></path><path d="M654.6114691109036,379.1134372063534A218.72216272910916,218.72216272910916 0,0,1 444.68069020797947,317.72571418203455" style="fill: none; stroke-width: 1.66667; stroke: grey; stroke-opacity: 0.4;"></path><path d="M696.5958791029203,444.36097336760054A74.03972434676348,74.03972434676348 0,0,1 642.9799060262883,495.4218019193445" style="fill: none; stroke-width: 1.66667; stroke: grey; stroke-opacity: 0.4;"></path><path d="M696.5958791029203,444.36097336760054A281.9534558486014,281.9534558486014 0,0,1 444.68069020797947,317.72571418203455" style="fill: none; stroke-width: 1.66667; stroke: grey; stroke-opacity: 0.4;"></path><path d="M224.5165641567736,447.9992584905322A418.49221515153147,418.49221515153147 0,0,1 642.9799060262883,443.08340110515655" style="fill: none; stroke-width: 1.66667; stroke: grey; stroke-opacity: 0.4;"></path><path d="M224.5165641567736,447.9992584905322A255.8191524233269,255.8191524233269 0,0,1 444.68069020797947,317.72571418203455" style="fill: none; stroke-width: 1.66667; stroke: grey; stroke-opacity: 0.4;"></path><path d="M514.0415505801586,149.41440574216338A253.21661158153177,253.21661158153177 0,0,1 317.8092242105069,309.45042190223535" style="fill: none; stroke-width: 1.66667; stroke: grey; stroke-opacity: 0.4;"></path><path d="M312.14775363543816,368.47837139469146A141.9183268316207,141.9183268316207 0,0,1 444.68069020797947,317.72571418203455" style="fill: none; stroke-width: 1.66667; stroke: grey; stroke-opacity: 0.4;"></path><path d="M642.9799060262883,443.08340110515655A234.59993321582957,234.59993321582957 0,0,1 444.68069020797947,317.72571418203455" style="fill: none; stroke-width: 1.66667; stroke: grey; stroke-opacity: 0.4;"></path></g><rect class="group" rx="25" ry="25" style="fill: rgb(0, 130, 200); stroke: rgb(0, 0, 0); stroke-width: 2px; opacity: 0.4;" x="89.88655608587423" y="276.86934691176475" width="313.87032328565726" height="212.04409811385608" bounds="a"></rect><rect class="group" rx="25" ry="25" style="fill: rgb(248, 248, 255); stroke: rgb(0, 0, 0); stroke-width: 2px; opacity: 0.4;" x="354.1603974317314" y="85.16189085266971" width="114.2671695521675" height="191.64973563487814" bounds="a"></rect><rect class="group" rx="25" ry="25" style="fill: rgb(255, 225, 25); stroke: rgb(0, 0, 0); stroke-width: 2px; opacity: 0.4;" x="485.5947722421921" y="120.96914100214492" width="239.4478728618377" height="401.6233682538131" bounds="a"></rect><rect class="group" rx="25" ry="25" style="fill: rgb(204, 204, 204); stroke: rgb(0, 0, 0); stroke-width: 2px; opacity: 0.4;" x="403.7665988369099" y="276.81162948754786" width="81.82817040528221" height="81.82817040528221" bounds="a"></rect><rect class="group" rx="25" ry="25" style="fill: rgb(170, 255, 195); stroke: rgb(0, 0, 0); stroke-width: 2px; opacity: 0.4;" x="403.75688237153145" y="358.63980289283006" width="81.82817040528232" height="135.19464932266965" bounds="a"></rect><circle r="13.946772169537994" style="fill: rgb(0, 130, 200); stroke: rgb(85, 85, 85); stroke-width: 2px; stroke-opacity: 0.9;" cx="312.14775363543816" cy="368.47837139469146" fill-opacity="0.9"></circle><circle r="12.161752771740284" style="fill: rgb(248, 248, 255); stroke: rgb(85, 85, 85); stroke-width: 2px; stroke-opacity: 0.9;" cx="380.82791486646846" cy="250.14987320765314" fill-opacity="0.9"></circle><circle r="12" style="fill: rgb(0, 130, 200); stroke: rgb(85, 85, 85); stroke-width: 2px; stroke-opacity: 0.9;" cx="159.1024779541325" cy="425.9654081514577" fill-opacity="0.9"></circle><circle r="33.089419137141476" style="fill: rgb(255, 225, 25); stroke: rgb(85, 85, 85); stroke-width: 2px; stroke-opacity: 0.9;" cx="533.1841975477621" cy="223.45059804884286" fill-opacity="0.9"></circle><circle r="26.414085202641132" style="fill: rgb(0, 130, 200); stroke: rgb(85, 85, 85); stroke-width: 2px; stroke-opacity: 0.9;" cx="444.68069020797947" cy="317.72571418203455" fill-opacity="0.9"></circle><circle r="26.414085202641132" style="fill: rgb(0, 130, 200); stroke: rgb(85, 85, 85); stroke-width: 2px; stroke-opacity: 0.9;" cx="444.6709676534534" cy="452.9203665047041" class="fixed" fill-opacity="0.9"></circle><circle r="26.414085202641132" style="fill: rgb(0, 130, 200); stroke: rgb(85, 85, 85); stroke-width: 2px; stroke-opacity: 0.9;" cx="224.5165641567736" cy="447.9992584905322" fill-opacity="0.9"></circle><circle r="24.3007629917092" style="fill: rgb(255, 225, 25); stroke: rgb(85, 85, 85); stroke-width: 2px; stroke-opacity: 0.9;" cx="654.6114691109036" cy="379.1134372063534" fill-opacity="0.9"></circle><circle r="22.136327514329945" style="fill: rgb(255, 225, 25); stroke: rgb(85, 85, 85); stroke-width: 2px; stroke-opacity: 0.9;" cx="431.7931555511175" cy="121.79821785884523" fill-opacity="0.9"></circle><circle r="20.02678653136882" style="fill: rgb(255, 225, 25); stroke: rgb(85, 85, 85); stroke-width: 2px; stroke-opacity: 0.9;" cx="520.1215649419894" cy="318.3025313631601" fill-opacity="0.9"></circle><circle r="22.136327514329945" style="fill: rgb(0, 130, 200); stroke: rgb(85, 85, 85); stroke-width: 2px; stroke-opacity: 0.9;" cx="126.52288367948489" cy="313.50557309364723" fill-opacity="0.9"></circle><circle r="22.136327514329945" style="fill: rgb(255, 225, 25); stroke: rgb(85, 85, 85); stroke-width: 2px; stroke-opacity: 0.9;" cx="589.2846799876882" cy="305.67634570031424" fill-opacity="0.9"></circle><circle r="20.02678653136882" style="fill: rgb(0, 130, 200); stroke: rgb(85, 85, 85); stroke-width: 2px; stroke-opacity: 0.9;" cx="195.6859987251837" cy="311.3960321106861" fill-opacity="0.9"></circle><circle r="20.02678653136882" style="fill: rgb(248, 248, 255); stroke: rgb(85, 85, 85); stroke-width: 2px; stroke-opacity: 0.9;" cx="397.1183930557683" cy="190.96133290454404" fill-opacity="0.9"></circle><circle r="20.02678653136882" style="fill: rgb(255, 225, 25); stroke: rgb(85, 85, 85); stroke-width: 2px; stroke-opacity: 0.9;" cx="583.2839185878255" cy="438.00181439184917" fill-opacity="0.9"></circle><circle r="22.136327514329945" style="fill: rgb(0, 130, 200); stroke: rgb(85, 85, 85); stroke-width: 2px; stroke-opacity: 0.9;" cx="367.12055193648234" cy="439.83028038531944" fill-opacity="0.9"></circle><circle r="18.081176322918076" style="fill: rgb(255, 225, 25); stroke: rgb(85, 85, 85); stroke-width: 2px; stroke-opacity: 0.9;" cx="518.1759547335387" cy="383.410495217447" fill-opacity="0.9"></circle><circle r="18.081176322918076" style="fill: rgb(255, 225, 25); stroke: rgb(85, 85, 85); stroke-width: 2px; stroke-opacity: 0.9;" cx="585.2295287962763" cy="372.8938505375623" fill-opacity="0.9"></circle><circle r="18.081176322918076" style="fill: rgb(0, 130, 200); stroke: rgb(85, 85, 85); stroke-width: 2px; stroke-opacity: 0.9;" cx="232.84947303649668" cy="376.503995964973" fill-opacity="0.9"></circle><circle r="20.02678653136882" style="fill: rgb(0, 130, 200); stroke: rgb(85, 85, 85); stroke-width: 2px; stroke-opacity: 0.9;" cx="297.9574368907836" cy="429.45193109559824" fill-opacity="0.9"></circle><circle r="18.081176322918076" style="fill: rgb(0, 130, 200); stroke: rgb(85, 85, 85); stroke-width: 2px; stroke-opacity: 0.9;" cx="317.8092242105069" cy="309.45042190223535" fill-opacity="0.9"></circle><circle r="18.081176322918076" style="fill: rgb(0, 130, 200); stroke: rgb(85, 85, 85); stroke-width: 2px; stroke-opacity: 0.9;" cx="371.17570312789417" cy="372.6127755480714" fill-opacity="0.9"></circle><circle r="13.946772169537994" style="fill: rgb(255, 225, 25); stroke: rgb(85, 85, 85); stroke-width: 2px; stroke-opacity: 0.9;" cx="696.5958791029203" cy="444.36097336760054" fill-opacity="0.9"></circle><circle r="13.183238958693678" style="fill: rgb(170, 255, 195); stroke: rgb(85, 85, 85); stroke-width: 2px; stroke-opacity: 0.9;" cx="432.59873693749597" cy="386.3230413433693" fill-opacity="0.9"></circle><circle r="15.00763031551816" style="fill: rgb(0, 130, 200); stroke: rgb(85, 85, 85); stroke-width: 2px; stroke-opacity: 0.9;" cx="257.7204165720707" cy="312.52396790963525" fill-opacity="0.9"></circle><circle r="13.946772169537994" style="fill: rgb(255, 225, 25); stroke: rgb(85, 85, 85); stroke-width: 2px; stroke-opacity: 0.9;" cx="514.0415505801586" cy="149.41440574216338" fill-opacity="0.9"></circle><circle r="12.669199907093969" style="fill: rgb(255, 225, 25); stroke: rgb(85, 85, 85); stroke-width: 2px; stroke-opacity: 0.9;" cx="642.9799060262883" cy="443.08340110515655" fill-opacity="0.9"></circle><circle r="12.669199907093969" style="fill: rgb(255, 225, 25); stroke: rgb(85, 85, 85); stroke-width: 2px; stroke-opacity: 0.9;" cx="642.9799060262883" cy="495.4218019193445" fill-opacity="0.9"></circle><circle r="13.183238958693678" style="fill: rgb(0, 130, 200); stroke: rgb(85, 85, 85); stroke-width: 2px; stroke-opacity: 0.9;" cx="376.0736404921186" cy="314.34835926645974" fill-opacity="0.9"></circle><circle r="12.161752771740284" style="fill: rgb(0, 130, 200); stroke: rgb(85, 85, 85); stroke-width: 2px; stroke-opacity: 0.9;" cx="175.60654294183837" cy="374.80365437971744" fill-opacity="0.9"></circle><g><text x="304.80734723041815" y="370.8028334229478" style="font-style: normal; font-variant: normal; font-weight: bold; font-stretch: normal; font-size: 6.27605px; line-height: normal; font-family: sans-serif; pointer-events: none; opacity: 0.9;">SIC1</text><text x="374.4269923550262" y="252.1768320029432" style="font-style: normal; font-variant: normal; font-weight: bold; font-stretch: normal; font-size: 5.47279px; line-height: normal; font-family: sans-serif; pointer-events: none; opacity: 0.9;">ORC1</text><text x="152.78668848044828" y="427.9654081514577" style="font-style: normal; font-variant: normal; font-weight: bold; font-stretch: normal; font-size: 5.4px; line-height: normal; font-family: sans-serif; pointer-events: none; opacity: 0.9;">NTH1</text><text x="515.7687137913719" y="228.96550123836644" style="font-style: normal; font-variant: normal; font-weight: bold; font-stretch: normal; font-size: 14.8902px; line-height: normal; font-family: sans-serif; pointer-events: none; opacity: 0.9;">HTZ1</text><text x="430.77854010132626" y="322.1280617158081" style="font-style: normal; font-variant: normal; font-weight: bold; font-stretch: normal; font-size: 11.8863px; line-height: normal; font-family: sans-serif; pointer-events: none; opacity: 0.9;">YAF9</text><text x="430.76881754680016" y="457.3227140384776" style="font-style: normal; font-variant: normal; font-weight: bold; font-stretch: normal; font-size: 11.8863px; line-height: normal; font-family: sans-serif; pointer-events: none; opacity: 0.9;">ESA1</text><text x="206.9071740216795" y="452.40160602430575" style="font-style: normal; font-variant: normal; font-weight: bold; font-stretch: normal; font-size: 11.8863px; line-height: normal; font-family: sans-serif; pointer-events: none; opacity: 0.9;">RPN10</text><text x="641.8215938521093" y="383.1635643716383" style="font-style: normal; font-variant: normal; font-weight: bold; font-stretch: normal; font-size: 10.9353px; line-height: normal; font-family: sans-serif; pointer-events: none; opacity: 0.9;">NPL3</text><text x="420.14245685936487" y="125.48760577790023" style="font-style: normal; font-variant: normal; font-weight: bold; font-stretch: normal; font-size: 9.96135px; line-height: normal; font-family: sans-serif; pointer-events: none; opacity: 0.9;">LGE1</text><text x="509.58115097811105" y="321.6403291183882" style="font-style: normal; font-variant: normal; font-weight: bold; font-stretch: normal; font-size: 9.01205px; line-height: normal; font-family: sans-serif; pointer-events: none; opacity: 0.9;">ASF1</text><text x="114.87218498773228" y="317.1949610127022" style="font-style: normal; font-variant: normal; font-weight: bold; font-stretch: normal; font-size: 9.96135px; line-height: normal; font-family: sans-serif; pointer-events: none; opacity: 0.9;">LSM1</text><text x="577.6339812959355" y="309.3657336193692" style="font-style: normal; font-variant: normal; font-weight: bold; font-stretch: normal; font-size: 9.96135px; line-height: normal; font-family: sans-serif; pointer-events: none; opacity: 0.9;">HHF1</text><text x="185.14558476130537" y="314.73382986591423" style="font-style: normal; font-variant: normal; font-weight: bold; font-stretch: normal; font-size: 9.01205px; line-height: normal; font-family: sans-serif; pointer-events: none; opacity: 0.9;">HHT1</text><text x="386.57797909189" y="194.29913065977217" style="font-style: normal; font-variant: normal; font-weight: bold; font-stretch: normal; font-size: 9.01205px; line-height: normal; font-family: sans-serif; pointer-events: none; opacity: 0.9;">ARP8</text><text x="572.7435046239472" y="441.3396121470773" style="font-style: normal; font-variant: normal; font-weight: bold; font-stretch: normal; font-size: 9.01205px; line-height: normal; font-family: sans-serif; pointer-events: none; opacity: 0.9;">BRE1</text><text x="352.36300026026237" y="443.5196683043744" style="font-style: normal; font-variant: normal; font-weight: bold; font-stretch: normal; font-size: 9.96135px; line-height: normal; font-family: sans-serif; pointer-events: none; opacity: 0.9;">CDC28</text><text x="506.1218371849266" y="386.42402460460005" style="font-style: normal; font-variant: normal; font-weight: bold; font-stretch: normal; font-size: 8.13653px; line-height: normal; font-family: sans-serif; pointer-events: none; opacity: 0.9;">CTF18</text><text x="575.7131202052668" y="375.9073799247153" style="font-style: normal; font-variant: normal; font-weight: bold; font-stretch: normal; font-size: 8.13653px; line-height: normal; font-family: sans-serif; pointer-events: none; opacity: 0.9;">NAB2</text><text x="223.33306444548717" y="379.51752535212603" style="font-style: normal; font-variant: normal; font-weight: bold; font-stretch: normal; font-size: 8.13653px; line-height: normal; font-family: sans-serif; pointer-events: none; opacity: 0.9;">HHT2</text><text x="287.41702292690525" y="432.78972885082635" style="font-style: normal; font-variant: normal; font-weight: bold; font-stretch: normal; font-size: 9.01205px; line-height: normal; font-family: sans-serif; pointer-events: none; opacity: 0.9;">GIS2</text><text x="308.2928156194974" y="312.4639512893884" style="font-style: normal; font-variant: normal; font-weight: bold; font-stretch: normal; font-size: 8.13653px; line-height: normal; font-family: sans-serif; pointer-events: none; opacity: 0.9;">UBP3</text><text x="361.65929453688466" y="375.6263049352244" style="font-style: normal; font-variant: normal; font-weight: bold; font-stretch: normal; font-size: 8.13653px; line-height: normal; font-family: sans-serif; pointer-events: none; opacity: 0.9;">HTA1</text><text x="687.298030989895" y="446.68543539585687" style="font-style: normal; font-variant: normal; font-weight: bold; font-stretch: normal; font-size: 6.27605px; line-height: normal; font-family: sans-serif; pointer-events: none; opacity: 0.9;">RAD27</text><text x="425.66019011713087" y="388.52024783648494" style="font-style: normal; font-variant: normal; font-weight: bold; font-stretch: normal; font-size: 5.93246px; line-height: normal; font-family: sans-serif; pointer-events: none; opacity: 0.9;">GET2</text><text x="249.82166377442957" y="315.0252396288883" style="font-style: normal; font-variant: normal; font-weight: bold; font-stretch: normal; font-size: 6.75343px; line-height: normal; font-family: sans-serif; pointer-events: none; opacity: 0.9;">SSB2</text><text x="504.7437024671333" y="151.73886777041972" style="font-style: normal; font-variant: normal; font-weight: bold; font-stretch: normal; font-size: 6.27605px; line-height: normal; font-family: sans-serif; pointer-events: none; opacity: 0.9;">RPN11</text><text x="634.5337727548923" y="445.1949344230055" style="font-style: normal; font-variant: normal; font-weight: bold; font-stretch: normal; font-size: 5.70114px; line-height: normal; font-family: sans-serif; pointer-events: none; opacity: 0.9;">SPT10</text><text x="636.3119060751862" y="497.53333523719346" style="font-style: normal; font-variant: normal; font-weight: bold; font-stretch: normal; font-size: 5.70114px; line-height: normal; font-family: sans-serif; pointer-events: none; opacity: 0.9;">SFP1</text><text x="367.28481451965615" y="316.54556575957537" style="font-style: normal; font-variant: normal; font-weight: bold; font-stretch: normal; font-size: 5.93246px; line-height: normal; font-family: sans-serif; pointer-events: none; opacity: 0.9;">HSP82</text><text x="169.20562043039612" y="376.8306131750075" style="font-style: normal; font-variant: normal; font-weight: bold; font-stretch: normal; font-size: 5.47279px; line-height: normal; font-family: sans-serif; pointer-events: none; opacity: 0.9;">PUF3</text></g></svg>